<svg width="789" height="791" viewBox="0 0 789 791" fill="none" xmlns="http://www.w3.org/2000/svg">
<g filter="url(#filter0_dddddd_2518_22747)">
<rect x="-97.207" y="25" width="741.434" height="501.199" rx="8.70314" fill="#151734"/>
<rect x="-98.8389" y="23.3682" width="744.697" height="504.463" rx="10.335" stroke="url(#paint0_linear_2518_22747)" stroke-width="3.26368"/>
</g>
<rect x="-61.7539" y="369.723" width="209.148" height="116.457" rx="5.43946" fill="#293567"/>
<path d="M-61.7539 461.188H147.394V480.741C147.394 483.745 144.959 486.18 141.955 486.18H-56.3144C-59.3186 486.18 -61.7539 483.745 -61.7539 480.741V461.188Z" fill="#3A467C"/>
<rect x="166.836" y="369.723" width="209.148" height="116.457" rx="5.43946" fill="#293567"/>
<rect x="395.422" y="369.723" width="209.148" height="116.457" rx="5.43946" fill="#293567"/>
<path d="M584.285 65.2526C584.285 66.7456 583.075 67.9559 581.582 67.9559C580.089 67.9559 578.879 66.7456 578.879 65.2526C578.879 63.7596 580.089 62.5493 581.582 62.5493C583.075 62.5493 584.285 63.7596 584.285 65.2526Z" fill="#4E5EA4"/>
<path d="M592.956 65.2526C592.956 66.7456 591.746 67.9559 590.253 67.9559C588.76 67.9559 587.55 66.7456 587.55 65.2526C587.55 63.7596 588.76 62.5493 590.253 62.5493C591.746 62.5493 592.956 63.7596 592.956 65.2526Z" fill="#4E5EA4"/>
<path d="M601.627 65.2526C601.627 66.7456 600.417 67.9559 598.924 67.9559C597.431 67.9559 596.221 66.7456 596.221 65.2526C596.221 63.7596 597.431 62.5493 598.924 62.5493C600.417 62.5493 601.627 63.7596 601.627 65.2526Z" fill="#4E5EA4"/>
<path d="M112.614 386.996C112.614 388.489 111.403 389.699 109.91 389.699C108.417 389.699 107.207 388.489 107.207 386.996C107.207 385.503 108.417 384.292 109.91 384.292C111.403 384.292 112.614 385.503 112.614 386.996Z" fill="#4E5EA4"/>
<path d="M121.285 386.996C121.285 388.489 120.074 389.699 118.581 389.699C117.088 389.699 115.878 388.489 115.878 386.996C115.878 385.503 117.088 384.292 118.581 384.292C120.074 384.292 121.285 385.503 121.285 386.996Z" fill="#4E5EA4"/>
<path d="M129.955 386.996C129.955 388.489 128.745 389.699 127.252 389.699C125.759 389.699 124.549 388.489 124.549 386.996C124.549 385.503 125.759 384.292 127.252 384.292C128.745 384.292 129.955 385.503 129.955 386.996Z" fill="#4E5EA4"/>
<rect x="-61.7539" y="52.4736" width="288.467" height="26.7324" rx="13.3662" fill="#293567"/>
<path d="M188.285 52.4736H213.347C220.729 52.4736 226.713 58.4579 226.713 65.8398C226.713 73.2218 220.729 79.206 213.347 79.206H188.285V52.4736Z" fill="#4E5EA4"/>
<path fill-rule="evenodd" clip-rule="evenodd" d="M204.553 69.1835C206.904 69.1835 208.809 67.278 208.809 64.9273C208.809 62.5767 206.904 60.6711 204.553 60.6711C202.202 60.6711 200.297 62.5767 200.297 64.9273C200.297 67.278 202.202 69.1835 204.553 69.1835Z" stroke="white" stroke-width="1.63184" stroke-linecap="round" stroke-linejoin="round"/>
<path d="M210.634 71.0084L207.582 67.9561" stroke="white" stroke-width="1.63184" stroke-linecap="round" stroke-linejoin="round"/>
<rect x="-11.4961" y="105.732" width="616.069" height="210.437" rx="5.43946" fill="#040815"/>
<path d="M197.344 333.04V343.197" stroke="#5A69A8" stroke-width="2.17579"/>
<path d="M92.9219 333.04V343.197" stroke="#5A69A8" stroke-width="2.17579"/>
<path d="M301.762 333.04V343.197" stroke="#5A69A8" stroke-width="2.17579"/>
<path d="M458.387 333.04V343.197" stroke="#5A69A8" stroke-width="2.17579"/>
<path d="M40.7148 333.04V343.197" stroke="#5A69A8" stroke-width="2.17579"/>
<path d="M249.551 333.04V343.197" stroke="#5A69A8" stroke-width="2.17579"/>
<path d="M406.18 333.04V343.197" stroke="#5A69A8" stroke-width="2.17579"/>
<path d="M145.133 333.04V343.197" stroke="#5A69A8" stroke-width="2.17579"/>
<path d="M353.969 333.04V343.197" stroke="#5A69A8" stroke-width="2.17579"/>
<path d="M510.598 333.04V343.197" stroke="#5A69A8" stroke-width="2.17579"/>
<path d="M562.805 333.04V343.197" stroke="#5A69A8" stroke-width="2.17579"/>
<path d="M-1.05469 333.04V338.118" stroke="#5A69A8" stroke-width="2.17579"/>
<path d="M207.781 333.04V338.118" stroke="#5A69A8" stroke-width="2.17579"/>
<path d="M103.363 333.04V338.118" stroke="#5A69A8" stroke-width="2.17579"/>
<path d="M312.203 333.04V338.118" stroke="#5A69A8" stroke-width="2.17579"/>
<path d="M468.832 333.04V338.118" stroke="#5A69A8" stroke-width="2.17579"/>
<path d="M51.1562 333.04V338.118" stroke="#5A69A8" stroke-width="2.17579"/>
<path d="M259.992 333.04V338.118" stroke="#5A69A8" stroke-width="2.17579"/>
<path d="M416.621 333.04V338.118" stroke="#5A69A8" stroke-width="2.17579"/>
<path d="M155.574 333.04V338.118" stroke="#5A69A8" stroke-width="2.17579"/>
<path d="M364.41 333.04V338.118" stroke="#5A69A8" stroke-width="2.17579"/>
<path d="M521.039 333.04V338.118" stroke="#5A69A8" stroke-width="2.17579"/>
<path d="M573.246 333.04V338.118" stroke="#5A69A8" stroke-width="2.17579"/>
<path d="M9.39062 333.04V338.118" stroke="#5A69A8" stroke-width="2.17579"/>
<path d="M218.223 333.04V338.118" stroke="#5A69A8" stroke-width="2.17579"/>
<path d="M113.809 333.04V338.118" stroke="#5A69A8" stroke-width="2.17579"/>
<path d="M322.645 333.04V338.118" stroke="#5A69A8" stroke-width="2.17579"/>
<path d="M479.273 333.04V338.118" stroke="#5A69A8" stroke-width="2.17579"/>
<path d="M61.5977 333.04V338.118" stroke="#5A69A8" stroke-width="2.17579"/>
<path d="M270.434 333.04V338.118" stroke="#5A69A8" stroke-width="2.17579"/>
<path d="M427.062 333.04V338.118" stroke="#5A69A8" stroke-width="2.17579"/>
<path d="M166.016 333.04V338.118" stroke="#5A69A8" stroke-width="2.17579"/>
<path d="M374.852 333.04V338.118" stroke="#5A69A8" stroke-width="2.17579"/>
<path d="M531.48 333.04V338.118" stroke="#5A69A8" stroke-width="2.17579"/>
<path d="M583.691 333.04V338.118" stroke="#5A69A8" stroke-width="2.17579"/>
<path d="M19.832 333.04V338.118" stroke="#5A69A8" stroke-width="2.17579"/>
<path d="M228.668 333.04V338.118" stroke="#5A69A8" stroke-width="2.17579"/>
<path d="M124.25 333.04V338.118" stroke="#5A69A8" stroke-width="2.17579"/>
<path d="M333.086 333.04V338.118" stroke="#5A69A8" stroke-width="2.17579"/>
<path d="M489.715 333.04V338.118" stroke="#5A69A8" stroke-width="2.17579"/>
<path d="M72.0391 333.04V338.118" stroke="#5A69A8" stroke-width="2.17579"/>
<path d="M280.875 333.04V338.118" stroke="#5A69A8" stroke-width="2.17579"/>
<path d="M437.504 333.04V338.118" stroke="#5A69A8" stroke-width="2.17579"/>
<path d="M176.457 333.04V338.118" stroke="#5A69A8" stroke-width="2.17579"/>
<path d="M385.293 333.04V338.118" stroke="#5A69A8" stroke-width="2.17579"/>
<path d="M541.922 333.04V338.118" stroke="#5A69A8" stroke-width="2.17579"/>
<path d="M594.133 333.04V338.118" stroke="#5A69A8" stroke-width="2.17579"/>
<path d="M30.2734 333.04V338.118" stroke="#5A69A8" stroke-width="2.17579"/>
<path d="M239.109 333.04V338.118" stroke="#5A69A8" stroke-width="2.17579"/>
<path d="M134.691 333.04V338.118" stroke="#5A69A8" stroke-width="2.17579"/>
<path d="M343.527 333.04V338.118" stroke="#5A69A8" stroke-width="2.17579"/>
<path d="M500.152 333.04V338.118" stroke="#5A69A8" stroke-width="2.17579"/>
<path d="M82.4805 333.04V338.118" stroke="#5A69A8" stroke-width="2.17579"/>
<path d="M291.32 333.04V338.118" stroke="#5A69A8" stroke-width="2.17579"/>
<path d="M447.945 333.04V338.118" stroke="#5A69A8" stroke-width="2.17579"/>
<path d="M186.902 333.04V338.118" stroke="#5A69A8" stroke-width="2.17579"/>
<path d="M395.734 333.04V338.118" stroke="#5A69A8" stroke-width="2.17579"/>
<path d="M552.363 333.04V338.118" stroke="#5A69A8" stroke-width="2.17579"/>
<path d="M604.574 333.04V338.118" stroke="#5A69A8" stroke-width="2.17579"/>
<path d="M-11.4961 292.542H604.573" stroke="#5A69A8" stroke-opacity="0.51" stroke-width="1.08789" stroke-dasharray="4.35 4.35"/>
<path d="M-11.4961 265.345H604.573" stroke="#5A69A8" stroke-opacity="0.51" stroke-width="1.08789" stroke-dasharray="4.35 4.35"/>
<path d="M-11.4961 238.148H604.573" stroke="#5A69A8" stroke-opacity="0.51" stroke-width="1.08789" stroke-dasharray="4.35 4.35"/>
<path d="M-11.4961 210.95H604.573" stroke="#5A69A8" stroke-opacity="0.51" stroke-width="1.08789" stroke-dasharray="4.35 4.35"/>
<path d="M-11.4961 183.753H604.573" stroke="#5A69A8" stroke-opacity="0.51" stroke-width="1.08789" stroke-dasharray="4.35 4.35"/>
<path d="M-11.4961 156.556H604.573" stroke="#5A69A8" stroke-opacity="0.51" stroke-width="1.08789" stroke-dasharray="4.35 4.35"/>
<path d="M-11.4961 129.359H604.573" stroke="#5A69A8" stroke-opacity="0.51" stroke-width="1.08789" stroke-dasharray="4.35 4.35"/>
<path d="M150.103 214.703C98.0363 217.059 54.2069 266.756 24.7734 291.945H529.733V156.362C508.746 179.856 489.507 203.917 449.241 238.155C398.909 280.953 369.201 282.256 331.573 282.256C293.661 282.256 269.481 268.84 239.354 249.257C201.664 224.759 187.133 213.027 150.103 214.703Z" fill="#111111"/>
<path d="M150.103 214.703C98.0363 217.059 54.2069 266.756 24.7734 291.945H529.733V156.362C508.746 179.856 489.507 203.917 449.241 238.155C398.909 280.953 369.201 282.256 331.573 282.256C293.661 282.256 269.481 268.84 239.354 249.257C201.664 224.759 187.133 213.027 150.103 214.703Z" fill="url(#paint1_linear_2518_22747)"/>
<path d="M150.103 214.703C98.0363 217.059 54.2069 266.756 24.7734 291.945H529.733V156.362C508.746 179.856 489.507 203.917 449.241 238.155C398.909 280.953 369.201 282.256 331.573 282.256C293.661 282.256 269.481 268.84 239.354 249.257C201.664 224.759 187.133 213.027 150.103 214.703Z" fill="url(#paint2_linear_2518_22747)"/>
<g filter="url(#filter1_d_2518_22747)">
<circle cx="24.9614" cy="292.543" r="5.30905" fill="#AD37E5"/>
<circle cx="24.9614" cy="292.543" r="4.22115" stroke="#040815" stroke-width="2.17579"/>
</g>
<g filter="url(#filter2_d_2518_22747)">
<circle cx="155.571" cy="214.702" r="5.30905" fill="#AD37E5"/>
<circle cx="155.571" cy="214.702" r="4.22115" stroke="#040815" stroke-width="2.17579"/>
</g>
<g filter="url(#filter3_d_2518_22747)">
<circle cx="529.731" cy="156.363" r="5.30905" fill="#AD37E5"/>
<circle cx="529.731" cy="156.363" r="4.22115" stroke="#040815" stroke-width="2.17579"/>
</g>
<g filter="url(#filter4_d_2518_22747)">
<path d="M188.061 168.166H123.082V191.916H151.285L155.571 199.341L159.858 191.916H188.061V168.166Z" fill="url(#paint3_linear_2518_22747)"/>
</g>
<g filter="url(#filter5_d_2518_22747)">
<path d="M363.803 98.1836H298.824V121.934H327.027L331.314 129.358L335.6 121.934H363.803V98.1836Z" fill="url(#paint4_linear_2518_22747)"/>
</g>
<path d="M145.186 182.874V181.928L147.411 179.154C147.756 178.722 147.997 178.358 148.134 178.06C148.276 177.763 148.347 177.482 148.347 177.217C148.347 176.851 148.231 176.581 147.999 176.407C147.77 176.229 147.395 176.14 146.873 176.14C146.553 176.14 146.238 176.169 145.926 176.227C145.614 176.285 145.335 176.361 145.088 176.456V175.02C145.331 174.933 145.636 174.862 146.002 174.808C146.372 174.75 146.726 174.721 147.063 174.721C148.057 174.721 148.809 174.907 149.32 175.281C149.832 175.651 150.087 176.24 150.087 177.049C150.087 177.455 150.004 177.865 149.837 178.278C149.67 178.688 149.371 179.154 148.94 179.676L147.509 181.416H150.473V182.874H145.186ZM151.551 181.215V180.252L154.357 174.824H156.054L153.487 179.855H155.467L155.646 177.544H157.055V179.855H158.094V181.215H157.055V182.874H155.467V181.215H151.551ZM162.837 182.978C161.727 182.978 160.913 182.782 160.394 182.39C159.876 181.999 159.616 181.491 159.616 180.867C159.616 180.436 159.74 180.053 159.986 179.719C160.233 179.382 160.59 179.116 161.058 178.92C160.612 178.673 160.296 178.387 160.111 178.06C159.93 177.73 159.839 177.362 159.839 176.956C159.839 176.289 160.097 175.75 160.612 175.341C161.13 174.927 161.897 174.721 162.913 174.721C163.816 174.721 164.517 174.902 165.018 175.264C165.522 175.627 165.774 176.124 165.774 176.755C165.774 177.136 165.678 177.487 165.486 177.81C165.297 178.133 164.98 178.407 164.534 178.631C165.081 178.882 165.462 179.172 165.676 179.502C165.89 179.828 165.997 180.216 165.997 180.666C165.997 181.108 165.879 181.505 165.643 181.857C165.411 182.205 165.061 182.479 164.593 182.678C164.126 182.878 163.54 182.978 162.837 182.978ZM161.504 176.891C161.504 177.094 161.551 177.27 161.645 177.418C161.743 177.567 161.924 177.705 162.189 177.832C162.458 177.959 162.846 178.089 163.353 178.224C163.672 178.046 163.901 177.854 164.039 177.647C164.18 177.437 164.251 177.197 164.251 176.929C164.251 176.61 164.135 176.365 163.903 176.195C163.671 176.024 163.333 175.939 162.891 175.939C162.412 175.939 162.06 176.028 161.836 176.205C161.614 176.383 161.504 176.612 161.504 176.891ZM161.265 180.666C161.265 181.018 161.393 181.288 161.651 181.476C161.912 181.665 162.309 181.759 162.842 181.759C163.361 181.759 163.741 181.672 163.984 181.498C164.231 181.324 164.354 181.081 164.354 180.769C164.354 180.559 164.302 180.378 164.196 180.225C164.091 180.073 163.904 179.937 163.636 179.817C163.371 179.698 162.998 179.578 162.516 179.458C162.403 179.429 162.296 179.4 162.195 179.371C161.876 179.52 161.64 179.71 161.488 179.942C161.339 180.171 161.265 180.412 161.265 180.666Z" fill="white"/>
<path d="M322.896 112.995C322.522 112.995 322.158 112.972 321.803 112.925C321.451 112.878 321.117 112.809 320.802 112.718V111.396C321.11 111.483 321.444 111.552 321.803 111.603C322.162 111.654 322.503 111.679 322.825 111.679C323.405 111.679 323.828 111.583 324.093 111.391C324.357 111.199 324.49 110.918 324.49 110.548C324.49 110.192 324.363 109.92 324.109 109.732C323.859 109.54 323.434 109.443 322.836 109.443H321.656V108.105H322.57C323.146 108.105 323.561 108.013 323.815 107.828C324.069 107.643 324.196 107.384 324.196 107.05C324.196 106.727 324.08 106.481 323.848 106.31C323.619 106.14 323.257 106.055 322.76 106.055C322.459 106.055 322.149 106.08 321.83 106.131C321.511 106.182 321.215 106.256 320.943 106.354V105.032C321.204 104.945 321.518 104.874 321.884 104.82C322.254 104.766 322.609 104.738 322.95 104.738C323.926 104.738 324.658 104.927 325.148 105.304C325.641 105.678 325.888 106.207 325.888 106.892C325.888 107.346 325.766 107.734 325.523 108.056C325.284 108.376 324.95 108.599 324.522 108.725C325.045 108.838 325.445 109.057 325.724 109.384C326.007 109.706 326.149 110.131 326.149 110.656C326.149 111.389 325.879 111.962 325.338 112.375C324.802 112.789 323.987 112.995 322.896 112.995ZM330.972 112.995C330.349 112.995 329.801 112.865 329.33 112.604C328.858 112.339 328.49 111.922 328.226 111.353C327.961 110.783 327.828 110.042 327.828 109.128C327.828 107.645 328.166 106.542 328.84 105.821C329.518 105.099 330.479 104.738 331.723 104.738C332.024 104.738 332.312 104.756 332.588 104.793C332.867 104.829 333.126 104.892 333.366 104.983V106.332C333.126 106.249 332.874 106.187 332.61 106.147C332.345 106.104 332.077 106.082 331.805 106.082C331.069 106.082 330.514 106.28 330.14 106.675C329.767 107.066 329.569 107.676 329.547 108.502C329.765 108.361 330.019 108.25 330.309 108.171C330.603 108.091 330.902 108.051 331.206 108.051C331.696 108.051 332.135 108.136 332.523 108.307C332.911 108.477 333.217 108.742 333.442 109.101C333.667 109.456 333.779 109.915 333.779 110.477C333.779 111.268 333.525 111.886 333.018 112.332C332.514 112.774 331.832 112.995 330.972 112.995ZM330.858 109.318C330.637 109.318 330.412 109.351 330.184 109.416C329.955 109.478 329.745 109.578 329.553 109.715C329.575 110.234 329.645 110.64 329.765 110.934C329.888 111.224 330.053 111.429 330.26 111.549C330.467 111.665 330.708 111.723 330.983 111.723C331.331 111.723 331.618 111.627 331.843 111.434C332.068 111.242 332.18 110.939 332.18 110.526C332.18 110.105 332.06 109.799 331.821 109.607C331.582 109.414 331.261 109.318 330.858 109.318ZM338.575 112.995C337.465 112.995 336.651 112.8 336.132 112.408C335.614 112.016 335.355 111.509 335.355 110.885C335.355 110.453 335.478 110.071 335.725 109.737C335.971 109.4 336.328 109.133 336.796 108.938C336.35 108.691 336.035 108.405 335.85 108.078C335.668 107.748 335.578 107.38 335.578 106.974C335.578 106.307 335.835 105.768 336.35 105.358C336.869 104.945 337.636 104.738 338.651 104.738C339.554 104.738 340.256 104.92 340.756 105.282C341.26 105.645 341.512 106.142 341.512 106.773C341.512 107.153 341.416 107.505 341.224 107.828C341.035 108.151 340.718 108.424 340.272 108.649C340.819 108.9 341.2 109.19 341.414 109.52C341.628 109.846 341.735 110.234 341.735 110.684C341.735 111.126 341.617 111.523 341.382 111.875C341.149 112.223 340.8 112.497 340.332 112.696C339.864 112.896 339.278 112.995 338.575 112.995ZM337.242 106.909C337.242 107.112 337.289 107.288 337.384 107.436C337.481 107.585 337.663 107.723 337.927 107.85C338.196 107.977 338.584 108.107 339.092 108.241C339.411 108.064 339.639 107.871 339.777 107.665C339.918 107.454 339.989 107.215 339.989 106.947C339.989 106.628 339.873 106.383 339.641 106.212C339.409 106.042 339.072 105.957 338.629 105.957C338.151 105.957 337.799 106.046 337.574 106.223C337.353 106.401 337.242 106.629 337.242 106.909ZM337.003 110.684C337.003 111.035 337.132 111.306 337.389 111.494C337.65 111.683 338.047 111.777 338.58 111.777C339.099 111.777 339.48 111.69 339.723 111.516C339.969 111.342 340.092 111.099 340.092 110.787C340.092 110.577 340.04 110.395 339.935 110.243C339.829 110.091 339.643 109.955 339.374 109.835C339.11 109.715 338.736 109.596 338.254 109.476C338.141 109.447 338.034 109.418 337.933 109.389C337.614 109.538 337.378 109.728 337.226 109.96C337.077 110.189 337.003 110.43 337.003 110.684Z" fill="white"/>
<path d="M10.9626 435.347V434.221L18.828 425.164C20.2749 423.489 21.2812 422.08 21.8469 420.938C22.4127 419.795 22.6955 418.675 22.6955 417.576C22.6955 415.89 22.206 414.65 21.2268 413.855C20.2586 413.061 18.7737 412.664 16.7719 412.664C14.5635 412.664 12.5291 413.001 10.6689 413.676V411.881C11.4848 411.576 12.4204 411.337 13.4756 411.163C14.5417 410.989 15.6677 410.902 16.8535 410.902C19.4318 410.902 21.39 411.435 22.7281 412.501C24.0771 413.556 24.7516 415.188 24.7516 417.397C24.7516 418.343 24.6156 419.246 24.3437 420.105C24.0717 420.965 23.6148 421.879 22.9729 422.847C22.3419 423.804 21.4771 424.908 20.3783 426.159L13.8836 433.601H26.3835V435.347H10.9626ZM28.1917 429.374V428.232L39.0924 411.196H41.2301L30.7048 427.644H41.8829L42.1766 419.355H43.8248V427.644H47.6433V429.374H43.8248V435.347H41.8829V429.374H28.1917ZM61.5338 435.64C58.4115 435.64 56.0508 435.091 54.4516 433.992C52.8524 432.883 52.0528 431.294 52.0528 429.227C52.0528 427.683 52.4825 426.377 53.3419 425.311C54.2014 424.234 55.4035 423.407 56.9483 422.831C55.534 422.2 54.5169 421.416 53.8968 420.481C53.2767 419.534 52.9666 418.43 52.9666 417.168C52.9666 415.232 53.6955 413.703 55.1533 412.583C56.6219 411.462 58.6998 410.902 61.3869 410.902C64.0414 410.902 66.1029 411.44 67.5716 412.517C69.0402 413.594 69.7746 415.085 69.7746 416.989C69.7746 419.882 68.2733 421.949 65.2707 423.19C67.2071 423.788 68.5942 424.571 69.4319 425.539C70.2804 426.508 70.7047 427.688 70.7047 429.08C70.7047 431.071 69.9269 432.665 68.3712 433.862C66.8264 435.048 64.5472 435.64 61.5338 435.64ZM62.2844 422.488C62.6108 422.553 62.9263 422.613 63.2309 422.667C64.8627 422.047 66.0431 421.297 66.772 420.415C67.5117 419.534 67.8816 418.446 67.8816 417.152C67.8816 415.64 67.3105 414.492 66.1682 413.709C65.0259 412.914 63.4158 412.517 61.338 412.517C59.2166 412.517 57.6282 412.931 56.573 413.758C55.5177 414.573 54.9901 415.689 54.9901 417.103C54.9901 418.06 55.2131 418.887 55.6592 419.583C56.1161 420.269 56.8722 420.845 57.9274 421.313C58.9935 421.781 60.4459 422.172 62.2844 422.488ZM54.06 429.015C54.06 430.658 54.6964 431.904 55.9692 432.752C57.2529 433.601 59.1187 434.025 61.5664 434.025C63.9054 434.025 65.6786 433.612 66.8862 432.785C68.0938 431.958 68.6975 430.767 68.6975 429.211C68.6975 427.829 68.159 426.752 67.082 425.98C66.0159 425.208 64.1719 424.587 61.5501 424.12C60.5057 423.935 59.5647 423.717 58.727 423.467C57.1604 423.978 55.991 424.723 55.2186 425.703C54.4462 426.682 54.06 427.786 54.06 429.015Z" fill="white"/>
<path d="M227.465 210.65C198.438 243.709 149.907 281.14 109.711 292.596H584.945V194.912C569.266 231.677 486.987 284.559 426.223 210.65C389.829 166.384 359.702 147.479 328.699 147.479C279.827 147.479 248.539 186.649 227.465 210.65Z" fill="url(#paint5_linear_2518_22747)"/>
<g filter="url(#filter6_d_2518_22747)">
<circle cx="584.942" cy="194.874" r="5.30905" fill="#39D7E1"/>
<circle cx="584.942" cy="194.874" r="4.22115" stroke="#040815" stroke-width="2.17579"/>
</g>
<g filter="url(#filter7_d_2518_22747)">
<circle cx="330.297" cy="147.478" r="5.30905" fill="#39D7E1"/>
<circle cx="330.297" cy="147.478" r="4.22115" stroke="#040815" stroke-width="2.17579"/>
</g>
<g filter="url(#filter8_d_2518_22747)">
<circle cx="452.45" cy="234.517" r="5.30905" fill="#39D7E1"/>
<circle cx="452.45" cy="234.517" r="4.22115" stroke="#040815" stroke-width="2.17579"/>
</g>
<g filter="url(#filter9_d_2518_22747)">
<circle cx="109.707" cy="292.596" r="5.30905" fill="#39D7E1"/>
<circle cx="109.707" cy="292.596" r="4.22115" stroke="#040815" stroke-width="2.17579"/>
</g>
<g filter="url(#filter10_d_2518_22747)">
<path d="M484.936 189.737H419.957V213.487H448.16L452.446 220.911L456.733 213.487H484.936V189.737Z" fill="url(#paint6_linear_2518_22747)"/>
</g>
<path d="M442.21 204.445V203.499L444.435 200.724C444.779 200.293 445.02 199.929 445.158 199.631C445.3 199.334 445.37 199.053 445.37 198.788C445.37 198.422 445.254 198.152 445.022 197.978C444.794 197.8 444.418 197.711 443.896 197.711C443.577 197.711 443.262 197.74 442.95 197.798C442.638 197.856 442.359 197.932 442.112 198.027V196.59C442.355 196.503 442.66 196.433 443.026 196.378C443.396 196.32 443.749 196.291 444.087 196.291C445.08 196.291 445.833 196.478 446.344 196.852C446.855 197.221 447.111 197.811 447.111 198.619C447.111 199.026 447.028 199.435 446.861 199.849C446.694 200.258 446.395 200.724 445.963 201.247L444.533 202.987H447.497V204.445H442.21ZM452.129 204.548C451.157 204.548 450.392 204.22 449.833 203.564C449.279 202.908 449.001 201.86 449.001 200.42C449.001 198.98 449.279 197.932 449.833 197.276C450.388 196.619 451.153 196.291 452.129 196.291C453.101 196.291 453.864 196.619 454.419 197.276C454.977 197.932 455.257 198.98 455.257 200.42C455.257 201.86 454.977 202.908 454.419 203.564C453.86 204.22 453.097 204.548 452.129 204.548ZM452.129 203.102C452.423 203.102 452.673 203.022 452.88 202.862C453.086 202.699 453.244 202.423 453.353 202.035C453.465 201.647 453.521 201.111 453.521 200.425C453.521 199.74 453.465 199.201 453.353 198.81C453.244 198.418 453.086 198.143 452.88 197.983C452.673 197.82 452.423 197.738 452.129 197.738C451.839 197.738 451.589 197.82 451.378 197.983C451.172 198.143 451.012 198.416 450.9 198.804C450.791 199.192 450.736 199.729 450.736 200.414C450.736 201.1 450.791 201.638 450.9 202.03C451.008 202.422 451.166 202.699 451.373 202.862C451.583 203.022 451.835 203.102 452.129 203.102ZM460.233 204.548C459.609 204.548 459.062 204.418 458.59 204.157C458.119 203.892 457.751 203.475 457.486 202.906C457.221 202.336 457.089 201.595 457.089 200.681C457.089 199.198 457.426 198.095 458.101 197.374C458.779 196.652 459.74 196.291 460.984 196.291C461.285 196.291 461.573 196.309 461.849 196.346C462.128 196.382 462.387 196.445 462.626 196.536V197.885C462.387 197.802 462.135 197.74 461.87 197.7C461.606 197.657 461.337 197.635 461.065 197.635C460.329 197.635 459.774 197.832 459.401 198.228C459.027 198.619 458.83 199.229 458.808 200.055C459.026 199.914 459.279 199.803 459.569 199.724C459.863 199.644 460.162 199.604 460.467 199.604C460.957 199.604 461.395 199.689 461.783 199.86C462.171 200.03 462.478 200.295 462.703 200.654C462.927 201.009 463.04 201.468 463.04 202.03C463.04 202.82 462.786 203.439 462.278 203.885C461.774 204.327 461.093 204.548 460.233 204.548ZM460.119 200.871C459.898 200.871 459.673 200.904 459.444 200.969C459.216 201.031 459.006 201.131 458.813 201.268C458.835 201.787 458.906 202.193 459.026 202.487C459.149 202.777 459.314 202.982 459.521 203.102C459.727 203.218 459.968 203.276 460.244 203.276C460.592 203.276 460.879 203.179 461.103 202.987C461.328 202.795 461.441 202.492 461.441 202.079C461.441 201.658 461.321 201.352 461.082 201.16C460.842 200.967 460.521 200.871 460.119 200.871Z" fill="white"/>
<rect x="166.836" y="369.723" width="209.148" height="116.457" rx="5.43946" fill="#293567"/>
<rect x="395.734" y="369.723" width="209.148" height="116.457" rx="5.43946" fill="#293567"/>
<path d="M166.836 461.188H375.984V480.741C375.984 483.745 373.549 486.18 370.545 486.18H172.275C169.271 486.18 166.836 483.745 166.836 480.741V461.188Z" fill="#3A467C"/>
<path d="M395.734 461.188H604.883V480.741C604.883 483.745 602.447 486.18 599.443 486.18H401.174C398.17 486.18 395.734 483.745 395.734 480.741V461.188Z" fill="#3A467C"/>
<path d="M341.203 386.996C341.203 388.489 339.993 389.699 338.5 389.699C337.007 389.699 335.797 388.489 335.797 386.996C335.797 385.503 337.007 384.292 338.5 384.292C339.993 384.292 341.203 385.503 341.203 386.996Z" fill="#4E5EA4"/>
<path d="M349.874 386.996C349.874 388.489 348.664 389.699 347.171 389.699C345.678 389.699 344.468 388.489 344.468 386.996C344.468 385.503 345.678 384.292 347.171 384.292C348.664 384.292 349.874 385.503 349.874 386.996Z" fill="#4E5EA4"/>
<path d="M358.545 386.996C358.545 388.489 357.335 389.699 355.842 389.699C354.349 389.699 353.139 388.489 353.139 386.996C353.139 385.503 354.349 384.292 355.842 384.292C357.335 384.292 358.545 385.503 358.545 386.996Z" fill="#4E5EA4"/>
<path d="M570.102 386.996C570.102 388.489 568.892 389.699 567.399 389.699C565.906 389.699 564.695 388.489 564.695 386.996C564.695 385.503 565.906 384.292 567.399 384.292C568.892 384.292 570.102 385.503 570.102 386.996Z" fill="#4E5EA4"/>
<path d="M578.773 386.996C578.773 388.489 577.563 389.699 576.07 389.699C574.577 389.699 573.366 388.489 573.366 386.996C573.366 385.503 574.577 384.292 576.07 384.292C577.563 384.292 578.773 385.503 578.773 386.996Z" fill="#4E5EA4"/>
<path d="M587.444 386.996C587.444 388.489 586.233 389.699 584.74 389.699C583.248 389.699 582.037 388.489 582.037 386.996C582.037 385.503 583.248 384.292 584.74 384.292C586.233 384.292 587.444 385.503 587.444 386.996Z" fill="#4E5EA4"/>
<path d="M244.399 435.64C243.322 435.64 242.223 435.553 241.103 435.379C239.982 435.205 238.933 434.955 237.953 434.629V432.915C240.14 433.611 242.283 433.96 244.383 433.96C246.95 433.96 248.822 433.497 249.996 432.573C251.171 431.637 251.759 430.315 251.759 428.607C251.759 427.062 251.226 425.877 250.16 425.05C249.104 424.212 247.467 423.793 245.248 423.793H241.69V422.096H243.355C245.803 422.096 247.668 421.688 248.952 420.872C250.236 420.056 250.878 418.805 250.878 417.119C250.878 415.694 250.355 414.584 249.311 413.79C248.267 412.985 246.76 412.583 244.791 412.583C243.823 412.583 242.827 412.659 241.805 412.811C240.793 412.952 239.781 413.186 238.769 413.513V411.799C240.684 411.201 242.735 410.902 244.921 410.902C247.478 410.902 249.447 411.446 250.829 412.534C252.21 413.611 252.901 415.101 252.901 417.005C252.901 418.452 252.482 419.665 251.645 420.644C250.818 421.612 249.703 422.314 248.299 422.749C250.062 423.097 251.411 423.777 252.346 424.789C253.282 425.8 253.75 427.106 253.75 428.705C253.75 430.848 252.999 432.54 251.498 433.78C249.996 435.02 247.63 435.64 244.399 435.64ZM267.948 435.64C266.055 435.64 264.418 435.243 263.036 434.449C261.666 433.655 260.61 432.409 259.871 430.712C259.131 429.004 258.761 426.785 258.761 424.054C258.761 419.67 259.691 416.385 261.551 414.198C263.412 412.001 266.126 410.902 269.694 410.902C270.543 410.902 271.397 410.962 272.256 411.081C273.116 411.19 273.915 411.386 274.655 411.669V413.398C273.915 413.105 273.105 412.898 272.224 412.778C271.342 412.659 270.532 412.599 269.792 412.599C263.831 412.599 260.833 416.216 260.801 423.451C261.671 422.885 262.705 422.439 263.901 422.112C265.109 421.786 266.305 421.623 267.491 421.623C270.102 421.623 272.142 422.21 273.611 423.385C275.079 424.549 275.814 426.306 275.814 428.656C275.814 430.941 275.085 432.676 273.627 433.862C272.18 435.048 270.287 435.64 267.948 435.64ZM267.214 423.271C266.213 423.271 265.12 423.423 263.934 423.728C262.748 424.022 261.704 424.49 260.801 425.131C260.91 428.352 261.584 430.636 262.824 431.985C264.075 433.323 265.783 433.992 267.948 433.992C269.7 433.992 271.119 433.563 272.207 432.703C273.306 431.844 273.855 430.511 273.855 428.705C273.855 426.877 273.279 425.518 272.126 424.625C270.983 423.723 269.346 423.271 267.214 423.271ZM290.124 435.64C287.001 435.64 284.641 435.091 283.041 433.992C281.442 432.883 280.643 431.294 280.643 429.227C280.643 427.682 281.072 426.377 281.932 425.311C282.791 424.234 283.993 423.407 285.538 422.83C284.124 422.199 283.107 421.416 282.487 420.481C281.867 419.534 281.556 418.43 281.556 417.168C281.556 415.232 282.285 413.703 283.743 412.583C285.212 411.462 287.29 410.902 289.977 410.902C292.631 410.902 294.693 411.44 296.161 412.517C297.63 413.594 298.364 415.085 298.364 416.988C298.364 419.882 296.863 421.949 293.861 423.189C295.797 423.788 297.184 424.571 298.022 425.539C298.87 426.508 299.295 427.688 299.295 429.08C299.295 431.071 298.517 432.665 296.961 433.862C295.416 435.048 293.137 435.64 290.124 435.64ZM290.874 422.488C291.201 422.553 291.516 422.613 291.821 422.667C293.453 422.047 294.633 421.297 295.362 420.415C296.102 419.534 296.471 418.446 296.471 417.152C296.471 415.64 295.9 414.492 294.758 413.708C293.616 412.914 292.006 412.517 289.928 412.517C287.806 412.517 286.218 412.931 285.163 413.757C284.108 414.573 283.58 415.688 283.58 417.103C283.58 418.06 283.803 418.887 284.249 419.583C284.706 420.268 285.462 420.845 286.517 421.313C287.583 421.781 289.036 422.172 290.874 422.488ZM282.65 429.015C282.65 430.658 283.286 431.903 284.559 432.752C285.843 433.601 287.709 434.025 290.156 434.025C292.495 434.025 294.268 433.611 295.476 432.785C296.684 431.958 297.287 430.767 297.287 429.211C297.287 427.829 296.749 426.752 295.672 425.98C294.606 425.208 292.762 424.587 290.14 424.12C289.096 423.935 288.155 423.717 287.317 423.467C285.75 423.978 284.581 424.723 283.808 425.703C283.036 426.682 282.65 427.786 282.65 429.015Z" fill="white"/>
<path d="M468.13 435.347V434.221L475.996 425.164C477.443 423.489 478.449 422.08 479.015 420.938C479.58 419.795 479.863 418.675 479.863 417.576C479.863 415.89 479.374 414.65 478.394 413.855C477.426 413.061 475.941 412.664 473.94 412.664C471.731 412.664 469.697 413.001 467.836 413.676V411.881C468.652 411.576 469.588 411.337 470.643 411.163C471.709 410.989 472.835 410.902 474.021 410.902C476.599 410.902 478.558 411.435 479.896 412.501C481.245 413.556 481.919 415.188 481.919 417.396C481.919 418.343 481.783 419.246 481.511 420.105C481.239 420.965 480.782 421.879 480.141 422.847C479.51 423.804 478.645 424.908 477.546 426.159L471.051 433.601H483.551V435.347H468.13ZM497.046 435.64C495.229 435.64 493.641 435.232 492.281 434.417C490.921 433.601 489.866 432.29 489.115 430.484C488.365 428.667 487.989 426.263 487.989 423.271C487.989 420.279 488.359 417.881 489.099 416.075C489.839 414.258 490.883 412.942 492.232 412.126C493.592 411.31 495.197 410.902 497.046 410.902C498.896 410.902 500.495 411.31 501.844 412.126C503.204 412.942 504.253 414.258 504.993 416.075C505.733 417.881 506.103 420.279 506.103 423.271C506.103 426.263 505.728 428.667 504.977 430.484C504.226 432.29 503.171 433.601 501.811 434.417C500.451 435.232 498.863 435.64 497.046 435.64ZM497.046 433.845C498.45 433.845 499.673 433.53 500.718 432.899C501.762 432.268 502.573 431.191 503.149 429.668C503.737 428.134 504.03 426.018 504.03 423.32C504.03 420.589 503.737 418.452 503.149 416.907C502.573 415.362 501.762 414.274 500.718 413.643C499.673 413.012 498.45 412.697 497.046 412.697C495.654 412.697 494.43 413.012 493.374 413.643C492.33 414.274 491.52 415.357 490.943 416.891C490.366 418.414 490.078 420.524 490.078 423.222C490.078 425.953 490.366 428.09 490.943 429.635C491.52 431.18 492.33 432.268 493.374 432.899C494.419 433.53 495.643 433.845 497.046 433.845ZM521.126 435.64C519.233 435.64 517.596 435.243 516.214 434.449C514.843 433.655 513.788 432.409 513.048 430.712C512.309 429.004 511.939 426.785 511.939 424.054C511.939 419.67 512.869 416.385 514.729 414.198C516.589 412.001 519.304 410.902 522.872 410.902C523.721 410.902 524.575 410.962 525.434 411.081C526.293 411.19 527.093 411.386 527.833 411.669V413.398C527.093 413.105 526.283 412.898 525.401 412.778C524.52 412.659 523.71 412.599 522.97 412.599C517.008 412.599 514.011 416.216 513.978 423.451C514.849 422.885 515.882 422.439 517.079 422.112C518.287 421.786 519.483 421.623 520.669 421.623C523.28 421.623 525.32 422.21 526.788 423.385C528.257 424.549 528.991 426.306 528.991 428.656C528.991 430.941 528.263 432.676 526.805 433.862C525.358 435.048 523.465 435.64 521.126 435.64ZM520.392 423.271C519.391 423.271 518.297 423.423 517.112 423.728C515.926 424.022 514.881 424.49 513.978 425.131C514.087 428.352 514.762 430.636 516.002 431.985C517.253 433.323 518.961 433.992 521.126 433.992C522.877 433.992 524.297 433.563 525.385 432.703C526.484 431.844 527.033 430.511 527.033 428.705C527.033 426.877 526.457 425.518 525.303 424.625C524.161 423.723 522.524 423.271 520.392 423.271Z" fill="white"/>
<defs>
<filter id="filter0_dddddd_2518_22747" x="-241.848" y="0.193184" width="1030.71" height="790.48" filterUnits="userSpaceOnUse" color-interpolation-filters="sRGB">
<feFlood flood-opacity="0" result="BackgroundImageFix"/>
<feColorMatrix in="SourceAlpha" type="matrix" values="0 0 0 0 0 0 0 0 0 0 0 0 0 0 0 0 0 0 127 0" result="hardAlpha"/>
<feOffset dy="3.31611"/>
<feGaussianBlur stdDeviation="1.95613"/>
<feColorMatrix type="matrix" values="0 0 0 0 0.313726 0 0 0 0 0.101961 0 0 0 0 0.984314 0 0 0 0.0449833 0"/>
<feBlend mode="normal" in2="BackgroundImageFix" result="effect1_dropShadow_2518_22747"/>
<feColorMatrix in="SourceAlpha" type="matrix" values="0 0 0 0 0 0 0 0 0 0 0 0 0 0 0 0 0 0 127 0" result="hardAlpha"/>
<feOffset dy="7.96906"/>
<feGaussianBlur stdDeviation="4.70085"/>
<feColorMatrix type="matrix" values="0 0 0 0 0.313726 0 0 0 0 0.101961 0 0 0 0 0.984314 0 0 0 0.0646228 0"/>
<feBlend mode="normal" in2="effect1_dropShadow_2518_22747" result="effect2_dropShadow_2518_22747"/>
<feColorMatrix in="SourceAlpha" type="matrix" values="0 0 0 0 0 0 0 0 0 0 0 0 0 0 0 0 0 0 127 0" result="hardAlpha"/>
<feOffset dy="15.005"/>
<feGaussianBlur stdDeviation="8.85129"/>
<feColorMatrix type="matrix" values="0 0 0 0 0.313726 0 0 0 0 0.101961 0 0 0 0 0.984314 0 0 0 0.08 0"/>
<feBlend mode="normal" in2="effect2_dropShadow_2518_22747" result="effect3_dropShadow_2518_22747"/>
<feColorMatrix in="SourceAlpha" type="matrix" values="0 0 0 0 0 0 0 0 0 0 0 0 0 0 0 0 0 0 127 0" result="hardAlpha"/>
<feOffset dy="26.7664"/>
<feGaussianBlur stdDeviation="15.7892"/>
<feColorMatrix type="matrix" values="0 0 0 0 0.313726 0 0 0 0 0.101961 0 0 0 0 0.984314 0 0 0 0.0953772 0"/>
<feBlend mode="normal" in2="effect3_dropShadow_2518_22747" result="effect4_dropShadow_2518_22747"/>
<feColorMatrix in="SourceAlpha" type="matrix" values="0 0 0 0 0 0 0 0 0 0 0 0 0 0 0 0 0 0 127 0" result="hardAlpha"/>
<feOffset dy="50.0636"/>
<feGaussianBlur stdDeviation="29.5319"/>
<feColorMatrix type="matrix" values="0 0 0 0 0.313726 0 0 0 0 0.101961 0 0 0 0 0.984314 0 0 0 0.115017 0"/>
<feBlend mode="normal" in2="effect4_dropShadow_2518_22747" result="effect5_dropShadow_2518_22747"/>
<feColorMatrix in="SourceAlpha" type="matrix" values="0 0 0 0 0 0 0 0 0 0 0 0 0 0 0 0 0 0 127 0" result="hardAlpha"/>
<feOffset dy="119.834"/>
<feGaussianBlur stdDeviation="70.6884"/>
<feColorMatrix type="matrix" values="0 0 0 0 0.313726 0 0 0 0 0.101961 0 0 0 0 0.984314 0 0 0 0.16 0"/>
<feBlend mode="normal" in2="effect5_dropShadow_2518_22747" result="effect6_dropShadow_2518_22747"/>
<feBlend mode="normal" in="SourceGraphic" in2="effect6_dropShadow_2518_22747" result="shape"/>
</filter>
<filter id="filter1_d_2518_22747" x="8.77342" y="283.97" width="32.375" height="32.376" filterUnits="userSpaceOnUse" color-interpolation-filters="sRGB">
<feFlood flood-opacity="0" result="BackgroundImageFix"/>
<feColorMatrix in="SourceAlpha" type="matrix" values="0 0 0 0 0 0 0 0 0 0 0 0 0 0 0 0 0 0 127 0" result="hardAlpha"/>
<feOffset dy="7.61525"/>
<feGaussianBlur stdDeviation="5.43946"/>
<feColorMatrix type="matrix" values="0 0 0 0 0 0 0 0 0 0 0 0 0 0 0 0 0 0 0.49 0"/>
<feBlend mode="normal" in2="BackgroundImageFix" result="effect1_dropShadow_2518_22747"/>
<feBlend mode="normal" in="SourceGraphic" in2="effect1_dropShadow_2518_22747" result="shape"/>
</filter>
<filter id="filter2_d_2518_22747" x="139.383" y="206.129" width="32.375" height="32.376" filterUnits="userSpaceOnUse" color-interpolation-filters="sRGB">
<feFlood flood-opacity="0" result="BackgroundImageFix"/>
<feColorMatrix in="SourceAlpha" type="matrix" values="0 0 0 0 0 0 0 0 0 0 0 0 0 0 0 0 0 0 127 0" result="hardAlpha"/>
<feOffset dy="7.61525"/>
<feGaussianBlur stdDeviation="5.43946"/>
<feColorMatrix type="matrix" values="0 0 0 0 0 0 0 0 0 0 0 0 0 0 0 0 0 0 0.49 0"/>
<feBlend mode="normal" in2="BackgroundImageFix" result="effect1_dropShadow_2518_22747"/>
<feBlend mode="normal" in="SourceGraphic" in2="effect1_dropShadow_2518_22747" result="shape"/>
</filter>
<filter id="filter3_d_2518_22747" x="513.543" y="147.79" width="32.375" height="32.376" filterUnits="userSpaceOnUse" color-interpolation-filters="sRGB">
<feFlood flood-opacity="0" result="BackgroundImageFix"/>
<feColorMatrix in="SourceAlpha" type="matrix" values="0 0 0 0 0 0 0 0 0 0 0 0 0 0 0 0 0 0 127 0" result="hardAlpha"/>
<feOffset dy="7.61525"/>
<feGaussianBlur stdDeviation="5.43946"/>
<feColorMatrix type="matrix" values="0 0 0 0 0 0 0 0 0 0 0 0 0 0 0 0 0 0 0.49 0"/>
<feBlend mode="normal" in2="BackgroundImageFix" result="effect1_dropShadow_2518_22747"/>
<feBlend mode="normal" in="SourceGraphic" in2="effect1_dropShadow_2518_22747" result="shape"/>
</filter>
<filter id="filter4_d_2518_22747" x="79.5663" y="157.287" width="152.01" height="118.206" filterUnits="userSpaceOnUse" color-interpolation-filters="sRGB">
<feFlood flood-opacity="0" result="BackgroundImageFix"/>
<feColorMatrix in="SourceAlpha" type="matrix" values="0 0 0 0 0 0 0 0 0 0 0 0 0 0 0 0 0 0 127 0" result="hardAlpha"/>
<feOffset dy="32.6368"/>
<feGaussianBlur stdDeviation="21.7579"/>
<feColorMatrix type="matrix" values="0 0 0 0 0 0 0 0 0 0 0 0 0 0 0 0 0 0 0.25 0"/>
<feBlend mode="normal" in2="BackgroundImageFix" result="effect1_dropShadow_2518_22747"/>
<feBlend mode="normal" in="SourceGraphic" in2="effect1_dropShadow_2518_22747" result="shape"/>
</filter>
<filter id="filter5_d_2518_22747" x="255.309" y="87.3047" width="152.01" height="118.206" filterUnits="userSpaceOnUse" color-interpolation-filters="sRGB">
<feFlood flood-opacity="0" result="BackgroundImageFix"/>
<feColorMatrix in="SourceAlpha" type="matrix" values="0 0 0 0 0 0 0 0 0 0 0 0 0 0 0 0 0 0 127 0" result="hardAlpha"/>
<feOffset dy="32.6368"/>
<feGaussianBlur stdDeviation="21.7579"/>
<feColorMatrix type="matrix" values="0 0 0 0 0 0 0 0 0 0 0 0 0 0 0 0 0 0 0.25 0"/>
<feBlend mode="normal" in2="BackgroundImageFix" result="effect1_dropShadow_2518_22747"/>
<feBlend mode="normal" in="SourceGraphic" in2="effect1_dropShadow_2518_22747" result="shape"/>
</filter>
<filter id="filter6_d_2518_22747" x="568.754" y="186.302" width="32.375" height="32.376" filterUnits="userSpaceOnUse" color-interpolation-filters="sRGB">
<feFlood flood-opacity="0" result="BackgroundImageFix"/>
<feColorMatrix in="SourceAlpha" type="matrix" values="0 0 0 0 0 0 0 0 0 0 0 0 0 0 0 0 0 0 127 0" result="hardAlpha"/>
<feOffset dy="7.61525"/>
<feGaussianBlur stdDeviation="5.43946"/>
<feColorMatrix type="matrix" values="0 0 0 0 0 0 0 0 0 0 0 0 0 0 0 0 0 0 0.49 0"/>
<feBlend mode="normal" in2="BackgroundImageFix" result="effect1_dropShadow_2518_22747"/>
<feBlend mode="normal" in="SourceGraphic" in2="effect1_dropShadow_2518_22747" result="shape"/>
</filter>
<filter id="filter7_d_2518_22747" x="314.109" y="138.906" width="32.375" height="32.376" filterUnits="userSpaceOnUse" color-interpolation-filters="sRGB">
<feFlood flood-opacity="0" result="BackgroundImageFix"/>
<feColorMatrix in="SourceAlpha" type="matrix" values="0 0 0 0 0 0 0 0 0 0 0 0 0 0 0 0 0 0 127 0" result="hardAlpha"/>
<feOffset dy="7.61525"/>
<feGaussianBlur stdDeviation="5.43946"/>
<feColorMatrix type="matrix" values="0 0 0 0 0 0 0 0 0 0 0 0 0 0 0 0 0 0 0.49 0"/>
<feBlend mode="normal" in2="BackgroundImageFix" result="effect1_dropShadow_2518_22747"/>
<feBlend mode="normal" in="SourceGraphic" in2="effect1_dropShadow_2518_22747" result="shape"/>
</filter>
<filter id="filter8_d_2518_22747" x="436.262" y="225.945" width="32.375" height="32.376" filterUnits="userSpaceOnUse" color-interpolation-filters="sRGB">
<feFlood flood-opacity="0" result="BackgroundImageFix"/>
<feColorMatrix in="SourceAlpha" type="matrix" values="0 0 0 0 0 0 0 0 0 0 0 0 0 0 0 0 0 0 127 0" result="hardAlpha"/>
<feOffset dy="7.61525"/>
<feGaussianBlur stdDeviation="5.43946"/>
<feColorMatrix type="matrix" values="0 0 0 0 0 0 0 0 0 0 0 0 0 0 0 0 0 0 0.49 0"/>
<feBlend mode="normal" in2="BackgroundImageFix" result="effect1_dropShadow_2518_22747"/>
<feBlend mode="normal" in="SourceGraphic" in2="effect1_dropShadow_2518_22747" result="shape"/>
</filter>
<filter id="filter9_d_2518_22747" x="93.5195" y="284.023" width="32.375" height="32.376" filterUnits="userSpaceOnUse" color-interpolation-filters="sRGB">
<feFlood flood-opacity="0" result="BackgroundImageFix"/>
<feColorMatrix in="SourceAlpha" type="matrix" values="0 0 0 0 0 0 0 0 0 0 0 0 0 0 0 0 0 0 127 0" result="hardAlpha"/>
<feOffset dy="7.61525"/>
<feGaussianBlur stdDeviation="5.43946"/>
<feColorMatrix type="matrix" values="0 0 0 0 0 0 0 0 0 0 0 0 0 0 0 0 0 0 0.49 0"/>
<feBlend mode="normal" in2="BackgroundImageFix" result="effect1_dropShadow_2518_22747"/>
<feBlend mode="normal" in="SourceGraphic" in2="effect1_dropShadow_2518_22747" result="shape"/>
</filter>
<filter id="filter10_d_2518_22747" x="376.441" y="178.858" width="152.01" height="118.206" filterUnits="userSpaceOnUse" color-interpolation-filters="sRGB">
<feFlood flood-opacity="0" result="BackgroundImageFix"/>
<feColorMatrix in="SourceAlpha" type="matrix" values="0 0 0 0 0 0 0 0 0 0 0 0 0 0 0 0 0 0 127 0" result="hardAlpha"/>
<feOffset dy="32.6368"/>
<feGaussianBlur stdDeviation="21.7579"/>
<feColorMatrix type="matrix" values="0 0 0 0 0 0 0 0 0 0 0 0 0 0 0 0 0 0 0.25 0"/>
<feBlend mode="normal" in2="BackgroundImageFix" result="effect1_dropShadow_2518_22747"/>
<feBlend mode="normal" in="SourceGraphic" in2="effect1_dropShadow_2518_22747" result="shape"/>
</filter>
<linearGradient id="paint0_linear_2518_22747" x1="-300.119" y1="216.747" x2="360.064" y2="424.277" gradientUnits="userSpaceOnUse">
<stop stop-color="#AD00FF"/>
<stop offset="1" stop-color="#3901E1"/>
</linearGradient>
<linearGradient id="paint1_linear_2518_22747" x1="217.529" y1="388.037" x2="-9.16149" y2="233.97" gradientUnits="userSpaceOnUse">
<stop stop-color="#5C29F1"/>
<stop offset="0.473958" stop-color="#E37AC2"/>
<stop offset="0.807292" stop-color="#FF9067"/>
</linearGradient>
<linearGradient id="paint2_linear_2518_22747" x1="277.363" y1="335.818" x2="263.22" y2="237.908" gradientUnits="userSpaceOnUse">
<stop stop-color="#040815"/>
<stop offset="1" stop-color="#040815" stop-opacity="0"/>
</linearGradient>
<linearGradient id="paint3_linear_2518_22747" x1="172.68" y1="199.421" x2="158.005" y2="164.061" gradientUnits="userSpaceOnUse">
<stop stop-color="#5A34CB"/>
<stop offset="1" stop-color="#B634CB"/>
</linearGradient>
<linearGradient id="paint4_linear_2518_22747" x1="344.766" y1="149.747" x2="299.826" y2="72.8787" gradientUnits="userSpaceOnUse">
<stop offset="0.0260417" stop-color="#4512C7"/>
<stop offset="0.53125" stop-color="#38AAEA"/>
<stop offset="1" stop-color="#4EDB60"/>
</linearGradient>
<linearGradient id="paint5_linear_2518_22747" x1="347.328" y1="181.845" x2="347.328" y2="292.768" gradientUnits="userSpaceOnUse">
<stop stop-color="#59C3FF" stop-opacity="0.7"/>
<stop offset="1" stop-color="#59C3FF" stop-opacity="0"/>
</linearGradient>
<linearGradient id="paint6_linear_2518_22747" x1="465.899" y1="241.3" x2="420.959" y2="164.432" gradientUnits="userSpaceOnUse">
<stop offset="0.0260417" stop-color="#4512C7"/>
<stop offset="0.53125" stop-color="#38AAEA"/>
<stop offset="1" stop-color="#4EDB60"/>
</linearGradient>
</defs>
</svg>
