<svg width="1079" height="836" fill="none" xmlns="http://www.w3.org/2000/svg"><path d="M.04 15c0-8.284 6.715-15 15-15h891.999c8.284 0 15 6.716 15 15v647c0 8.284-6.716 15-15 15h-892c-8.284 0-15-6.716-15-15V15Z" fill="#16123E"/><path d="M.04 15c0-8.284 6.715-15 15-15h891.999c8.284 0 15 6.716 15 15v647c0 8.284-6.716 15-15 15h-892c-8.284 0-15-6.716-15-15V15Z" fill="url(#a)"/><path d="M.04 15c0-8.284 6.715-15 15-15h891.999c8.284 0 15 6.716 15 15v647c0 8.284-6.716 15-15 15h-892c-8.284 0-15-6.716-15-15V15Z" fill="url(#b)"/><circle opacity=".2" cx="890.539" cy="453.5" r="380.228" stroke="#7F4EFF" stroke-width="4.545"/><defs><radialGradient id="a" cx="0" cy="0" r="1" gradientUnits="userSpaceOnUse" gradientTransform="matrix(-466.26186 82.6929 -159.35696 -898.5302 1111.41 161.914)"><stop stop-color="#5A34CB"/><stop offset="1" stop-color="#4334CB" stop-opacity="0"/></radialGradient><radialGradient id="b" cx="0" cy="0" r="1" gradientUnits="userSpaceOnUse" gradientTransform="matrix(371.05046 -429.31439 697.8465 603.13903 59.482 889.079)"><stop stop-color="#9B34CB"/><stop offset="1" stop-color="#9B34CB" stop-opacity="0"/></radialGradient></defs></svg>