<svg width="1079" height="836" viewBox="0 0 1079 836" fill="none" xmlns="http://www.w3.org/2000/svg">
  <path d="M0.0390625 15C0.0390625 6.71574 6.75479 0 15.0391 0H907.039C915.323 0 922.039 6.71573 922.039 15V662C922.039 670.284 915.323 677 907.039 677H15.0391C6.75478 677 0.0390625 670.284 0.0390625 662L0.0390625 15Z" fill="#16123E"/>
  <path d="M0.0390625 15C0.0390625 6.71574 6.75479 0 15.0391 0H907.039C915.323 0 922.039 6.71573 922.039 15V662C922.039 670.284 915.323 677 907.039 677H15.0391C6.75478 677 0.0390625 670.284 0.0390625 662L0.0390625 15Z" fill="url(#paint0_radial)"/>
  <path d="M0.0390625 15C0.0390625 6.71574 6.75479 0 15.0391 0H907.039C915.323 0 922.039 6.71573 922.039 15V662C922.039 670.284 915.323 677 907.039 677H15.0391C6.75478 677 0.0390625 670.284 0.0390625 662L0.0390625 15Z" fill="url(#paint1_radial)"/>
  <circle opacity="0.2" cx="890.539" cy="453.5" r="380.228" stroke="#7F4EFF" stroke-width="4.54455"/>
  <defs>
  <radialGradient id="paint0_radial" cx="0" cy="0" r="1" gradientUnits="userSpaceOnUse" gradientTransform="translate(1111.41 161.914) rotate(169.943) scale(473.538 912.552)">
  <stop stop-color="#5A34CB"/>
  <stop offset="1" stop-color="#4334CB" stop-opacity="0"/>
  </radialGradient>
  <radialGradient id="paint1_radial" cx="0" cy="0" r="1" gradientUnits="userSpaceOnUse" gradientTransform="translate(59.482 889.079) rotate(-49.1636) scale(567.441 922.37)">
  <stop stop-color="#9B34CB"/>
  <stop offset="1" stop-color="#9B34CB" stop-opacity="0"/>
  </radialGradient>
  </defs>
</svg>
