<svg width="401" height="446" viewBox="0 0 401 446" fill="none" xmlns="http://www.w3.org/2000/svg">
<circle opacity="0.4" cx="195.711" cy="196" r="3" fill="#612DD3"></circle>
<circle opacity="0.4" cx="154.711" cy="205" r="3" fill="#612DD3"></circle>
<circle opacity="0.4" cx="232.583" cy="103.872" r="2.87207" fill="#612DD3"></circle>
<circle opacity="0.4" cx="183.542" cy="87.9722" r="2.87207" fill="#612DD3"></circle>
<circle opacity="0.4" cx="140.462" cy="87.9722" r="2.87207" fill="#612DD3"></circle>
<circle opacity="0.4" cx="226.624" cy="201.898" r="2.87207" fill="#612DD3"></circle>
<circle opacity="0.4" cx="209.392" cy="188.495" r="2.87207" fill="#612DD3"></circle>
<circle opacity="0.4" cx="191.202" cy="235.405" r="2.87207" fill="#612DD3"></circle>
<g style="mix-blend-mode:screen" opacity="0.4">
<circle cx="119.399" cy="91.8016" r="0.957356" fill="#612DD3"></circle>
</g>
<g style="mix-blend-mode:screen" opacity="0.4">
<circle cx="67.7035" cy="97.5457" r="0.957356" fill="#612DD3"></circle>
</g>
<g style="mix-blend-mode:screen" opacity="0.4">
<circle cx="182.584" cy="201.898" r="0.957356" fill="#612DD3"></circle>
</g>
<g style="mix-blend-mode:screen" opacity="0.4">
<circle cx="269.705" cy="92.7591" r="0.957356" fill="#612DD3"></circle>
</g>
<g style="mix-blend-mode:screen" opacity="0.4">
<circle cx="337.676" cy="62.1236" r="0.957356" fill="#612DD3"></circle>
</g>
<g style="mix-blend-mode:screen" opacity="0.4">
<circle cx="305.127" cy="71.6971" r="0.957356" fill="#612DD3"></circle>
</g>
<g style="mix-blend-mode:screen" opacity="0.4">
<circle cx="189.583" cy="214.872" r="2.87207" fill="#612DD3"></circle>
</g>
<g style="mix-blend-mode:screen" opacity="0.4">
<circle cx="221.711" cy="183" r="3" fill="#612DD3"></circle>
</g>
<path d="M63.3629 44.1548L75.2874 49.8201C75.3932 49.8703 75.5083 49.8961 75.6229 49.8961C75.7375 49.8961 75.8526 49.8703 75.9584 49.8201L87.8843 44.1548C88.1572 44.0254 88.3312 43.7502 88.3312 43.4483C88.3312 43.1463 88.1572 42.8711 87.8843 42.7418L75.9589 37.0759C75.7467 36.9747 75.4996 36.9747 75.2874 37.0759L63.3629 42.7418C63.09 42.8711 62.916 43.1463 62.916 43.4483C62.916 43.7502 63.09 44.0254 63.3629 44.1548ZM75.6229 38.6487L85.7247 43.4483L75.6229 48.2474L65.522 43.4483L75.6229 38.6487Z" fill="url(#paint0_linear)"></path>
<path d="M88.2558 47.8893C88.0699 47.499 87.6027 47.3328 87.2129 47.5183L75.623 53.0239L64.0346 47.5183C63.6434 47.3328 63.178 47.499 62.9916 47.8893C62.8066 48.2805 62.9728 48.7463 63.3631 48.9322L75.2875 54.5976C75.3934 54.6477 75.5084 54.673 75.623 54.673C75.7376 54.673 75.8527 54.6477 75.9586 54.5976L87.8844 48.9318C88.2747 48.7467 88.4409 48.28 88.2558 47.8893Z" fill="url(#paint1_linear)"></path>
<path d="M88.2558 52.6664C88.0699 52.2751 87.6027 52.1108 87.2129 52.2954L75.623 57.801L64.0346 52.2954C63.6434 52.1108 63.178 52.2751 62.9916 52.6664C62.8066 53.0571 62.9728 53.5229 63.3631 53.7093L75.2875 59.3747C75.3934 59.4248 75.5084 59.4501 75.623 59.4501C75.7376 59.4501 75.8527 59.4248 75.9586 59.3747L87.8844 53.7088C88.2747 53.5238 88.4409 53.0567 88.2558 52.6664Z" fill="url(#paint2_linear)"></path>
<path d="M41.3404 13.1091C40.4864 13.1091 39.6956 12.9885 38.968 12.7473V11.2308C39.328 11.3495 39.7205 11.4433 40.1456 11.5123C40.5707 11.5774 40.967 11.6099 41.3346 11.6099C41.9052 11.6099 42.3092 11.5238 42.5466 11.3514C42.7841 11.1753 42.9028 10.9302 42.9028 10.6162C42.9028 10.352 42.8147 10.1452 42.6386 9.99582C42.4662 9.84647 42.1426 9.71052 41.6678 9.58798L41.0244 9.4214C40.2777 9.23376 39.7148 8.94272 39.3357 8.54829C38.9566 8.15003 38.767 7.6254 38.767 6.9744C38.767 6.16639 39.06 5.53454 39.6459 5.07883C40.2356 4.6193 41.1221 4.38954 42.3054 4.38954C42.6883 4.38954 43.0521 4.41251 43.3968 4.45847C43.7453 4.50059 44.0535 4.55995 44.3216 4.63654V6.15299C43.751 5.97684 43.1134 5.88876 42.4088 5.88876C41.7425 5.88876 41.2772 5.98066 41.013 6.16448C40.7526 6.34446 40.6224 6.58188 40.6224 6.87675C40.6224 7.12566 40.6989 7.32288 40.8521 7.4684C41.0053 7.61008 41.2925 7.73646 41.7137 7.84751L42.3513 8.01409C43.1785 8.21705 43.7855 8.51766 44.1722 8.91592C44.5628 9.31418 44.7581 9.83881 44.7581 10.4898C44.7581 11.3055 44.4575 11.9469 43.8563 12.4141C43.2551 12.8775 42.4164 13.1091 41.3404 13.1091ZM48.0779 13V6.04959H45.3954V4.49868H52.6272V6.04959H49.9505V13H48.0779ZM54.0986 13V4.68823C54.4816 4.60399 54.9028 4.53506 55.3624 4.48144C55.8219 4.424 56.2872 4.39528 56.7582 4.39528C57.9759 4.39528 58.8931 4.61739 59.5096 5.0616C60.13 5.50582 60.4402 6.19511 60.4402 7.12949C60.4402 7.73837 60.2908 8.2496 59.9921 8.66318C59.6934 9.07293 59.2722 9.37928 58.7284 9.58224L61.141 13H59.1018L56.9305 9.88093C56.8999 9.88093 56.8673 9.88093 56.8329 9.88093C56.6605 9.88093 56.5035 9.87902 56.3618 9.87519C56.224 9.86753 56.0804 9.85987 55.931 9.85221V13H54.0986ZM56.8673 8.49085C57.4839 8.49085 57.9415 8.38554 58.2402 8.17492C58.5389 7.96048 58.6882 7.612 58.6882 7.12949C58.6882 6.65464 58.5446 6.31 58.2574 6.09555C57.974 5.87727 57.5375 5.76813 56.9477 5.76813C56.7524 5.76813 56.5725 5.7777 56.4078 5.79685C56.2431 5.81217 56.0842 5.83323 55.931 5.86004V8.4449C56.0957 8.46022 56.2489 8.47171 56.3906 8.47936C56.5361 8.48702 56.695 8.49085 56.8673 8.49085ZM62.6511 13V4.49868H68.6193V5.99215H64.495V7.90495H68.0334V9.39843H64.495V11.5065H68.6767V13H62.6511ZM69.5889 13L72.3346 4.49868H75.0515L77.7972 13H75.9591L75.2583 10.7311H72.1048L71.404 13H69.5889ZM72.5643 9.24333H74.7988L73.6787 5.63027L72.5643 9.24333ZM79.2966 13V4.49868H81.5656L83.9322 9.8637L86.2356 4.49868H88.5045V13H86.764V6.9744L84.6674 11.7708H83.1337L81.0371 7.12375V13H79.2966ZM90.687 13V4.49868H92.5538V13H90.687ZM94.7182 13V4.49868H96.5908L100.296 10.1969V4.49868H102.053V13H100.175L96.4759 7.30182V13H94.7182ZM108.785 13.0977C107.169 13.0977 105.955 12.7453 105.144 12.0407C104.336 11.3323 103.932 10.2409 103.932 8.76657C103.932 7.30373 104.345 6.20852 105.172 5.48092C106 4.75333 107.192 4.38954 108.751 4.38954C109.417 4.38954 110.057 4.46038 110.67 4.60207V6.1415C110.08 5.99981 109.496 5.92897 108.918 5.92897C107.88 5.92897 107.112 6.14916 106.614 6.58954C106.12 7.02993 105.873 7.76518 105.873 8.79529C105.873 9.76031 106.103 10.463 106.562 10.9034C107.022 11.3438 107.715 11.564 108.642 11.564C108.818 11.564 108.994 11.5582 109.17 11.5467V8.86422H110.911V12.9081C110.543 12.9694 110.183 13.0153 109.831 13.046C109.482 13.0804 109.134 13.0977 108.785 13.0977ZM62.2346 26.0862C61.8784 26.0862 61.4993 26.0747 61.0972 26.0517C60.6952 26.0326 60.2969 25.9981 59.9025 25.9483V17.6882C60.2969 17.6002 60.7315 17.5312 61.2064 17.4814C61.6812 17.4317 62.1446 17.4068 62.5965 17.4068C64.1397 17.4068 65.3039 17.7591 66.0889 18.4637C66.8778 19.1683 67.2722 20.2635 67.2722 21.7493C67.2722 23.2696 66.8529 24.3725 66.0142 25.058C65.1794 25.7434 63.9195 26.0862 62.2346 26.0862ZM62.7171 24.5697C63.6017 24.5697 64.2623 24.3553 64.6988 23.9264C65.1392 23.4975 65.3594 22.7699 65.3594 21.7436C65.3594 20.725 65.1373 19.9993 64.6931 19.5666C64.2527 19.13 63.5979 18.9117 62.7286 18.9117C62.4184 18.9117 62.0986 18.9405 61.7693 18.9979V24.5295C61.9263 24.5448 62.0814 24.5563 62.2346 24.564C62.3878 24.5678 62.5486 24.5697 62.7171 24.5697ZM68.2762 26L71.0219 17.4987H73.7389L76.4846 26H74.6465L73.9457 23.7311H70.7922L70.0914 26H68.2762ZM71.2517 22.2433H73.4862L72.3661 18.6303L71.2517 22.2433ZM78.9558 26V19.0496H76.2733V17.4987H83.5051V19.0496H80.8284V26H78.9558ZM83.2945 26L86.0402 17.4987H88.7572L91.5028 26H89.6647L88.9639 23.7311H85.8104L85.1096 26H83.2945ZM86.2699 22.2433H88.5044L87.3843 18.6303L86.2699 22.2433Z" fill="white"></path>
<path d="M217.513 13V4.49868H219.38V7.83028H222.884V4.49868H224.751V13H222.884V9.4731H219.38V13H217.513ZM226.907 13V4.49868H228.774V13H226.907ZM233.064 13.1091C232.21 13.1091 231.419 12.9885 230.692 12.7473V11.2308C231.051 11.3495 231.444 11.4433 231.869 11.5123C232.294 11.5774 232.69 11.6099 233.058 11.6099C233.629 11.6099 234.033 11.5238 234.27 11.3514C234.508 11.1753 234.626 10.9302 234.626 10.6162C234.626 10.352 234.538 10.1452 234.362 9.99582C234.19 9.84647 233.866 9.71052 233.391 9.58798L232.748 9.4214C232.001 9.23376 231.438 8.94272 231.059 8.54829C230.68 8.15003 230.49 7.6254 230.49 6.9744C230.49 6.16639 230.783 5.53454 231.369 5.07883C231.959 4.6193 232.846 4.38954 234.029 4.38954C234.412 4.38954 234.776 4.41251 235.12 4.45847C235.469 4.50059 235.777 4.55995 236.045 4.63654V6.15299C235.474 5.97684 234.837 5.88876 234.132 5.88876C233.466 5.88876 233.001 5.98066 232.736 6.16448C232.476 6.34446 232.346 6.58188 232.346 6.87675C232.346 7.12566 232.422 7.32288 232.576 7.4684C232.729 7.61008 233.016 7.73646 233.437 7.84751L234.075 8.01409C234.902 8.21705 235.509 8.51766 235.896 8.91592C236.286 9.31418 236.482 9.83881 236.482 10.4898C236.482 11.3055 236.181 11.9469 235.58 12.4141C234.979 12.8775 234.14 13.1091 233.064 13.1091ZM239.801 13V6.04959H237.119V4.49868H244.351V6.04959H241.674V13H239.801ZM249.073 13.1091C248.265 13.1091 247.56 12.9521 246.959 12.6381C246.358 12.3203 245.893 11.8397 245.563 11.1963C245.234 10.553 245.069 9.73733 245.069 8.74934C245.069 7.76135 245.234 6.94568 245.563 6.30234C245.897 5.65899 246.362 5.18031 246.959 4.8663C247.56 4.54846 248.265 4.38954 249.073 4.38954C249.881 4.38954 250.586 4.54846 251.187 4.8663C251.788 5.18031 252.253 5.66091 252.583 6.30808C252.912 6.95142 253.077 7.76518 253.077 8.74934C253.077 9.7335 252.91 10.5492 252.577 11.1963C252.248 11.8397 251.782 12.3203 251.181 12.6381C250.58 12.9521 249.877 13.1091 249.073 13.1091ZM249.073 11.6042C249.728 11.6042 250.239 11.3878 250.607 10.9551C250.978 10.5185 251.164 9.79669 251.164 8.78955C251.164 7.74411 250.976 7.00121 250.601 6.56082C250.23 6.11661 249.72 5.8945 249.073 5.8945C248.422 5.8945 247.911 6.11086 247.539 6.54359C247.168 6.97631 246.982 7.69816 246.982 8.70913C246.982 9.76222 247.166 10.509 247.534 10.9493C247.905 11.3859 248.418 11.6042 249.073 11.6042ZM254.958 13V4.68823C255.341 4.60399 255.762 4.53506 256.222 4.48144C256.681 4.424 257.147 4.39528 257.618 4.39528C258.835 4.39528 259.752 4.61739 260.369 5.0616C260.989 5.50582 261.3 6.19511 261.3 7.12949C261.3 7.73837 261.15 8.2496 260.851 8.66318C260.553 9.07293 260.132 9.37928 259.588 9.58224L262 13H259.961L257.79 9.88093C257.759 9.88093 257.727 9.88093 257.692 9.88093C257.52 9.88093 257.363 9.87902 257.221 9.87519C257.083 9.86753 256.94 9.85987 256.79 9.85221V13H254.958ZM257.727 8.49085C258.343 8.49085 258.801 8.38554 259.1 8.17492C259.398 7.96048 259.548 7.612 259.548 7.12949C259.548 6.65464 259.404 6.31 259.117 6.09555C258.833 5.87727 258.397 5.76813 257.807 5.76813C257.612 5.76813 257.432 5.7777 257.267 5.79685C257.102 5.81217 256.944 5.83323 256.79 5.86004V8.4449C256.955 8.46022 257.108 8.47171 257.25 8.47936C257.395 8.48702 257.554 8.49085 257.727 8.49085ZM263.51 13V4.49868H265.377V13H263.51ZM271.689 13.1091C270.751 13.1091 269.95 12.9598 269.288 12.6611C268.629 12.3624 268.126 11.8933 267.777 11.2538C267.433 10.6143 267.26 9.7852 267.26 8.76657C267.26 7.30373 267.653 6.20852 268.438 5.48092C269.223 4.75333 270.337 4.38954 271.781 4.38954C272.424 4.38954 273.033 4.45655 273.607 4.59058V6.13001C273.339 6.06491 273.066 6.01513 272.786 5.98066C272.51 5.9462 272.225 5.92897 271.93 5.92897C271.015 5.92897 270.333 6.14724 269.885 6.5838C269.437 7.02035 269.213 7.74029 269.213 8.74359C269.213 9.78137 269.433 10.5128 269.874 10.9379C270.318 11.3591 270.982 11.5697 271.867 11.5697C272.158 11.5697 272.447 11.5467 272.734 11.5008C273.022 11.451 273.313 11.384 273.607 11.2997V12.8334C273.336 12.9215 273.033 12.9885 272.7 13.0345C272.371 13.0842 272.034 13.1091 271.689 13.1091ZM274.592 13L277.337 4.49868H280.054L282.8 13H280.962L280.261 10.7311H277.108L276.407 13H274.592ZM277.567 9.24333H279.802L278.681 5.63027L277.567 9.24333ZM284.276 13V4.49868H286.143V11.4491H290.049V13H284.276ZM240.303 26.0862C239.947 26.0862 239.568 26.0747 239.166 26.0517C238.764 26.0326 238.365 25.9981 237.971 25.9483V17.6882C238.365 17.6002 238.8 17.5312 239.275 17.4814C239.75 17.4317 240.213 17.4068 240.665 17.4068C242.208 17.4068 243.372 17.7591 244.157 18.4637C244.946 19.1683 245.341 20.2635 245.341 21.7493C245.341 23.2696 244.921 24.3725 244.083 25.058C243.248 25.7434 241.988 26.0862 240.303 26.0862ZM240.785 24.5697C241.67 24.5697 242.331 24.3553 242.767 23.9264C243.208 23.4975 243.428 22.7699 243.428 21.7436C243.428 20.725 243.206 19.9993 242.761 19.5666C242.321 19.13 241.666 18.9117 240.797 18.9117C240.487 18.9117 240.167 18.9405 239.838 18.9979V24.5295C239.995 24.5448 240.15 24.5563 240.303 24.564C240.456 24.5678 240.617 24.5697 240.785 24.5697ZM246.345 26L249.09 17.4987H251.807L254.553 26H252.715L252.014 23.7311H248.861L248.16 26H246.345ZM249.32 22.2433H251.555L250.434 18.6303L249.32 22.2433ZM257.024 26V19.0496H254.342V17.4987H261.573V19.0496H258.897V26H257.024ZM261.363 26L264.109 17.4987H266.826L269.571 26H267.733L267.032 23.7311H263.879L263.178 26H261.363ZM264.338 22.2433H266.573L265.453 18.6303L264.338 22.2433Z" fill="white"></path>
<path d="M157.353 26.0862C156.997 26.0862 156.618 26.0747 156.216 26.0517C155.814 26.0326 155.415 25.9981 155.021 25.9483V17.6882C155.415 17.6002 155.85 17.5312 156.325 17.4814C156.8 17.4317 157.263 17.4068 157.715 17.4068C159.258 17.4068 160.422 17.7591 161.207 18.4637C161.996 19.1683 162.391 20.2635 162.391 21.7493C162.391 23.2696 161.971 24.3725 161.133 25.058C160.298 25.7434 159.038 26.0862 157.353 26.0862ZM157.836 24.5697C158.72 24.5697 159.381 24.3553 159.817 23.9264C160.258 23.4975 160.478 22.7699 160.478 21.7436C160.478 20.725 160.256 19.9993 159.812 19.5666C159.371 19.13 158.716 18.9117 157.847 18.9117C157.537 18.9117 157.217 18.9405 156.888 18.9979V24.5295C157.045 24.5448 157.2 24.5563 157.353 24.564C157.506 24.5678 157.667 24.5697 157.836 24.5697ZM166.664 26.0977C166.312 26.0977 165.916 26.0823 165.475 26.0517C165.039 26.0211 164.637 25.9809 164.269 25.9311V17.6882C164.663 17.604 165.1 17.5351 165.579 17.4814C166.061 17.424 166.534 17.3953 166.997 17.3953C168.265 17.3953 169.186 17.5925 169.76 17.9869C170.335 18.3775 170.622 18.9692 170.622 19.7619C170.622 20.2061 170.503 20.5948 170.266 20.9279C170.032 21.2611 169.695 21.4909 169.255 21.6172C169.749 21.7168 170.138 21.9351 170.421 22.2721C170.708 22.6052 170.852 23.0533 170.852 23.6162C170.852 24.1446 170.716 24.5946 170.444 24.9661C170.172 25.3337 169.73 25.6151 169.117 25.8104C168.504 26.0019 167.687 26.0977 166.664 26.0977ZM167.233 18.7566C167.015 18.7566 166.812 18.7662 166.624 18.7854C166.44 18.8007 166.262 18.8237 166.09 18.8543V20.9566H167.313C167.884 20.9566 168.286 20.8667 168.52 20.6867C168.753 20.5029 168.87 20.2271 168.87 19.8595C168.87 19.4727 168.748 19.1932 168.502 19.0209C168.257 18.8447 167.834 18.7566 167.233 18.7566ZM167.164 24.7363C167.911 24.7363 168.424 24.6386 168.703 24.4433C168.987 24.2442 169.129 23.9417 169.129 23.5358C169.129 23.1298 169 22.8312 168.744 22.6397C168.491 22.4482 168.074 22.3525 167.491 22.3525H166.09V24.6846C166.285 24.7037 166.467 24.7171 166.636 24.7248C166.804 24.7325 166.98 24.7363 167.164 24.7363Z" fill="white"></path>
<path d="M308.067 13.0862C307.711 13.0862 307.332 13.0747 306.93 13.0517C306.527 13.0326 306.129 12.9981 305.735 12.9483V4.68823C306.129 4.60016 306.564 4.53123 307.039 4.48144C307.514 4.43166 307.977 4.40677 308.429 4.40677C309.972 4.40677 311.136 4.75908 311.921 5.46369C312.71 6.16831 313.104 7.26352 313.104 8.74934C313.104 10.2696 312.685 11.3725 311.847 12.058C311.012 12.7434 309.752 13.0862 308.067 13.0862ZM308.549 11.5697C309.434 11.5697 310.095 11.3553 310.531 10.9264C310.972 10.4975 311.192 9.76988 311.192 8.74359C311.192 7.72497 310.97 6.99929 310.525 6.56657C310.085 6.13001 309.43 5.91173 308.561 5.91173C308.251 5.91173 307.931 5.94046 307.602 5.9979V11.5295C307.759 11.5448 307.914 11.5563 308.067 11.564C308.22 11.5678 308.381 11.5697 308.549 11.5697ZM314.109 13L316.854 4.49868H319.571L322.317 13H320.479L319.778 10.7311H316.624L315.924 13H314.109ZM317.084 9.24333H319.318L318.198 5.63027L317.084 9.24333ZM324.788 13V6.04959H322.106V4.49868H329.337V6.04959H326.661V13H324.788ZM329.127 13L331.872 4.49868H334.589L337.335 13H335.497L334.796 10.7311H331.643L330.942 13H329.127ZM332.102 9.24333H334.337L333.217 5.63027L332.102 9.24333ZM338.812 13V4.49868H340.678V11.4491H344.584V13H338.812ZM345.357 13L348.102 4.49868H350.819L353.565 13H351.727L351.026 10.7311H347.873L347.172 13H345.357ZM348.332 9.24333H350.567L349.446 5.63027L348.332 9.24333ZM355.041 13V4.49868H356.908V7.83028H357.741L359.97 4.49868H361.934L359.189 8.61148L362.181 13H360.148L357.735 9.4731H356.908V13H355.041ZM363.313 13V4.49868H369.282V5.99215H365.157V7.90495H368.696V9.39843H365.157V11.5065H369.339V13H363.313ZM328.74 28.5274C328.043 27.7309 327.541 26.8329 327.235 25.8334C326.929 24.8339 326.775 23.7636 326.775 22.6224C326.775 21.4813 326.929 20.411 327.235 19.4115C327.541 18.412 328.043 17.514 328.74 16.7175H330.653C329.944 17.5906 329.433 18.5116 329.119 19.4804C328.805 20.4454 328.648 21.4928 328.648 22.6224C328.648 23.7521 328.805 24.8014 329.119 25.7702C329.433 26.7352 329.944 27.6543 330.653 28.5274H328.74ZM333.817 26.1091C332.963 26.1091 332.172 25.9885 331.444 25.7473V24.2308C331.804 24.3495 332.197 24.4433 332.622 24.5123C333.047 24.5774 333.443 24.6099 333.811 24.6099C334.381 24.6099 334.785 24.5238 335.023 24.3514C335.26 24.1753 335.379 23.9302 335.379 23.6162C335.379 23.352 335.291 23.1452 335.115 22.9958C334.942 22.8465 334.619 22.7105 334.144 22.588L333.501 22.4214C332.754 22.2338 332.191 21.9427 331.812 21.5483C331.433 21.15 331.243 20.6254 331.243 19.9744C331.243 19.1664 331.536 18.5345 332.122 18.0788C332.712 17.6193 333.598 17.3895 334.782 17.3895C335.165 17.3895 335.528 17.4125 335.873 17.4585C336.222 17.5006 336.53 17.5599 336.798 17.6365V19.153C336.227 18.9768 335.59 18.8888 334.885 18.8888C334.219 18.8888 333.753 18.9807 333.489 19.1645C333.229 19.3445 333.099 19.5819 333.099 19.8767C333.099 20.1257 333.175 20.3229 333.328 20.4684C333.482 20.6101 333.769 20.7365 334.19 20.8475L334.828 21.0141C335.655 21.217 336.262 21.5177 336.649 21.9159C337.039 22.3142 337.234 22.8388 337.234 23.4898C337.234 24.3055 336.934 24.9469 336.333 25.4141C335.731 25.8775 334.893 26.1091 333.817 26.1091ZM340.637 26.1091C340.242 26.1091 339.858 26.0842 339.482 26.0345C339.111 25.9847 338.759 25.9119 338.425 25.8162V24.4204C338.751 24.5123 339.103 24.585 339.482 24.6386C339.861 24.6923 340.221 24.7191 340.562 24.7191C341.175 24.7191 341.621 24.6176 341.901 24.4146C342.18 24.2117 342.32 23.9149 342.32 23.5243C342.32 23.149 342.186 22.8618 341.918 22.6627C341.654 22.4597 341.206 22.3582 340.574 22.3582H339.327V20.9452H340.292C340.901 20.9452 341.34 20.8475 341.608 20.6522C341.876 20.4569 342.01 20.1831 342.01 19.8308C342.01 19.49 341.887 19.2296 341.642 19.0496C341.401 18.8696 341.018 18.7796 340.493 18.7796C340.175 18.7796 339.848 18.8064 339.511 18.86C339.174 18.9136 338.862 18.9922 338.575 19.0955V17.6997C338.85 17.6078 339.182 17.5331 339.568 17.4757C339.959 17.4183 340.334 17.3895 340.694 17.3895C341.724 17.3895 342.498 17.5887 343.015 17.9869C343.536 18.3814 343.796 18.9405 343.796 19.6642C343.796 20.1429 343.668 20.5526 343.411 20.8935C343.159 21.2305 342.806 21.466 342.354 21.6C342.906 21.7187 343.329 21.9504 343.624 22.295C343.923 22.6359 344.072 23.0839 344.072 23.6392C344.072 24.4127 343.787 25.0178 343.216 25.4543C342.649 25.8909 341.79 26.1091 340.637 26.1091ZM344.697 28.5274C345.406 27.6543 345.915 26.7352 346.225 25.7702C346.539 24.8014 346.696 23.7521 346.696 22.6224C346.696 21.4928 346.539 20.4454 346.225 19.4804C345.915 18.5116 345.406 17.5906 344.697 16.7175H346.61C347.307 17.514 347.809 18.412 348.115 19.4115C348.422 20.411 348.575 21.4813 348.575 22.6224C348.575 23.7636 348.422 24.8339 348.115 25.8334C347.809 26.8329 347.307 27.7309 346.61 28.5274H344.697Z" fill="white"></path>
<path d="M151.158 44.1548L163.082 49.8201C163.188 49.8703 163.303 49.8961 163.418 49.8961C163.532 49.8961 163.647 49.8703 163.753 49.8201L175.679 44.1548C175.952 44.0254 176.126 43.7502 176.126 43.4483C176.126 43.1463 175.952 42.8711 175.679 42.7418L163.754 37.0759C163.542 36.9747 163.294 36.9747 163.082 37.0759L151.158 42.7418C150.885 42.8711 150.711 43.1463 150.711 43.4483C150.711 43.7502 150.885 44.0254 151.158 44.1548ZM163.418 38.6487L173.52 43.4483L163.418 48.2474L153.317 43.4483L163.418 38.6487Z" fill="url(#paint3_linear)"></path>
<path d="M176.051 47.8893C175.865 47.499 175.398 47.3328 175.008 47.5183L163.418 53.0239L151.83 47.5183C151.438 47.3328 150.973 47.499 150.787 47.8893C150.602 48.2805 150.768 48.7463 151.158 48.9322L163.082 54.5976C163.188 54.6477 163.303 54.673 163.418 54.673C163.533 54.673 163.648 54.6477 163.753 54.5976L175.679 48.9318C176.07 48.7467 176.236 48.28 176.051 47.8893Z" fill="url(#paint4_linear)"></path>
<path d="M176.051 52.6664C175.865 52.2751 175.398 52.1108 175.008 52.2954L163.418 57.801L151.83 52.2954C151.438 52.1108 150.973 52.2751 150.787 52.6664C150.602 53.0571 150.768 53.5229 151.158 53.7093L163.082 59.3747C163.188 59.4248 163.303 59.4501 163.418 59.4501C163.533 59.4501 163.648 59.4248 163.753 59.3747L175.679 53.7088C176.07 53.5238 176.236 53.0567 176.051 52.6664Z" fill="url(#paint5_linear)"></path>

<path class="dotted-path" d="M163.711 73V205.124C163.711 216.722 173.113 226.124 184.711 226.124V226.124C196.309 226.124 205.711 235.526 205.711 247.124V273" stroke="url(#paint6_linear)" stroke-width="1.91471" stroke-dasharray="4.79 4.79"></path>
<path class="dotted-path" d="M251.711 74V203.739C251.711 216.165 241.637 226.239 229.211 226.239V226.239C216.785 226.239 206.711 236.313 206.711 248.739V273" stroke="url(#paint7_linear)" stroke-width="1.91471" stroke-dasharray="4.79 4.79"></path>
<path class="dotted-path" d="M77.7109 73V187.827C77.7109 208.976 94.8559 226.121 116.005 226.121H177.99C193.852 226.121 206.711 238.979 206.711 254.841V273" stroke="url(#paint8_linear)" stroke-width="1.91471" stroke-dasharray="4.79 4.79"></path>
<path class="dotted-path" d="M335.711 73V187.827C335.711 208.976 318.566 226.121 297.417 226.121H235.432C219.57 226.121 206.711 238.979 206.711 254.841V273" stroke="url(#paint9_linear)" stroke-width="1.91471" stroke-dasharray="4.79 4.79"></path>

<path d="M238.158 44.1548L250.082 49.8201C250.188 49.8703 250.303 49.8961 250.418 49.8961C250.532 49.8961 250.647 49.8703 250.753 49.8201L262.679 44.1548C262.952 44.0254 263.126 43.7502 263.126 43.4483C263.126 43.1463 262.952 42.8711 262.679 42.7418L250.754 37.0759C250.542 36.9747 250.294 36.9747 250.082 37.0759L238.158 42.7418C237.885 42.8711 237.711 43.1463 237.711 43.4483C237.711 43.7502 237.885 44.0254 238.158 44.1548ZM250.418 38.6487L260.52 43.4483L250.418 48.2474L240.317 43.4483L250.418 38.6487Z" fill="#111111"></path>
<path d="M238.158 44.1548L250.082 49.8201C250.188 49.8703 250.303 49.8961 250.418 49.8961C250.532 49.8961 250.647 49.8703 250.753 49.8201L262.679 44.1548C262.952 44.0254 263.126 43.7502 263.126 43.4483C263.126 43.1463 262.952 42.8711 262.679 42.7418L250.754 37.0759C250.542 36.9747 250.294 36.9747 250.082 37.0759L238.158 42.7418C237.885 42.8711 237.711 43.1463 237.711 43.4483C237.711 43.7502 237.885 44.0254 238.158 44.1548ZM250.418 38.6487L260.52 43.4483L250.418 48.2474L240.317 43.4483L250.418 38.6487Z" fill="url(#paint10_linear)"></path>
<path d="M263.051 47.8893C262.865 47.499 262.398 47.3328 262.008 47.5183L250.418 53.0239L238.83 47.5183C238.438 47.3328 237.973 47.499 237.787 47.8893C237.602 48.2805 237.768 48.7463 238.158 48.9322L250.082 54.5976C250.188 54.6477 250.303 54.673 250.418 54.673C250.533 54.673 250.648 54.6477 250.753 54.5976L262.679 48.9318C263.07 48.7467 263.236 48.28 263.051 47.8893Z" fill="#111111"></path>
<path d="M263.051 47.8893C262.865 47.499 262.398 47.3328 262.008 47.5183L250.418 53.0239L238.83 47.5183C238.438 47.3328 237.973 47.499 237.787 47.8893C237.602 48.2805 237.768 48.7463 238.158 48.9322L250.082 54.5976C250.188 54.6477 250.303 54.673 250.418 54.673C250.533 54.673 250.648 54.6477 250.753 54.5976L262.679 48.9318C263.07 48.7467 263.236 48.28 263.051 47.8893Z" fill="url(#paint11_linear)"></path>
<path d="M263.051 52.6664C262.865 52.2751 262.398 52.1108 262.008 52.2954L250.418 57.801L238.83 52.2954C238.438 52.1108 237.973 52.2751 237.787 52.6664C237.602 53.0571 237.768 53.5229 238.158 53.7093L250.082 59.3747C250.188 59.4248 250.303 59.4501 250.418 59.4501C250.533 59.4501 250.648 59.4248 250.753 59.3747L262.679 53.7088C263.07 53.5238 263.236 53.0567 263.051 52.6664Z" fill="#111111"></path>
<path d="M263.051 52.6664C262.865 52.2751 262.398 52.1108 262.008 52.2954L250.418 57.801L238.83 52.2954C238.438 52.1108 237.973 52.2751 237.787 52.6664C237.602 53.0571 237.768 53.5229 238.158 53.7093L250.082 59.3747C250.188 59.4248 250.303 59.4501 250.418 59.4501C250.533 59.4501 250.648 59.4248 250.753 59.3747L262.679 53.7088C263.07 53.5238 263.236 53.0567 263.051 52.6664Z" fill="url(#paint12_linear)"></path>
<path d="M325.158 44.1548L337.082 49.8201C337.188 49.8703 337.303 49.8961 337.418 49.8961C337.532 49.8961 337.647 49.8703 337.753 49.8201L349.679 44.1548C349.952 44.0254 350.126 43.7502 350.126 43.4483C350.126 43.1463 349.952 42.8711 349.679 42.7418L337.754 37.0759C337.542 36.9747 337.294 36.9747 337.082 37.0759L325.158 42.7418C324.885 42.8711 324.711 43.1463 324.711 43.4483C324.711 43.7502 324.885 44.0254 325.158 44.1548ZM337.418 38.6487L347.52 43.4483L337.418 48.2474L327.317 43.4483L337.418 38.6487Z" fill="#111111"></path>
<path d="M325.158 44.1548L337.082 49.8201C337.188 49.8703 337.303 49.8961 337.418 49.8961C337.532 49.8961 337.647 49.8703 337.753 49.8201L349.679 44.1548C349.952 44.0254 350.126 43.7502 350.126 43.4483C350.126 43.1463 349.952 42.8711 349.679 42.7418L337.754 37.0759C337.542 36.9747 337.294 36.9747 337.082 37.0759L325.158 42.7418C324.885 42.8711 324.711 43.1463 324.711 43.4483C324.711 43.7502 324.885 44.0254 325.158 44.1548ZM337.418 38.6487L347.52 43.4483L337.418 48.2474L327.317 43.4483L337.418 38.6487Z" fill="url(#paint13_linear)"></path>
<path d="M350.051 47.8893C349.865 47.499 349.398 47.3328 349.008 47.5183L337.418 53.0239L325.83 47.5183C325.438 47.3328 324.973 47.499 324.787 47.8893C324.602 48.2805 324.768 48.7463 325.158 48.9322L337.082 54.5976C337.188 54.6477 337.303 54.673 337.418 54.673C337.533 54.673 337.648 54.6477 337.753 54.5976L349.679 48.9318C350.07 48.7467 350.236 48.28 350.051 47.8893Z" fill="#111111"></path>
<path d="M350.051 47.8893C349.865 47.499 349.398 47.3328 349.008 47.5183L337.418 53.0239L325.83 47.5183C325.438 47.3328 324.973 47.499 324.787 47.8893C324.602 48.2805 324.768 48.7463 325.158 48.9322L337.082 54.5976C337.188 54.6477 337.303 54.673 337.418 54.673C337.533 54.673 337.648 54.6477 337.753 54.5976L349.679 48.9318C350.07 48.7467 350.236 48.28 350.051 47.8893Z" fill="url(#paint14_linear)"></path>
<path d="M350.051 52.6664C349.865 52.2751 349.398 52.1108 349.008 52.2954L337.418 57.801L325.83 52.2954C325.438 52.1108 324.973 52.2751 324.787 52.6664C324.602 53.0571 324.768 53.5229 325.158 53.7093L337.082 59.3747C337.188 59.4248 337.303 59.4501 337.418 59.4501C337.533 59.4501 337.648 59.4248 337.753 59.3747L349.679 53.7088C350.07 53.5238 350.236 53.0567 350.051 52.6664Z" fill="#111111"></path>
<path d="M350.051 52.6664C349.865 52.2751 349.398 52.1108 349.008 52.2954L337.418 57.801L325.83 52.2954C325.438 52.1108 324.973 52.2751 324.787 52.6664C324.602 53.0571 324.768 53.5229 325.158 53.7093L337.082 59.3747C337.188 59.4248 337.303 59.4501 337.418 59.4501C337.533 59.4501 337.648 59.4248 337.753 59.3747L349.679 53.7088C350.07 53.5238 350.236 53.0567 350.051 52.6664Z" fill="url(#paint15_linear)"></path>
<path d="M82.654 335.59V321.295L77.6219 324.844V323.438L83.0977 319.531H84.0068V335.59H82.654ZM91.5606 335.785C90.8392 335.785 90.1069 335.724 89.3638 335.601C88.6207 335.479 87.9282 335.313 87.2861 335.103V333.967C88.7001 334.429 90.125 334.66 91.5606 334.66C94.8216 334.66 96.452 333.462 96.452 331.067C96.452 330.338 96.2609 329.732 95.8785 329.249C95.5033 328.758 94.8685 328.376 93.9739 328.102C93.0793 327.828 91.8564 327.647 90.3053 327.561L88.0111 327.431L88.5738 319.574H97.0905V320.678H89.8075L89.3963 326.381L90.6733 326.446C92.4047 326.547 93.7899 326.781 94.8288 327.149C95.8677 327.517 96.618 328.026 97.0797 328.675C97.5414 329.317 97.7723 330.111 97.7723 331.056C97.7723 332.593 97.2492 333.765 96.2031 334.573C95.1643 335.381 93.6168 335.785 91.5606 335.785ZM100.169 338.923C100.378 338.339 100.548 337.787 100.678 337.268C100.807 336.748 100.883 336.229 100.905 335.709C100.595 335.709 100.346 335.619 100.158 335.439C99.9778 335.258 99.8876 335.02 99.8876 334.725C99.8876 334.436 99.9742 334.205 100.147 334.032C100.328 333.852 100.573 333.761 100.883 333.761C101.208 333.761 101.46 333.866 101.641 334.075C101.828 334.277 101.922 334.602 101.922 335.049C101.922 335.763 101.832 336.452 101.652 337.116C101.471 337.78 101.244 338.382 100.97 338.923H100.169Z" fill="black"></path>
<rect x="2.21094" y="256.5" width="397" height="188" rx="10.1625" fill="black" stroke="url(#paint16_linear)" stroke-width="3"></rect>
<circle cx="26.2109" cy="276.18" r="5.62531" stroke="url(#paint17_linear)" stroke-width="1.74937"></circle>
<circle cx="45.2109" cy="276.18" r="5.62531" stroke="url(#paint18_linear)" stroke-width="1.74937"></circle>
<circle cx="63.2109" cy="276.18" r="5.62531" stroke="url(#paint19_linear)" stroke-width="1.74937"></circle>
<path d="M36.9623 402.044C34.7197 402.044 33.0241 401.65 31.8755 400.86C30.7269 400.063 30.1526 398.923 30.1526 397.438C30.1526 396.328 30.4612 395.391 31.0785 394.625C31.6958 393.851 32.5592 393.258 33.6688 392.844C32.653 392.39 31.9224 391.828 31.477 391.156C31.0316 390.476 30.8089 389.683 30.8089 388.776C30.8089 387.386 31.3325 386.288 32.3795 385.483C33.4344 384.678 34.9268 384.276 36.8568 384.276C38.7633 384.276 40.244 384.663 41.2989 385.436C42.3538 386.21 42.8812 387.28 42.8812 388.648C42.8812 390.726 41.8029 392.211 39.6463 393.101C41.0371 393.531 42.0334 394.094 42.6351 394.789C43.2445 395.485 43.5493 396.332 43.5493 397.333C43.5493 398.762 42.9906 399.907 41.8732 400.767C40.7637 401.618 39.1267 402.044 36.9623 402.044ZM37.5014 392.597C37.7358 392.644 37.9624 392.687 38.1812 392.726C39.3533 392.281 40.2011 391.742 40.7246 391.109C41.2559 390.476 41.5216 389.695 41.5216 388.765C41.5216 387.679 41.1114 386.854 40.2909 386.292C39.4705 385.721 38.314 385.436 36.8216 385.436C35.2979 385.436 34.1571 385.733 33.3992 386.327C32.6413 386.913 32.2623 387.714 32.2623 388.73C32.2623 389.417 32.4225 390.011 32.7428 390.511C33.071 391.003 33.6141 391.418 34.372 391.754C35.1378 392.089 36.1809 392.371 37.5014 392.597ZM31.5942 397.286C31.5942 398.466 32.0513 399.36 32.9655 399.97C33.8876 400.579 35.2276 400.884 36.9857 400.884C38.6657 400.884 39.9393 400.587 40.8066 399.993C41.674 399.399 42.1076 398.544 42.1076 397.426C42.1076 396.434 41.7208 395.66 40.9473 395.106C40.1815 394.551 38.8571 394.105 36.974 393.769C36.2239 393.637 35.548 393.48 34.9463 393.301C33.8211 393.668 32.9812 394.203 32.4264 394.906C31.8716 395.61 31.5942 396.403 31.5942 397.286ZM45.3346 401.833V401.025L50.984 394.52C52.0232 393.316 52.746 392.304 53.1523 391.484C53.5586 390.663 53.7618 389.859 53.7618 389.069C53.7618 387.858 53.4102 386.968 52.7069 386.397C52.0115 385.827 50.9449 385.542 49.5072 385.542C47.921 385.542 46.4598 385.784 45.1237 386.268V384.979C45.7097 384.76 46.3817 384.588 47.1396 384.463C47.9054 384.338 48.7141 384.276 49.5658 384.276C51.4177 384.276 52.8241 384.659 53.7852 385.424C54.7541 386.182 55.2386 387.354 55.2386 388.941C55.2386 389.62 55.1409 390.269 54.9456 390.886C54.7502 391.503 54.422 392.16 53.961 392.855C53.5078 393.543 52.8866 394.336 52.0974 395.235L47.4326 400.579H56.4106V401.833H45.3346ZM62.3166 402.044C61.543 402.044 60.7538 401.982 59.949 401.857C59.1442 401.732 58.3901 401.552 57.6869 401.318V400.087C59.2575 400.587 60.7968 400.837 62.3048 400.837C64.1489 400.837 65.4929 400.505 66.3367 399.841C67.1806 399.169 67.6026 398.219 67.6026 396.993C67.6026 395.883 67.2197 395.031 66.4539 394.438C65.696 393.836 64.52 393.535 62.926 393.535H60.3709V392.316H61.5664C63.3245 392.316 64.6646 392.023 65.5866 391.437C66.5086 390.851 66.9697 389.952 66.9697 388.741C66.9697 387.718 66.5946 386.921 65.8445 386.35C65.0944 385.772 64.0121 385.483 62.5979 385.483C61.9024 385.483 61.1875 385.538 60.453 385.647C59.7263 385.749 58.9996 385.917 58.2729 386.151V384.92C59.6482 384.491 61.1211 384.276 62.6916 384.276C64.5279 384.276 65.9421 384.666 66.9345 385.448C67.9268 386.221 68.423 387.292 68.423 388.659C68.423 389.698 68.1222 390.57 67.5205 391.273C66.9267 391.968 66.1258 392.472 65.1178 392.785C66.3836 393.035 67.3525 393.523 68.0245 394.25C68.6965 394.977 69.0325 395.914 69.0325 397.063C69.0325 398.602 68.4933 399.817 67.415 400.708C66.3367 401.599 64.6372 402.044 62.3166 402.044ZM71.885 401.833V382.893H73.3384V394.707H76.1396L81.074 389.14H82.7617L77.3468 395.317L83.1368 401.833H81.4373L76.1513 395.973H73.3384V401.833H71.885Z" fill="white"></path>
<path d="M214.018 401.833V401.025L219.667 394.52C220.706 393.316 221.429 392.304 221.835 391.484C222.242 390.663 222.445 389.859 222.445 389.069C222.445 387.858 222.093 386.968 221.39 386.397C220.695 385.827 219.628 385.542 218.19 385.542C216.604 385.542 215.143 385.784 213.807 386.268V384.979C214.393 384.76 215.065 384.588 215.823 384.463C216.588 384.338 217.397 384.276 218.249 384.276C220.101 384.276 221.507 384.659 222.468 385.424C223.437 386.182 223.922 387.354 223.922 388.941C223.922 389.62 223.824 390.269 223.629 390.886C223.433 391.503 223.105 392.16 222.644 392.855C222.191 393.543 221.57 394.336 220.781 395.235L216.116 400.579H225.094V401.833H214.018ZM231.293 402.044C230.512 402.044 229.719 401.978 228.914 401.845C228.109 401.712 227.359 401.532 226.664 401.306V400.075C228.195 400.575 229.738 400.825 231.293 400.825C234.825 400.825 236.591 399.528 236.591 396.934C236.591 396.145 236.384 395.488 235.97 394.965C235.563 394.434 234.876 394.019 233.907 393.723C232.938 393.426 231.614 393.23 229.934 393.137L227.449 392.996L228.058 384.487H237.282V385.682H229.394L228.949 391.859L230.332 391.929C232.207 392.039 233.708 392.293 234.833 392.691C235.958 393.09 236.771 393.641 237.271 394.344C237.771 395.039 238.021 395.899 238.021 396.922C238.021 398.587 237.454 399.856 236.321 400.732C235.196 401.607 233.52 402.044 231.293 402.044ZM240.382 405.443C240.609 404.81 240.792 404.213 240.933 403.65C241.074 403.087 241.156 402.525 241.179 401.962C240.843 401.962 240.574 401.865 240.37 401.669C240.175 401.474 240.077 401.216 240.077 400.896C240.077 400.583 240.171 400.333 240.359 400.145C240.554 399.95 240.82 399.852 241.156 399.852C241.507 399.852 241.781 399.966 241.976 400.192C242.179 400.411 242.281 400.763 242.281 401.247C242.281 402.021 242.183 402.767 241.988 403.486C241.793 404.205 241.546 404.857 241.25 405.443H240.382ZM250.935 402.044C249.63 402.044 248.49 401.751 247.513 401.165C246.536 400.579 245.778 399.638 245.239 398.341C244.7 397.036 244.43 395.309 244.43 393.16C244.43 391.011 244.696 389.288 245.227 387.991C245.759 386.686 246.509 385.741 247.478 385.155C248.454 384.569 249.607 384.276 250.935 384.276C252.264 384.276 253.412 384.569 254.381 385.155C255.358 385.741 256.112 386.686 256.643 387.991C257.175 389.288 257.44 391.011 257.44 393.16C257.44 395.309 257.171 397.036 256.632 398.341C256.092 399.638 255.334 400.579 254.358 401.165C253.381 401.751 252.24 402.044 250.935 402.044ZM250.935 400.755C251.943 400.755 252.822 400.528 253.572 400.075C254.323 399.622 254.905 398.848 255.319 397.754C255.741 396.653 255.952 395.133 255.952 393.195C255.952 391.234 255.741 389.698 255.319 388.589C254.905 387.479 254.323 386.698 253.572 386.245C252.822 385.792 251.943 385.565 250.935 385.565C249.935 385.565 249.056 385.792 248.298 386.245C247.548 386.698 246.966 387.475 246.552 388.577C246.138 389.671 245.931 391.187 245.931 393.125C245.931 395.086 246.138 396.621 246.552 397.731C246.966 398.841 247.548 399.622 248.298 400.075C249.048 400.528 249.927 400.755 250.935 400.755ZM267 402.044C265.695 402.044 264.554 401.751 263.578 401.165C262.601 400.579 261.843 399.638 261.304 398.341C260.765 397.036 260.495 395.309 260.495 393.16C260.495 391.011 260.761 389.288 261.292 387.991C261.823 386.686 262.573 385.741 263.542 385.155C264.519 384.569 265.672 384.276 267 384.276C268.328 384.276 269.477 384.569 270.446 385.155C271.423 385.741 272.177 386.686 272.708 387.991C273.239 389.288 273.505 391.011 273.505 393.16C273.505 395.309 273.235 397.036 272.696 398.341C272.157 399.638 271.399 400.579 270.422 401.165C269.446 401.751 268.305 402.044 267 402.044ZM267 400.755C268.008 400.755 268.887 400.528 269.637 400.075C270.387 399.622 270.969 398.848 271.383 397.754C271.805 396.653 272.016 395.133 272.016 393.195C272.016 391.234 271.805 389.698 271.383 388.589C270.969 387.479 270.387 386.698 269.637 386.245C268.887 385.792 268.008 385.565 267 385.565C266 385.565 265.121 385.792 264.363 386.245C263.613 386.698 263.031 387.475 262.616 388.577C262.202 389.671 261.995 391.187 261.995 393.125C261.995 395.086 262.202 396.621 262.616 397.731C263.031 398.841 263.613 399.622 264.363 400.075C265.113 400.528 265.992 400.755 267 400.755ZM283.065 402.044C281.76 402.044 280.619 401.751 279.642 401.165C278.665 400.579 277.907 399.638 277.368 398.341C276.829 397.036 276.56 395.309 276.56 393.16C276.56 391.011 276.825 389.288 277.357 387.991C277.888 386.686 278.638 385.741 279.607 385.155C280.584 384.569 281.736 384.276 283.065 384.276C284.393 384.276 285.541 384.569 286.51 385.155C287.487 385.741 288.241 386.686 288.772 387.991C289.304 389.288 289.569 391.011 289.569 393.16C289.569 395.309 289.3 397.036 288.761 398.341C288.222 399.638 287.464 400.579 286.487 401.165C285.51 401.751 284.369 402.044 283.065 402.044ZM283.065 400.755C284.073 400.755 284.952 400.528 285.702 400.075C286.452 399.622 287.034 398.848 287.448 397.754C287.87 396.653 288.081 395.133 288.081 393.195C288.081 391.234 287.87 389.698 287.448 388.589C287.034 387.479 286.452 386.698 285.702 386.245C284.952 385.792 284.073 385.565 283.065 385.565C282.064 385.565 281.185 385.792 280.427 386.245C279.677 386.698 279.095 387.475 278.681 388.577C278.267 389.671 278.06 391.187 278.06 393.125C278.06 395.086 278.267 396.621 278.681 397.731C279.095 398.841 279.677 399.622 280.427 400.075C281.178 400.528 282.057 400.755 283.065 400.755Z" fill="white"></path>
<rect x="28.7109" y="411.699" width="155.071" height="2.639" fill="#2A254A"></rect>
<rect x="220.469" y="412.676" width="155.071" height="2.639" fill="#2A254A"></rect>
<rect x="28.7109" y="411.699" width="67.1741" height="2.639" fill="url(#paint20_linear)"></rect>
<rect x="215.119" y="412.676" width="133.292" height="2.639" fill="#111111"></rect>
<rect x="215.119" y="412.676" width="133.292" height="2.639" fill="url(#paint21_linear)"></rect>
<line x1="28.7109" y1="364.328" x2="375.68" y2="364.328" stroke="#2A2E5A" stroke-width="0.97672"></line>
<line x1="28.7109" y1="342.84" x2="375.68" y2="342.84" stroke="#2A2E5A" stroke-width="0.97672"></line>
<line x1="28.7109" y1="321.352" x2="375.68" y2="321.352" stroke="#2A2E5A" stroke-width="0.97672"></line>
<line x1="28.7109" y1="299.864" x2="375.68" y2="299.864" stroke="#2A2E5A" stroke-width="0.97672"></line>
<line x1="29.4648" y1="364.816" x2="29.4648" y2="300.353" stroke="#2A2E5A" stroke-width="0.97672"></line>
<line x1="87.0898" y1="364.816" x2="87.0898" y2="300.353" stroke="#2A2E5A" stroke-width="0.97672"></line>
<line x1="144.717" y1="364.816" x2="144.717" y2="300.353" stroke="#2A2E5A" stroke-width="0.97672"></line>
<line x1="202.344" y1="364.816" x2="202.344" y2="300.353" stroke="#2A2E5A" stroke-width="0.97672"></line>
<line x1="259.971" y1="364.816" x2="259.971" y2="300.353" stroke="#2A2E5A" stroke-width="0.97672"></line>
<line x1="317.596" y1="364.816" x2="317.596" y2="300.353" stroke="#2A2E5A" stroke-width="0.97672"></line>
<line x1="375.223" y1="364.816" x2="375.223" y2="300.353" stroke="#2A2E5A" stroke-width="0.97672"></line>
<path d="M73.5554 314.963L29.5312 331.982V364.214H375.294V323.191L337.174 311.018C324.69 307.031 311.038 309.57 300.821 317.778L279.064 335.256C267.423 344.608 251.47 346.507 237.959 340.148L212.768 328.293C205.704 324.968 197.805 323.837 190.092 325.044L156.107 330.362C149.325 331.423 142.383 330.679 135.98 328.203L101.73 314.963C92.6651 311.459 82.62 311.459 73.5554 314.963Z" fill="url(#paint22_linear)" fill-opacity="0.5"></path>
<path d="M29.9492 331.982L73.9734 314.963C83.0379 311.459 93.0831 311.459 102.148 314.963L136.398 328.203C142.801 330.679 149.743 331.423 156.525 330.362L190.51 325.044C198.223 323.837 206.122 324.968 213.186 328.293L238.377 340.148C251.888 346.507 267.841 344.608 279.482 335.256L301.239 317.778C311.456 309.57 325.108 307.031 337.592 311.018L375.711 323.191" stroke="url(#paint23_linear)" stroke-width="0.97672"></path>
<path d="M30.2891 340.398L76.1363 325.634C83.8015 323.166 92.0421 323.126 99.7306 325.521L130.896 335.228C141.463 338.519 152.929 337.175 162.448 331.528L180.844 320.615C195.336 312.018 213.707 313.681 226.419 324.741L245.512 341.35C255.633 350.155 269.563 353.151 282.409 349.287L318.166 338.53C324.732 336.555 331.702 336.342 338.376 337.914L375.71 346.705" stroke="#111111" stroke-width="1.95344"></path>
<path d="M30.2891 340.398L76.1363 325.634C83.8015 323.166 92.0421 323.126 99.7306 325.521L130.896 335.228C141.463 338.519 152.929 337.175 162.448 331.528L180.844 320.615C195.336 312.018 213.707 313.681 226.419 324.741L245.512 341.35C255.633 350.155 269.563 353.151 282.409 349.287L318.166 338.53C324.732 336.555 331.702 336.342 338.376 337.914L375.71 346.705" stroke="url(#paint24_linear)" stroke-width="1.95344"></path>
<circle cx="318.084" cy="300.115" r="4.12134" fill="white" stroke="#39D7E1" stroke-width="1.95344"></circle>
<rect x="298.887" y="273" width="35.8019" height="17.3259" fill="white"></rect>
<rect x="317.445" y="287.651" width="3.5019" height="3.5019" transform="rotate(45 317.445 287.651)" fill="white"></rect>
<path d="M308.928 285.748V285.186L310.974 282.51C311.316 282.067 311.555 281.693 311.692 281.387C311.832 281.077 311.902 280.781 311.902 280.498C311.902 280.071 311.78 279.764 311.536 279.575C311.295 279.383 310.924 279.287 310.422 279.287C309.852 279.287 309.327 279.381 308.845 279.57V278.701C309.056 278.619 309.314 278.554 309.616 278.505C309.922 278.453 310.224 278.427 310.52 278.427C311.298 278.427 311.894 278.585 312.307 278.901C312.724 279.217 312.932 279.718 312.932 280.405C312.932 280.786 312.853 281.163 312.693 281.538C312.537 281.912 312.257 282.357 311.853 282.871L310.3 284.873H313.308V285.748H308.928ZM314.751 285.816C314.543 285.816 314.373 285.757 314.243 285.64C314.116 285.52 314.053 285.357 314.053 285.152C314.053 284.947 314.115 284.784 314.238 284.663C314.365 284.543 314.536 284.483 314.751 284.483C314.966 284.483 315.135 284.545 315.259 284.668C315.386 284.792 315.45 284.953 315.45 285.152C315.45 285.354 315.386 285.515 315.259 285.635C315.132 285.756 314.963 285.816 314.751 285.816ZM318.506 278.427C319.024 278.427 319.478 278.543 319.868 278.774C320.262 279.002 320.568 279.371 320.787 279.882C321.005 280.39 321.114 281.063 321.114 281.899C321.114 283.254 320.837 284.25 320.284 284.888C319.733 285.523 318.945 285.84 317.92 285.84C317.679 285.84 317.441 285.824 317.207 285.792C316.973 285.759 316.756 285.704 316.557 285.625V284.795C316.756 284.873 316.969 284.93 317.197 284.966C317.428 285.002 317.656 285.02 317.881 285.02C318.607 285.02 319.155 284.8 319.527 284.361C319.898 283.918 320.088 283.21 320.098 282.236C319.893 282.393 319.645 282.515 319.356 282.603C319.066 282.69 318.768 282.734 318.462 282.734C318.026 282.734 317.638 282.658 317.3 282.505C316.961 282.352 316.694 282.119 316.499 281.806C316.307 281.491 316.211 281.09 316.211 280.605C316.211 279.899 316.422 279.36 316.846 278.989C317.269 278.614 317.822 278.427 318.506 278.427ZM318.648 281.953C318.889 281.953 319.139 281.916 319.4 281.841C319.66 281.763 319.891 281.637 320.093 281.465C320.074 280.892 319.995 280.441 319.859 280.112C319.722 279.783 319.536 279.552 319.302 279.418C319.071 279.282 318.802 279.213 318.496 279.213C318.115 279.213 317.798 279.322 317.544 279.541C317.293 279.755 317.168 280.1 317.168 280.576C317.168 281.054 317.301 281.404 317.568 281.626C317.839 281.844 318.198 281.953 318.648 281.953ZM322.168 285.748L324.668 279.394H321.421V278.52H325.791V279.081L323.242 285.748H322.168Z" fill="black"></path>
<rect x="7.21094" y="103.5" width="389" height="88" rx="7.70723" fill="black" stroke="url(#paint25_linear)" stroke-width="3"></rect>
<path d="M30.5629 129.66C30.5629 128.316 29.6389 127.452 28.2229 127.248C27.7549 127.176 27.3229 127.092 26.8429 127.032C26.2069 126.948 25.5949 126.6 25.5949 125.832C25.5949 125.448 25.7029 125.172 25.9189 124.92C26.2909 124.5 26.7829 124.32 27.3949 124.32C28.0549 124.32 28.5469 124.548 28.8709 124.92C29.1109 125.196 29.2549 125.544 29.2789 125.964H30.3949C30.3709 125.244 30.1069 124.62 29.5909 124.128C29.0269 123.588 28.2349 123.336 27.4069 123.336C26.5189 123.336 25.7989 123.624 25.2109 124.176C24.7549 124.608 24.4909 125.22 24.4909 125.856C24.4909 127.212 25.4629 127.92 26.7349 128.112C27.1909 128.184 27.5749 128.244 28.0429 128.316C29.0509 128.472 29.4469 129.024 29.4469 129.684C29.4469 130.14 29.2789 130.44 29.0149 130.68C28.6309 131.04 28.1029 131.172 27.4549 131.172C26.8549 131.172 26.2429 131.028 25.8589 130.656C25.5109 130.32 25.2709 129.816 25.2709 129.312H24.1549C24.1549 130.116 24.5029 130.848 25.0429 131.352C25.6189 131.88 26.4229 132.156 27.4549 132.156C28.3669 132.156 29.2669 131.892 29.8549 131.316C30.2749 130.908 30.5629 130.368 30.5629 129.66ZM37.9803 132V131.016H33.4203V128.076H36.8643V127.068H33.4203V124.476H37.9803V123.492H32.3523V132H37.9803ZM45.6497 132V131.004H41.2578V123.492H40.1898V132H45.6497ZM52.8632 132V131.016H48.3032V128.076H51.7472V127.068H48.3032V124.476H52.8632V123.492H47.2352V132H52.8632ZM60.4126 129.288H59.3086C59.2846 130.38 58.4326 131.16 57.3526 131.16C56.7766 131.16 56.3086 130.92 55.9126 130.512C55.2166 129.792 55.2166 128.688 55.2166 127.752C55.2166 126.816 55.2166 125.712 55.9126 124.992C56.3086 124.584 56.7766 124.344 57.3526 124.344C57.9406 124.344 58.4446 124.572 58.7926 124.956C59.0566 125.232 59.2606 125.688 59.2846 126.156H60.4006C60.3286 124.488 58.9966 123.336 57.3526 123.336C56.5006 123.336 55.7566 123.66 55.1566 124.248C54.1966 125.184 54.1126 126.492 54.1126 127.752C54.1126 129.012 54.1966 130.32 55.1566 131.256C55.7566 131.844 56.5006 132.168 57.3526 132.168C59.0086 132.168 60.3406 130.944 60.4126 129.288ZM68.07 124.488V123.492H61.206V124.488H64.098V132H65.19V124.488H68.07ZM97.7036 124.476V123.492H92.0036V132H93.0716V128.256H96.7436V127.248H93.0716V124.476H97.7036ZM104.989 132L103.285 128.256C103.693 128.124 104.053 127.92 104.305 127.656C104.713 127.224 104.953 126.72 104.953 125.976C104.953 125.232 104.689 124.68 104.281 124.248C103.813 123.768 103.117 123.492 102.121 123.492H99.205V132H100.273V128.46H102.217L103.825 132H104.989ZM103.849 125.976C103.849 127.056 103.129 127.464 102.121 127.464H100.273V124.476H102.121C103.129 124.476 103.849 124.896 103.849 125.976ZM112.538 127.752C112.538 126.396 112.43 125.16 111.506 124.26C110.894 123.66 110.138 123.336 109.286 123.336C108.434 123.336 107.678 123.66 107.066 124.26C106.142 125.16 106.034 126.396 106.034 127.752C106.034 129.108 106.142 130.344 107.066 131.244C107.678 131.844 108.434 132.168 109.286 132.168C110.138 132.168 110.894 131.844 111.506 131.244C112.43 130.344 112.538 129.108 112.538 127.752ZM111.434 127.752C111.434 128.64 111.458 129.78 110.762 130.5C110.354 130.92 109.862 131.148 109.286 131.148C108.71 131.148 108.218 130.92 107.81 130.5C107.114 129.78 107.138 128.64 107.138 127.752C107.138 126.864 107.114 125.724 107.81 125.004C108.218 124.584 108.71 124.356 109.286 124.356C109.862 124.356 110.354 124.584 110.762 125.004C111.458 125.724 111.434 126.864 111.434 127.752ZM119.716 132V123.492H118.408L116.752 128.244L115.06 123.492H113.74V132H114.772V125.316L116.248 129.42H117.208L118.684 125.292V132H119.716ZM134.107 132V123.336H133.087V126.636C132.751 126.132 132.055 125.772 131.299 125.772C130.555 125.772 129.967 126.084 129.571 126.456C128.959 127.044 128.635 127.932 128.635 128.976C128.635 129.984 128.935 130.86 129.511 131.448C129.907 131.856 130.531 132.156 131.275 132.156C131.959 132.156 132.787 131.82 133.135 131.208L133.207 132H134.107ZM133.147 128.964C133.147 129.72 132.967 130.44 132.463 130.884C132.223 131.1 131.887 131.268 131.443 131.268C130.939 131.268 130.579 131.1 130.315 130.836C129.859 130.38 129.679 129.672 129.679 128.964C129.679 128.256 129.871 127.584 130.327 127.128C130.591 126.864 130.939 126.66 131.443 126.66C131.887 126.66 132.223 126.828 132.463 127.044C132.967 127.488 133.147 128.208 133.147 128.964ZM142.076 128.976C142.076 127.932 141.764 127.02 141.152 126.432C140.756 126.06 140.18 125.772 139.436 125.772C138.68 125.772 137.96 126.132 137.624 126.636V123.336H136.604V132H137.504L137.576 131.208C137.924 131.82 138.752 132.156 139.436 132.156C140.18 132.156 140.792 131.868 141.188 131.46C141.764 130.872 142.076 129.984 142.076 128.976ZM141.032 128.964C141.032 129.672 140.864 130.38 140.408 130.836C140.144 131.1 139.772 131.268 139.268 131.268C138.824 131.268 138.488 131.088 138.248 130.872C137.744 130.428 137.564 129.72 137.564 128.964C137.564 128.208 137.744 127.5 138.248 127.056C138.488 126.84 138.824 126.66 139.268 126.66C139.772 126.66 140.12 126.864 140.384 127.128C140.84 127.584 141.032 128.256 141.032 128.964ZM29.6269 148.6V142.492H28.5589V148.6C28.5589 149.536 28.0429 150.16 27.0709 150.16C26.6629 150.16 26.2669 150.028 26.0389 149.812C25.6789 149.476 25.4869 149.008 25.4869 148.42H24.4069C24.4069 149.284 24.6709 149.908 25.1629 150.412C25.5829 150.844 26.2909 151.156 27.0709 151.156C28.5949 151.156 29.6269 150.016 29.6269 148.6ZM38.1243 146.752C38.1243 145.396 38.0163 144.16 37.0923 143.26C36.4803 142.66 35.7243 142.336 34.8723 142.336C34.0203 142.336 33.2643 142.66 32.6523 143.26C31.7283 144.16 31.6203 145.396 31.6203 146.752C31.6203 148.108 31.7283 149.344 32.6523 150.244C33.2643 150.844 34.0203 151.168 34.8723 151.168C35.7243 151.168 36.4803 150.844 37.0923 150.244C38.0163 149.344 38.1243 148.108 38.1243 146.752ZM37.0203 146.752C37.0203 147.64 37.0443 148.78 36.3483 149.5C35.9403 149.92 35.4483 150.148 34.8723 150.148C34.2963 150.148 33.8043 149.92 33.3963 149.5C32.7003 148.78 32.7243 147.64 32.7243 146.752C32.7243 145.864 32.7003 144.724 33.3963 144.004C33.8043 143.584 34.2963 143.356 34.8723 143.356C35.4483 143.356 35.9403 143.584 36.3483 144.004C37.0443 144.724 37.0203 145.864 37.0203 146.752ZM44.7378 151V150.112H42.8538V143.368H44.7378V142.492H39.8898V143.368H41.7738V150.112H39.8898V151H44.7378ZM52.6352 151V142.492H51.6032V149.368L48.2072 142.492H46.8752V151H47.9192V144.16L51.3272 151H52.6352ZM65.442 147.34L67.758 144.928H66.402L63.498 147.976V142.324H62.478V151H63.498V149.356L64.734 148.072L66.642 151H67.842L65.442 147.34ZM75.0554 150.94V150.184C75.0554 150.184 74.8994 150.22 74.7914 150.22C74.5874 150.22 74.4314 150.136 74.4314 149.812V146.872C74.4314 146.524 74.3714 146.248 74.2514 145.972C73.9634 145.312 73.2674 144.772 72.0914 144.772C71.3474 144.772 70.6394 145.024 70.2194 145.444C69.8954 145.768 69.6674 146.176 69.6554 146.692H70.6634C70.6874 146.38 70.7954 146.176 70.9874 145.984C71.1914 145.78 71.5394 145.612 72.0914 145.612C72.5834 145.612 72.9074 145.768 73.1114 145.96C73.3874 146.212 73.4234 146.536 73.4234 146.836V147.28L71.5274 147.388C69.9794 147.472 69.3554 148.468 69.3554 149.368C69.3554 150.232 70.0034 151.156 71.4554 151.156C72.3074 151.156 73.0994 150.772 73.4594 150.16H73.4834C73.4834 150.676 73.8434 151.084 74.3834 151.084C74.6354 151.084 74.8394 151.048 75.0554 150.94ZM73.4234 148.432C73.4234 148.936 73.2434 149.428 72.8834 149.8C72.5594 150.136 72.0794 150.292 71.6114 150.292C70.7474 150.292 70.3994 149.824 70.3994 149.284C70.3994 148.516 71.0954 148.204 71.7434 148.168L73.4234 148.072V148.432ZM82.2208 143.464V142.516C81.8728 142.372 81.3808 142.216 80.6728 142.216C79.4008 142.216 78.5968 143.008 78.5968 144.22V144.928H76.5928V145.792H78.5968V151H79.6288V145.792H82.2688V144.928H79.6288V144.22C79.6288 143.596 80.0128 143.116 80.7928 143.116C81.2488 143.116 81.8848 143.296 82.2208 143.464ZM87.7662 147.34L90.0822 144.928H88.7262L85.8222 147.976V142.324H84.8022V151H85.8222V149.356L87.0582 148.072L88.9662 151H90.1662L87.7662 147.34ZM97.3796 150.94V150.184C97.3796 150.184 97.2236 150.22 97.1156 150.22C96.9116 150.22 96.7556 150.136 96.7556 149.812V146.872C96.7556 146.524 96.6956 146.248 96.5756 145.972C96.2876 145.312 95.5916 144.772 94.4156 144.772C93.6716 144.772 92.9636 145.024 92.5436 145.444C92.2196 145.768 91.9916 146.176 91.9796 146.692H92.9876C93.0116 146.38 93.1196 146.176 93.3116 145.984C93.5156 145.78 93.8636 145.612 94.4156 145.612C94.9076 145.612 95.2316 145.768 95.4356 145.96C95.7116 146.212 95.7476 146.536 95.7476 146.836V147.28L93.8516 147.388C92.3036 147.472 91.6796 148.468 91.6796 149.368C91.6796 150.232 92.3276 151.156 93.7796 151.156C94.6316 151.156 95.4236 150.772 95.7836 150.16H95.8076C95.8076 150.676 96.1676 151.084 96.7076 151.084C96.9596 151.084 97.1636 151.048 97.3796 150.94ZM95.7476 148.432C95.7476 148.936 95.5676 149.428 95.2076 149.8C94.8836 150.136 94.4036 150.292 93.9356 150.292C93.0716 150.292 92.7236 149.824 92.7236 149.284C92.7236 148.516 93.4196 148.204 94.0676 148.168L95.7476 148.072V148.432ZM209.277 146.752C209.277 145.396 209.169 144.16 208.245 143.26C207.633 142.66 206.877 142.336 206.025 142.336C205.173 142.336 204.417 142.66 203.805 143.26C202.881 144.16 202.773 145.396 202.773 146.752C202.773 148.108 202.881 149.344 203.805 150.244C204.417 150.844 205.173 151.168 206.025 151.168C206.877 151.168 207.633 150.844 208.245 150.244C209.169 149.344 209.277 148.108 209.277 146.752ZM208.173 146.752C208.173 147.64 208.197 148.78 207.501 149.5C207.093 149.92 206.601 150.148 206.025 150.148C205.449 150.148 204.957 149.92 204.549 149.5C203.853 148.78 203.877 147.64 203.877 146.752C203.877 145.864 203.853 144.724 204.549 144.004C204.957 143.584 205.449 143.356 206.025 143.356C206.601 143.356 207.093 143.584 207.501 144.004C208.197 144.724 208.173 145.864 208.173 146.752ZM216.346 151V142.492H215.314V149.368L211.918 142.492H210.586V151H211.63V144.16L215.038 151H216.346ZM226.561 145.516C225.901 146.164 225.625 147.004 225.625 147.964C225.625 148.924 225.901 149.764 226.561 150.412C227.005 150.844 227.689 151.156 228.457 151.156C229.177 151.156 229.813 150.916 230.233 150.508C230.641 150.112 230.953 149.608 231.001 148.948H229.981C229.933 149.368 229.717 149.656 229.489 149.884C229.249 150.112 228.853 150.268 228.457 150.268C227.977 150.268 227.593 150.064 227.329 149.824C226.813 149.356 226.669 148.624 226.669 147.964C226.669 147.304 226.813 146.56 227.329 146.092C227.593 145.852 227.977 145.66 228.457 145.66C228.853 145.66 229.249 145.816 229.489 146.044C229.717 146.272 229.921 146.56 229.969 146.98H231.001C230.953 146.32 230.653 145.828 230.245 145.432C229.825 145.024 229.177 144.772 228.457 144.772C227.689 144.772 227.005 145.084 226.561 145.516ZM283.415 150.94V150.184C283.415 150.184 283.259 150.22 283.151 150.22C282.947 150.22 282.791 150.136 282.791 149.812V146.872C282.791 146.524 282.731 146.248 282.611 145.972C282.323 145.312 281.627 144.772 280.451 144.772C279.707 144.772 278.999 145.024 278.579 145.444C278.255 145.768 278.027 146.176 278.015 146.692H279.023C279.047 146.38 279.155 146.176 279.347 145.984C279.551 145.78 279.899 145.612 280.451 145.612C280.943 145.612 281.267 145.768 281.471 145.96C281.747 146.212 281.783 146.536 281.783 146.836V147.28L279.887 147.388C278.339 147.472 277.715 148.468 277.715 149.368C277.715 150.232 278.363 151.156 279.815 151.156C280.667 151.156 281.459 150.772 281.819 150.16H281.843C281.843 150.676 282.203 151.084 282.743 151.084C282.995 151.084 283.199 151.048 283.415 150.94ZM281.783 148.432C281.783 148.936 281.603 149.428 281.243 149.8C280.919 150.136 280.439 150.292 279.971 150.292C279.107 150.292 278.759 149.824 278.759 149.284C278.759 148.516 279.455 148.204 280.103 148.168L281.783 148.072V148.432ZM29.6269 167.6V161.492H28.5589V167.6C28.5589 168.536 28.0429 169.16 27.0709 169.16C26.6629 169.16 26.2669 169.028 26.0389 168.812C25.6789 168.476 25.4869 168.008 25.4869 167.42H24.4069C24.4069 168.284 24.6709 168.908 25.1629 169.412C25.5829 169.844 26.2909 170.156 27.0709 170.156C28.5949 170.156 29.6269 169.016 29.6269 167.6ZM38.1243 165.752C38.1243 164.396 38.0163 163.16 37.0923 162.26C36.4803 161.66 35.7243 161.336 34.8723 161.336C34.0203 161.336 33.2643 161.66 32.6523 162.26C31.7283 163.16 31.6203 164.396 31.6203 165.752C31.6203 167.108 31.7283 168.344 32.6523 169.244C33.2643 169.844 34.0203 170.168 34.8723 170.168C35.7243 170.168 36.4803 169.844 37.0923 169.244C38.0163 168.344 38.1243 167.108 38.1243 165.752ZM37.0203 165.752C37.0203 166.64 37.0443 167.78 36.3483 168.5C35.9403 168.92 35.4483 169.148 34.8723 169.148C34.2963 169.148 33.8043 168.92 33.3963 168.5C32.7003 167.78 32.7243 166.64 32.7243 165.752C32.7243 164.864 32.7003 163.724 33.3963 163.004C33.8043 162.584 34.2963 162.356 34.8723 162.356C35.4483 162.356 35.9403 162.584 36.3483 163.004C37.0443 163.724 37.0203 164.864 37.0203 165.752ZM44.7378 170V169.112H42.8538V162.368H44.7378V161.492H39.8898V162.368H41.7738V169.112H39.8898V170H44.7378ZM52.6352 170V161.492H51.6032V168.368L48.2072 161.492H46.8752V170H47.9192V163.16L51.3272 170H52.6352ZM67.254 168.236C67.254 167.216 66.462 166.688 65.73 166.58L64.086 166.328C63.582 166.244 63.282 166.028 63.282 165.572C63.282 165.332 63.402 165.116 63.618 164.936C63.894 164.72 64.278 164.636 64.65 164.636C65.058 164.636 65.442 164.768 65.694 164.996C65.874 165.152 66.042 165.428 66.054 165.74H67.074C67.05 165.26 66.906 164.912 66.654 164.588C66.234 164.048 65.478 163.772 64.65 163.772C63.894 163.772 63.198 164.06 62.802 164.468C62.526 164.744 62.31 165.14 62.31 165.632C62.31 166.028 62.43 166.4 62.67 166.676C62.934 166.964 63.318 167.168 63.786 167.24L65.334 167.468C65.982 167.564 66.234 167.912 66.234 168.308C66.234 168.584 66.102 168.8 65.934 168.932C65.622 169.196 65.166 169.28 64.746 169.28C64.266 169.28 63.858 169.196 63.57 168.98C63.282 168.764 63.054 168.464 63.042 168.044H62.022C62.022 168.56 62.25 169.088 62.622 169.448C63.162 169.976 63.87 170.156 64.698 170.156C65.526 170.156 66.306 169.928 66.774 169.448C67.062 169.148 67.254 168.764 67.254 168.236ZM74.6714 167.72C74.6714 166.856 74.1674 165.98 73.2794 165.68C73.9634 165.392 74.5034 164.576 74.5034 163.796C74.5034 163.076 74.2514 162.548 73.8314 162.164C73.3874 161.744 72.7154 161.492 72.0194 161.492C71.2994 161.492 70.6634 161.708 70.1954 162.092C69.7034 162.5 69.4034 163.1 69.3914 163.928H70.4354C70.4474 163.424 70.6154 163.016 70.9394 162.752C71.1914 162.548 71.5394 162.416 71.9954 162.416C72.4514 162.416 72.8234 162.596 73.0514 162.824C73.3154 163.076 73.4474 163.412 73.4474 163.796C73.4474 164.672 72.8354 165.2 71.8754 165.2H71.3354V166.148H71.8754C72.8954 166.148 73.6274 166.676 73.6274 167.696C73.6274 168.152 73.4594 168.5 73.2314 168.752C72.9434 169.076 72.4874 169.232 71.9834 169.232C71.4554 169.232 71.0594 169.04 70.8074 168.764C70.5314 168.476 70.3994 168.08 70.3754 167.612H69.3314C69.3434 168.38 69.6074 168.968 70.0394 169.4C70.5074 169.868 71.1794 170.156 71.9834 170.156C72.9194 170.156 73.5914 169.868 74.0354 169.4C74.4434 168.968 74.6714 168.368 74.6714 167.72ZM142.304 165.752C142.304 164.396 142.196 163.16 141.272 162.26C140.66 161.66 139.904 161.336 139.052 161.336C138.2 161.336 137.444 161.66 136.832 162.26C135.908 163.16 135.8 164.396 135.8 165.752C135.8 167.108 135.908 168.344 136.832 169.244C137.444 169.844 138.2 170.168 139.052 170.168C139.904 170.168 140.66 169.844 141.272 169.244C142.196 168.344 142.304 167.108 142.304 165.752ZM141.2 165.752C141.2 166.64 141.224 167.78 140.528 168.5C140.12 168.92 139.628 169.148 139.052 169.148C138.476 169.148 137.984 168.92 137.576 168.5C136.88 167.78 136.904 166.64 136.904 165.752C136.904 164.864 136.88 163.724 137.576 163.004C137.984 162.584 138.476 162.356 139.052 162.356C139.628 162.356 140.12 162.584 140.528 163.004C141.224 163.724 141.2 164.864 141.2 165.752ZM149.373 170V161.492H148.341V168.368L144.945 161.492H143.613V170H144.657V163.16L148.065 170H149.373ZM159.588 164.516C158.928 165.164 158.652 166.004 158.652 166.964C158.652 167.924 158.928 168.764 159.588 169.412C160.032 169.844 160.716 170.156 161.484 170.156C162.204 170.156 162.84 169.916 163.26 169.508C163.668 169.112 163.98 168.608 164.028 167.948H163.008C162.96 168.368 162.744 168.656 162.516 168.884C162.276 169.112 161.88 169.268 161.484 169.268C161.004 169.268 160.62 169.064 160.356 168.824C159.84 168.356 159.696 167.624 159.696 166.964C159.696 166.304 159.84 165.56 160.356 165.092C160.62 164.852 161.004 164.66 161.484 164.66C161.88 164.66 162.276 164.816 162.516 165.044C162.744 165.272 162.948 165.56 162.996 165.98H164.028C163.98 165.32 163.68 164.828 163.272 164.432C162.852 164.024 162.204 163.772 161.484 163.772C160.716 163.772 160.032 164.084 159.588 164.516ZM216.286 170V169.136H214.162V161.336H211.174V162.188H213.13V169.136H210.994V170H216.286Z" fill="#57EFD4"></path>
<path d="M147.381 132.012V130.2H145.605V132.012H147.381ZM152.147 126.516C151.487 127.164 151.211 128.004 151.211 128.964C151.211 129.924 151.487 130.764 152.147 131.412C152.591 131.844 153.275 132.156 154.043 132.156C154.763 132.156 155.399 131.916 155.819 131.508C156.227 131.112 156.539 130.608 156.587 129.948H155.567C155.519 130.368 155.303 130.656 155.075 130.884C154.835 131.112 154.439 131.268 154.043 131.268C153.563 131.268 153.179 131.064 152.915 130.824C152.399 130.356 152.255 129.624 152.255 128.964C152.255 128.304 152.399 127.56 152.915 127.092C153.179 126.852 153.563 126.66 154.043 126.66C154.439 126.66 154.835 126.816 155.075 127.044C155.303 127.272 155.507 127.56 155.555 127.98H156.587C156.539 127.32 156.239 126.828 155.831 126.432C155.411 126.024 154.763 125.772 154.043 125.772C153.275 125.772 152.591 126.084 152.147 126.516ZM163.836 132V125.928H162.804V129.456C162.804 130.464 162.096 131.232 161.232 131.232C160.272 131.232 159.888 130.692 159.888 129.78V125.928H158.856V129.924C158.856 131.28 159.72 132.156 160.992 132.156C161.676 132.156 162.54 131.784 162.852 131.088L162.936 132H163.836ZM171.434 130.236C171.434 129.216 170.642 128.688 169.91 128.58L168.266 128.328C167.762 128.244 167.462 128.028 167.462 127.572C167.462 127.332 167.582 127.116 167.798 126.936C168.074 126.72 168.458 126.636 168.83 126.636C169.238 126.636 169.622 126.768 169.874 126.996C170.054 127.152 170.222 127.428 170.234 127.74H171.254C171.23 127.26 171.086 126.912 170.834 126.588C170.414 126.048 169.658 125.772 168.83 125.772C168.074 125.772 167.378 126.06 166.982 126.468C166.706 126.744 166.49 127.14 166.49 127.632C166.49 128.028 166.61 128.4 166.85 128.676C167.114 128.964 167.498 129.168 167.966 129.24L169.514 129.468C170.162 129.564 170.414 129.912 170.414 130.308C170.414 130.584 170.282 130.8 170.114 130.932C169.802 131.196 169.346 131.28 168.926 131.28C168.446 131.28 168.038 131.196 167.75 130.98C167.462 130.764 167.234 130.464 167.222 130.044H166.202C166.202 130.56 166.43 131.088 166.802 131.448C167.342 131.976 168.05 132.156 168.878 132.156C169.706 132.156 170.486 131.928 170.954 131.448C171.242 131.148 171.434 130.764 171.434 130.236ZM178.803 131.7V130.8C178.299 131.028 177.867 131.208 177.267 131.208C176.559 131.208 176.187 130.764 176.187 130.116V126.804H178.731V125.928H176.187V124.032L175.167 124.356V125.928H173.271V126.804H175.167V130.212C175.167 131.184 175.755 132.132 177.123 132.132C177.831 132.132 178.359 131.952 178.803 131.7ZM186.556 128.952C186.556 127.992 186.268 127.152 185.608 126.504C185.164 126.072 184.48 125.772 183.712 125.772C182.944 125.772 182.236 126.072 181.792 126.504C181.132 127.152 180.844 128.004 180.844 128.964C180.844 129.924 181.132 130.776 181.792 131.424C182.236 131.856 182.944 132.156 183.712 132.156C184.48 132.156 185.164 131.856 185.608 131.424C186.268 130.776 186.556 129.912 186.556 128.952ZM185.512 128.964C185.512 129.624 185.344 130.368 184.828 130.836C184.564 131.076 184.18 131.268 183.7 131.268C183.22 131.268 182.836 131.076 182.572 130.836C182.056 130.368 181.888 129.612 181.888 128.952C181.888 128.292 182.056 127.56 182.572 127.092C182.836 126.852 183.22 126.66 183.7 126.66C184.18 126.66 184.564 126.852 184.828 127.092C185.344 127.56 185.512 128.304 185.512 128.964ZM194.394 132V127.404C194.394 126.588 193.95 125.772 192.882 125.772C192.234 125.772 191.742 126.096 191.454 126.576C191.334 126.24 190.902 125.772 190.266 125.772C189.606 125.772 189.15 126.12 188.946 126.516L188.85 125.928H188.022V132H189.03V128.292C189.03 127.356 189.306 126.672 189.978 126.672C190.578 126.672 190.77 127.128 190.77 127.764V132H191.73V128.412C191.73 127.8 191.79 127.26 192.09 126.948C192.234 126.804 192.402 126.672 192.654 126.672C193.266 126.672 193.386 127.152 193.386 127.692V132H194.394ZM201.379 129.288V128.928C201.379 127.98 201.079 127.092 200.503 126.504C200.071 126.06 199.399 125.772 198.631 125.772C197.815 125.772 197.167 126.084 196.699 126.552C196.111 127.152 195.799 128.04 195.799 128.988C195.799 129.852 196.051 130.728 196.699 131.364C197.179 131.832 197.839 132.156 198.619 132.156C199.891 132.156 200.935 131.436 201.223 130.176H200.239C200.155 130.464 199.951 130.74 199.735 130.908C199.435 131.148 199.159 131.268 198.619 131.268C198.139 131.268 197.743 131.088 197.455 130.812C197.023 130.404 196.843 129.816 196.843 129.288H201.379ZM200.299 128.448H196.879C196.903 127.728 197.455 126.648 198.619 126.648C199.099 126.648 199.483 126.828 199.783 127.14C200.095 127.464 200.287 127.932 200.299 128.448ZM209.121 127.98C209.121 127.548 209.025 127.08 208.737 126.66C208.401 126.18 207.825 125.772 207.009 125.772C206.253 125.772 205.473 126.108 205.089 126.84L205.005 125.928H204.105V132H205.137V129.3C205.137 128.808 205.209 128.184 205.401 127.728C205.641 127.164 206.181 126.696 206.793 126.696C207.237 126.696 207.549 126.864 207.753 127.092C207.969 127.332 208.077 127.644 208.077 127.98H209.121ZM216.082 130.236C216.082 129.216 215.29 128.688 214.558 128.58L212.914 128.328C212.41 128.244 212.11 128.028 212.11 127.572C212.11 127.332 212.23 127.116 212.446 126.936C212.722 126.72 213.106 126.636 213.478 126.636C213.886 126.636 214.27 126.768 214.522 126.996C214.702 127.152 214.87 127.428 214.882 127.74H215.902C215.878 127.26 215.734 126.912 215.482 126.588C215.062 126.048 214.306 125.772 213.478 125.772C212.722 125.772 212.026 126.06 211.63 126.468C211.354 126.744 211.138 127.14 211.138 127.632C211.138 128.028 211.258 128.4 211.498 128.676C211.762 128.964 212.146 129.168 212.614 129.24L214.162 129.468C214.81 129.564 215.062 129.912 215.062 130.308C215.062 130.584 214.93 130.8 214.762 130.932C214.45 131.196 213.994 131.28 213.574 131.28C213.094 131.28 212.686 131.196 212.398 130.98C212.11 130.764 211.882 130.464 211.87 130.044H210.85C210.85 130.56 211.078 131.088 211.45 131.448C211.99 131.976 212.698 132.156 213.526 132.156C214.354 132.156 215.134 131.928 215.602 131.448C215.89 131.148 216.082 130.764 216.082 130.236ZM226.561 126.516C225.901 127.164 225.625 128.004 225.625 128.964C225.625 129.924 225.901 130.764 226.561 131.412C227.005 131.844 227.689 132.156 228.457 132.156C229.177 132.156 229.813 131.916 230.233 131.508C230.641 131.112 230.953 130.608 231.001 129.948H229.981C229.933 130.368 229.717 130.656 229.489 130.884C229.249 131.112 228.853 131.268 228.457 131.268C227.977 131.268 227.593 131.064 227.329 130.824C226.813 130.356 226.669 129.624 226.669 128.964C226.669 128.304 226.813 127.56 227.329 127.092C227.593 126.852 227.977 126.66 228.457 126.66C228.853 126.66 229.249 126.816 229.489 127.044C229.717 127.272 229.921 127.56 229.969 127.98H231.001C230.953 127.32 230.653 126.828 230.245 126.432C229.825 126.024 229.177 125.772 228.457 125.772C227.689 125.772 227.005 126.084 226.561 126.516ZM102.733 151.012V149.2H100.957V151.012H102.733ZM112.262 150.94V150.184C112.262 150.184 112.106 150.22 111.998 150.22C111.794 150.22 111.638 150.136 111.638 149.812V146.872C111.638 146.524 111.578 146.248 111.458 145.972C111.17 145.312 110.474 144.772 109.298 144.772C108.554 144.772 107.846 145.024 107.426 145.444C107.102 145.768 106.874 146.176 106.862 146.692H107.87C107.894 146.38 108.002 146.176 108.194 145.984C108.398 145.78 108.746 145.612 109.298 145.612C109.79 145.612 110.114 145.768 110.318 145.96C110.594 146.212 110.63 146.536 110.63 146.836V147.28L108.734 147.388C107.186 147.472 106.562 148.468 106.562 149.368C106.562 150.232 107.21 151.156 108.662 151.156C109.514 151.156 110.306 150.772 110.666 150.16H110.69C110.69 150.676 111.05 151.084 111.59 151.084C111.842 151.084 112.046 151.048 112.262 150.94ZM110.63 148.432C110.63 148.936 110.45 149.428 110.09 149.8C109.766 150.136 109.286 150.292 108.818 150.292C107.954 150.292 107.606 149.824 107.606 149.284C107.606 148.516 108.302 148.204 108.95 148.168L110.63 148.072V148.432ZM114.94 145.516C114.28 146.164 114.004 147.004 114.004 147.964C114.004 148.924 114.28 149.764 114.94 150.412C115.384 150.844 116.068 151.156 116.836 151.156C117.556 151.156 118.192 150.916 118.612 150.508C119.02 150.112 119.332 149.608 119.38 148.948H118.36C118.312 149.368 118.096 149.656 117.868 149.884C117.628 150.112 117.232 150.268 116.836 150.268C116.356 150.268 115.972 150.064 115.708 149.824C115.192 149.356 115.048 148.624 115.048 147.964C115.048 147.304 115.192 146.56 115.708 146.092C115.972 145.852 116.356 145.66 116.836 145.66C117.232 145.66 117.628 145.816 117.868 146.044C118.096 146.272 118.3 146.56 118.348 146.98H119.38C119.332 146.32 119.032 145.828 118.624 145.432C118.204 145.024 117.556 144.772 116.836 144.772C116.068 144.772 115.384 145.084 114.94 145.516ZM126.713 150.7V149.8C126.209 150.028 125.777 150.208 125.177 150.208C124.469 150.208 124.097 149.764 124.097 149.116V145.804H126.641V144.928H124.097V143.032L123.077 143.356V144.928H121.181V145.804H123.077V149.212C123.077 150.184 123.665 151.132 125.033 151.132C125.741 151.132 126.269 150.952 126.713 150.7ZM132.607 143.776V142.336H131.155V143.776H132.607ZM134.659 151V150.124H132.451V144.928H129.463V145.792H131.419V150.124H129.223V151H134.659ZM142.04 144.94H140.972L139.112 149.992L137.18 144.94H136.064L138.464 151H139.676L142.04 144.94ZM147.489 143.776V142.336H146.037V143.776H147.489ZM149.541 151V150.124H147.333V144.928H144.345V145.792H146.301V150.124H144.105V151H149.541ZM156.479 150.7V149.8C155.975 150.028 155.543 150.208 154.943 150.208C154.235 150.208 153.863 149.764 153.863 149.116V145.804H156.407V144.928H153.863V143.032L152.843 143.356V144.928H150.947V145.804H152.843V149.212C152.843 150.184 153.431 151.132 154.799 151.132C155.507 151.132 156.035 150.952 156.479 150.7ZM162.372 143.776V142.336H160.92V143.776H162.372ZM164.424 151V150.124H162.216V144.928H159.228V145.792H161.184V150.124H158.988V151H164.424ZM171.614 148.288V147.928C171.614 146.98 171.314 146.092 170.738 145.504C170.306 145.06 169.634 144.772 168.866 144.772C168.05 144.772 167.402 145.084 166.934 145.552C166.346 146.152 166.034 147.04 166.034 147.988C166.034 148.852 166.286 149.728 166.934 150.364C167.414 150.832 168.074 151.156 168.854 151.156C170.126 151.156 171.17 150.436 171.458 149.176H170.474C170.39 149.464 170.186 149.74 169.97 149.908C169.67 150.148 169.394 150.268 168.854 150.268C168.374 150.268 167.978 150.088 167.69 149.812C167.258 149.404 167.078 148.816 167.078 148.288H171.614ZM170.534 147.448H167.114C167.138 146.728 167.69 145.648 168.854 145.648C169.334 145.648 169.718 145.828 170.018 146.14C170.33 146.464 170.522 146.932 170.534 147.448ZM178.875 149.236C178.875 148.216 178.083 147.688 177.351 147.58L175.707 147.328C175.203 147.244 174.903 147.028 174.903 146.572C174.903 146.332 175.023 146.116 175.239 145.936C175.515 145.72 175.899 145.636 176.271 145.636C176.679 145.636 177.063 145.768 177.315 145.996C177.495 146.152 177.663 146.428 177.675 146.74H178.695C178.671 146.26 178.527 145.912 178.275 145.588C177.855 145.048 177.099 144.772 176.271 144.772C175.515 144.772 174.819 145.06 174.423 145.468C174.147 145.744 173.931 146.14 173.931 146.632C173.931 147.028 174.051 147.4 174.291 147.676C174.555 147.964 174.939 148.168 175.407 148.24L176.955 148.468C177.603 148.564 177.855 148.912 177.855 149.308C177.855 149.584 177.723 149.8 177.555 149.932C177.243 150.196 176.787 150.28 176.367 150.28C175.887 150.28 175.479 150.196 175.191 149.98C174.903 149.764 174.675 149.464 174.663 149.044H173.643C173.643 149.56 173.871 150.088 174.243 150.448C174.783 150.976 175.491 151.156 176.319 151.156C177.147 151.156 177.927 150.928 178.395 150.448C178.683 150.148 178.875 149.764 178.875 149.236ZM194.118 150.94V150.184C194.118 150.184 193.962 150.22 193.854 150.22C193.65 150.22 193.494 150.136 193.494 149.812V146.872C193.494 146.524 193.434 146.248 193.314 145.972C193.026 145.312 192.33 144.772 191.154 144.772C190.41 144.772 189.702 145.024 189.282 145.444C188.958 145.768 188.73 146.176 188.718 146.692H189.726C189.75 146.38 189.858 146.176 190.05 145.984C190.254 145.78 190.602 145.612 191.154 145.612C191.646 145.612 191.97 145.768 192.174 145.96C192.45 146.212 192.486 146.536 192.486 146.836V147.28L190.59 147.388C189.042 147.472 188.418 148.468 188.418 149.368C188.418 150.232 189.066 151.156 190.518 151.156C191.37 151.156 192.162 150.772 192.522 150.16H192.546C192.546 150.676 192.906 151.084 193.446 151.084C193.698 151.084 193.902 151.048 194.118 150.94ZM192.486 148.432C192.486 148.936 192.306 149.428 191.946 149.8C191.622 150.136 191.142 150.292 190.674 150.292C189.81 150.292 189.462 149.824 189.462 149.284C189.462 148.516 190.158 148.204 190.806 148.168L192.486 148.072V148.432ZM236.678 151.012V149.2H234.902V151.012H236.678ZM244.228 143.776V142.336H242.776V143.776H244.228ZM246.28 151V150.124H244.072V144.928H241.084V145.792H243.04V150.124H240.844V151H246.28ZM253.169 151V142.336H252.149V145.636C251.813 145.132 251.117 144.772 250.361 144.772C249.617 144.772 249.029 145.084 248.633 145.456C248.021 146.044 247.697 146.932 247.697 147.976C247.697 148.984 247.997 149.86 248.573 150.448C248.969 150.856 249.593 151.156 250.337 151.156C251.021 151.156 251.849 150.82 252.197 150.208L252.269 151H253.169ZM252.209 147.964C252.209 148.72 252.029 149.44 251.525 149.884C251.285 150.1 250.949 150.268 250.505 150.268C250.001 150.268 249.641 150.1 249.377 149.836C248.921 149.38 248.741 148.672 248.741 147.964C248.741 147.256 248.933 146.584 249.389 146.128C249.653 145.864 250.001 145.66 250.505 145.66C250.949 145.66 251.285 145.828 251.525 146.044C252.029 146.488 252.209 147.208 252.209 147.964ZM288.768 151.012V149.2H286.992V151.012H288.768ZM293.534 145.516C292.874 146.164 292.598 147.004 292.598 147.964C292.598 148.924 292.874 149.764 293.534 150.412C293.978 150.844 294.662 151.156 295.43 151.156C296.15 151.156 296.786 150.916 297.206 150.508C297.614 150.112 297.926 149.608 297.974 148.948H296.954C296.906 149.368 296.69 149.656 296.462 149.884C296.222 150.112 295.826 150.268 295.43 150.268C294.95 150.268 294.566 150.064 294.302 149.824C293.786 149.356 293.642 148.624 293.642 147.964C293.642 147.304 293.786 146.56 294.302 146.092C294.566 145.852 294.95 145.66 295.43 145.66C295.826 145.66 296.222 145.816 296.462 146.044C296.69 146.272 296.894 146.56 296.942 146.98H297.974C297.926 146.32 297.626 145.828 297.218 145.432C296.798 145.024 296.15 144.772 295.43 144.772C294.662 144.772 293.978 145.084 293.534 145.516ZM305.223 151V144.928H304.191V148.456C304.191 149.464 303.483 150.232 302.619 150.232C301.659 150.232 301.275 149.692 301.275 148.78V144.928H300.243V148.924C300.243 150.28 301.107 151.156 302.379 151.156C303.063 151.156 303.927 150.784 304.239 150.088L304.323 151H305.223ZM312.82 149.236C312.82 148.216 312.028 147.688 311.296 147.58L309.652 147.328C309.148 147.244 308.848 147.028 308.848 146.572C308.848 146.332 308.968 146.116 309.184 145.936C309.46 145.72 309.844 145.636 310.216 145.636C310.624 145.636 311.008 145.768 311.26 145.996C311.44 146.152 311.608 146.428 311.62 146.74H312.64C312.616 146.26 312.472 145.912 312.22 145.588C311.8 145.048 311.044 144.772 310.216 144.772C309.46 144.772 308.764 145.06 308.368 145.468C308.092 145.744 307.876 146.14 307.876 146.632C307.876 147.028 307.996 147.4 308.236 147.676C308.5 147.964 308.884 148.168 309.352 148.24L310.9 148.468C311.548 148.564 311.8 148.912 311.8 149.308C311.8 149.584 311.668 149.8 311.5 149.932C311.188 150.196 310.732 150.28 310.312 150.28C309.832 150.28 309.424 150.196 309.136 149.98C308.848 149.764 308.62 149.464 308.608 149.044H307.588C307.588 149.56 307.816 150.088 308.188 150.448C308.728 150.976 309.436 151.156 310.264 151.156C311.092 151.156 311.872 150.928 312.34 150.448C312.628 150.148 312.82 149.764 312.82 149.236ZM320.19 150.7V149.8C319.686 150.028 319.254 150.208 318.654 150.208C317.946 150.208 317.574 149.764 317.574 149.116V145.804H320.118V144.928H317.574V143.032L316.554 143.356V144.928H314.658V145.804H316.554V149.212C316.554 150.184 317.142 151.132 318.51 151.132C319.218 151.132 319.746 150.952 320.19 150.7ZM327.943 147.952C327.943 146.992 327.655 146.152 326.995 145.504C326.551 145.072 325.867 144.772 325.099 144.772C324.331 144.772 323.623 145.072 323.179 145.504C322.519 146.152 322.231 147.004 322.231 147.964C322.231 148.924 322.519 149.776 323.179 150.424C323.623 150.856 324.331 151.156 325.099 151.156C325.867 151.156 326.551 150.856 326.995 150.424C327.655 149.776 327.943 148.912 327.943 147.952ZM326.899 147.964C326.899 148.624 326.731 149.368 326.215 149.836C325.951 150.076 325.567 150.268 325.087 150.268C324.607 150.268 324.223 150.076 323.959 149.836C323.443 149.368 323.275 148.612 323.275 147.952C323.275 147.292 323.443 146.56 323.959 146.092C324.223 145.852 324.607 145.66 325.087 145.66C325.567 145.66 325.951 145.852 326.215 146.092C326.731 146.56 326.899 147.304 326.899 147.964ZM335.781 151V146.404C335.781 145.588 335.337 144.772 334.269 144.772C333.621 144.772 333.129 145.096 332.841 145.576C332.721 145.24 332.289 144.772 331.653 144.772C330.993 144.772 330.537 145.12 330.333 145.516L330.237 144.928H329.409V151H330.417V147.292C330.417 146.356 330.693 145.672 331.365 145.672C331.965 145.672 332.157 146.128 332.157 146.764V151H333.117V147.412C333.117 146.8 333.177 146.26 333.477 145.948C333.621 145.804 333.789 145.672 334.041 145.672C334.653 145.672 334.773 146.152 334.773 146.692V151H335.781ZM342.766 148.288V147.928C342.766 146.98 342.466 146.092 341.89 145.504C341.458 145.06 340.786 144.772 340.018 144.772C339.202 144.772 338.554 145.084 338.086 145.552C337.498 146.152 337.186 147.04 337.186 147.988C337.186 148.852 337.438 149.728 338.086 150.364C338.566 150.832 339.226 151.156 340.006 151.156C341.278 151.156 342.322 150.436 342.61 149.176H341.626C341.542 149.464 341.338 149.74 341.122 149.908C340.822 150.148 340.546 150.268 340.006 150.268C339.526 150.268 339.13 150.088 338.842 149.812C338.41 149.404 338.23 148.816 338.23 148.288H342.766ZM341.686 147.448H338.266C338.29 146.728 338.842 145.648 340.006 145.648C340.486 145.648 340.87 145.828 341.17 146.14C341.482 146.464 341.674 146.932 341.686 147.448ZM350.507 146.98C350.507 146.548 350.411 146.08 350.123 145.66C349.787 145.18 349.211 144.772 348.395 144.772C347.639 144.772 346.859 145.108 346.475 145.84L346.391 144.928H345.491V151H346.523V148.3C346.523 147.808 346.595 147.184 346.787 146.728C347.027 146.164 347.567 145.696 348.179 145.696C348.623 145.696 348.935 145.864 349.139 146.092C349.355 146.332 349.463 146.644 349.463 146.98H350.507ZM357.829 151.948V151H351.889V151.948H357.829ZM363.29 143.776V142.336H361.838V143.776H363.29ZM365.342 151V150.124H363.134V144.928H360.146V145.792H362.102V150.124H359.906V151H365.342ZM372.232 151V142.336H371.212V145.636C370.876 145.132 370.18 144.772 369.424 144.772C368.68 144.772 368.092 145.084 367.696 145.456C367.084 146.044 366.76 146.932 366.76 147.976C366.76 148.984 367.06 149.86 367.636 150.448C368.032 150.856 368.656 151.156 369.4 151.156C370.084 151.156 370.912 150.82 371.26 150.208L371.332 151H372.232ZM371.272 147.964C371.272 148.72 371.092 149.44 370.588 149.884C370.348 150.1 370.012 150.268 369.568 150.268C369.064 150.268 368.704 150.1 368.44 149.836C367.984 149.38 367.804 148.672 367.804 147.964C367.804 147.256 367.996 146.584 368.452 146.128C368.716 145.864 369.064 145.66 369.568 145.66C370.012 145.66 370.348 145.828 370.588 146.044C371.092 146.488 371.272 147.208 371.272 147.964ZM80.4088 170.012V168.2H78.6328V170.012H80.4088ZM89.7822 170V169.136H87.6582V161.336H84.6702V162.188H86.6262V169.136H84.4902V170H89.7822ZM97.2596 166.952C97.2596 165.992 96.9716 165.152 96.3116 164.504C95.8676 164.072 95.1836 163.772 94.4156 163.772C93.6476 163.772 92.9396 164.072 92.4956 164.504C91.8356 165.152 91.5476 166.004 91.5476 166.964C91.5476 167.924 91.8356 168.776 92.4956 169.424C92.9396 169.856 93.6476 170.156 94.4156 170.156C95.1836 170.156 95.8676 169.856 96.3116 169.424C96.9716 168.776 97.2596 167.912 97.2596 166.952ZM96.2156 166.964C96.2156 167.624 96.0476 168.368 95.5316 168.836C95.2676 169.076 94.8836 169.268 94.4036 169.268C93.9236 169.268 93.5396 169.076 93.2756 168.836C92.7596 168.368 92.5916 167.612 92.5916 166.952C92.5916 166.292 92.7596 165.56 93.2756 165.092C93.5396 164.852 93.9236 164.66 94.4036 164.66C94.8836 164.66 95.2676 164.852 95.5316 165.092C96.0476 165.56 96.2156 166.304 96.2156 166.964ZM104.953 170.9C104.953 170.396 104.773 170 104.485 169.712C104.005 169.22 103.225 169.076 102.505 169.076H101.173C100.789 169.076 100.237 169.004 100.273 168.476C100.297 168.188 100.573 167.984 100.801 167.912C101.185 168.044 101.449 168.104 101.857 168.104C102.661 168.104 103.309 167.804 103.705 167.372C104.041 167 104.257 166.508 104.257 165.932C104.257 165.392 104.101 164.996 103.849 164.672C103.921 164.372 104.209 164.12 104.605 164.12C104.689 164.12 104.773 164.12 104.833 164.132V163.304C104.737 163.292 104.629 163.28 104.533 163.28C103.957 163.28 103.477 163.592 103.273 164.132C102.901 163.904 102.433 163.772 101.857 163.772C101.053 163.772 100.453 164.024 100.033 164.456C99.685 164.816 99.445 165.272 99.445 165.932C99.445 166.508 99.661 167.096 100.153 167.504C99.697 167.72 99.325 168.14 99.325 168.68C99.325 169.148 99.613 169.544 100.021 169.7C99.541 169.94 99.157 170.432 99.157 171.068C99.157 171.548 99.361 171.884 99.613 172.136C100.201 172.724 101.149 172.832 101.953 172.832C102.805 172.832 103.849 172.688 104.437 172.112C104.725 171.824 104.953 171.428 104.953 170.9ZM103.261 165.932C103.261 166.7 102.673 167.288 101.845 167.288C101.017 167.288 100.429 166.7 100.429 165.932C100.429 165.164 100.981 164.6 101.845 164.6C102.709 164.6 103.261 165.164 103.261 165.932ZM103.957 170.9C103.957 171.164 103.837 171.368 103.681 171.524C103.297 171.908 102.529 171.956 102.013 171.956C101.485 171.956 100.729 171.932 100.333 171.536C100.177 171.38 100.081 171.176 100.081 170.9C100.081 170.432 100.441 170.072 100.849 169.94H102.013C102.781 169.94 103.957 169.868 103.957 170.9ZM111.902 168.236C111.902 167.216 111.11 166.688 110.378 166.58L108.734 166.328C108.23 166.244 107.93 166.028 107.93 165.572C107.93 165.332 108.05 165.116 108.266 164.936C108.542 164.72 108.926 164.636 109.298 164.636C109.706 164.636 110.09 164.768 110.342 164.996C110.522 165.152 110.69 165.428 110.702 165.74H111.722C111.698 165.26 111.554 164.912 111.302 164.588C110.882 164.048 110.126 163.772 109.298 163.772C108.542 163.772 107.846 164.06 107.45 164.468C107.174 164.744 106.958 165.14 106.958 165.632C106.958 166.028 107.078 166.4 107.318 166.676C107.582 166.964 107.966 167.168 108.434 167.24L109.982 167.468C110.63 167.564 110.882 167.912 110.882 168.308C110.882 168.584 110.75 168.8 110.582 168.932C110.27 169.196 109.814 169.28 109.394 169.28C108.914 169.28 108.506 169.196 108.218 168.98C107.93 168.764 107.702 168.464 107.69 168.044H106.67C106.67 168.56 106.898 169.088 107.27 169.448C107.81 169.976 108.518 170.156 109.346 170.156C110.174 170.156 110.954 169.928 111.422 169.448C111.71 169.148 111.902 168.764 111.902 168.236ZM126.989 170V169.136H124.865V161.336H121.877V162.188H123.833V169.136H121.697V170H126.989ZM169.706 170.012V168.2H167.93V170.012H169.706ZM177.255 162.776V161.336H175.803V162.776H177.255ZM179.307 170V169.124H177.099V163.928H174.111V164.792H176.067V169.124H173.871V170H179.307ZM186.196 170V161.336H185.176V164.636C184.84 164.132 184.144 163.772 183.388 163.772C182.644 163.772 182.056 164.084 181.66 164.456C181.048 165.044 180.724 165.932 180.724 166.976C180.724 167.984 181.024 168.86 181.6 169.448C181.996 169.856 182.62 170.156 183.364 170.156C184.048 170.156 184.876 169.82 185.224 169.208L185.296 170H186.196ZM185.236 166.964C185.236 167.72 185.056 168.44 184.552 168.884C184.312 169.1 183.976 169.268 183.532 169.268C183.028 169.268 182.668 169.1 182.404 168.836C181.948 168.38 181.768 167.672 181.768 166.964C181.768 166.256 181.96 165.584 182.416 165.128C182.68 164.864 183.028 164.66 183.532 164.66C183.976 164.66 184.312 164.828 184.552 165.044C185.056 165.488 185.236 166.208 185.236 166.964ZM221.796 170.012V168.2H220.02V170.012H221.796ZM226.561 164.516C225.901 165.164 225.625 166.004 225.625 166.964C225.625 167.924 225.901 168.764 226.561 169.412C227.005 169.844 227.689 170.156 228.457 170.156C229.177 170.156 229.813 169.916 230.233 169.508C230.641 169.112 230.953 168.608 231.001 167.948H229.981C229.933 168.368 229.717 168.656 229.489 168.884C229.249 169.112 228.853 169.268 228.457 169.268C227.977 169.268 227.593 169.064 227.329 168.824C226.813 168.356 226.669 167.624 226.669 166.964C226.669 166.304 226.813 165.56 227.329 165.092C227.593 164.852 227.977 164.66 228.457 164.66C228.853 164.66 229.249 164.816 229.489 165.044C229.717 165.272 229.921 165.56 229.969 165.98H231.001C230.953 165.32 230.653 164.828 230.245 164.432C229.825 164.024 229.177 163.772 228.457 163.772C227.689 163.772 227.005 164.084 226.561 164.516ZM238.25 170V163.928H237.218V167.456C237.218 168.464 236.51 169.232 235.646 169.232C234.686 169.232 234.302 168.692 234.302 167.78V163.928H233.27V167.924C233.27 169.28 234.134 170.156 235.406 170.156C236.09 170.156 236.954 169.784 237.266 169.088L237.35 170H238.25ZM245.848 168.236C245.848 167.216 245.056 166.688 244.324 166.58L242.68 166.328C242.176 166.244 241.876 166.028 241.876 165.572C241.876 165.332 241.996 165.116 242.212 164.936C242.488 164.72 242.872 164.636 243.244 164.636C243.652 164.636 244.036 164.768 244.288 164.996C244.468 165.152 244.636 165.428 244.648 165.74H245.668C245.644 165.26 245.5 164.912 245.248 164.588C244.828 164.048 244.072 163.772 243.244 163.772C242.488 163.772 241.792 164.06 241.396 164.468C241.12 164.744 240.904 165.14 240.904 165.632C240.904 166.028 241.024 166.4 241.264 166.676C241.528 166.964 241.912 167.168 242.38 167.24L243.928 167.468C244.576 167.564 244.828 167.912 244.828 168.308C244.828 168.584 244.696 168.8 244.528 168.932C244.216 169.196 243.76 169.28 243.34 169.28C242.86 169.28 242.452 169.196 242.164 168.98C241.876 168.764 241.648 168.464 241.636 168.044H240.616C240.616 168.56 240.844 169.088 241.216 169.448C241.756 169.976 242.464 170.156 243.292 170.156C244.12 170.156 244.9 169.928 245.368 169.448C245.656 169.148 245.848 168.764 245.848 168.236ZM253.217 169.7V168.8C252.713 169.028 252.281 169.208 251.681 169.208C250.973 169.208 250.601 168.764 250.601 168.116V164.804H253.145V163.928H250.601V162.032L249.581 162.356V163.928H247.685V164.804H249.581V168.212C249.581 169.184 250.169 170.132 251.537 170.132C252.245 170.132 252.773 169.952 253.217 169.7ZM260.971 166.952C260.971 165.992 260.683 165.152 260.023 164.504C259.579 164.072 258.895 163.772 258.127 163.772C257.359 163.772 256.651 164.072 256.207 164.504C255.547 165.152 255.259 166.004 255.259 166.964C255.259 167.924 255.547 168.776 256.207 169.424C256.651 169.856 257.359 170.156 258.127 170.156C258.895 170.156 259.579 169.856 260.023 169.424C260.683 168.776 260.971 167.912 260.971 166.952ZM259.927 166.964C259.927 167.624 259.759 168.368 259.243 168.836C258.979 169.076 258.595 169.268 258.115 169.268C257.635 169.268 257.251 169.076 256.987 168.836C256.471 168.368 256.303 167.612 256.303 166.952C256.303 166.292 256.471 165.56 256.987 165.092C257.251 164.852 257.635 164.66 258.115 164.66C258.595 164.66 258.979 164.852 259.243 165.092C259.759 165.56 259.927 166.304 259.927 166.964ZM268.808 170V165.404C268.808 164.588 268.364 163.772 267.296 163.772C266.648 163.772 266.156 164.096 265.868 164.576C265.748 164.24 265.316 163.772 264.68 163.772C264.02 163.772 263.564 164.12 263.36 164.516L263.264 163.928H262.436V170H263.444V166.292C263.444 165.356 263.72 164.672 264.392 164.672C264.992 164.672 265.184 165.128 265.184 165.764V170H266.144V166.412C266.144 165.8 266.204 165.26 266.504 164.948C266.648 164.804 266.816 164.672 267.068 164.672C267.68 164.672 267.8 165.152 267.8 165.692V170H268.808ZM275.793 167.288V166.928C275.793 165.98 275.493 165.092 274.917 164.504C274.485 164.06 273.813 163.772 273.045 163.772C272.229 163.772 271.581 164.084 271.113 164.552C270.525 165.152 270.213 166.04 270.213 166.988C270.213 167.852 270.465 168.728 271.113 169.364C271.593 169.832 272.253 170.156 273.033 170.156C274.305 170.156 275.349 169.436 275.637 168.176H274.653C274.569 168.464 274.365 168.74 274.149 168.908C273.849 169.148 273.573 169.268 273.033 169.268C272.553 169.268 272.157 169.088 271.869 168.812C271.437 168.404 271.257 167.816 271.257 167.288H275.793ZM274.713 166.448H271.293C271.317 165.728 271.869 164.648 273.033 164.648C273.513 164.648 273.897 164.828 274.197 165.14C274.509 165.464 274.701 165.932 274.713 166.448ZM283.535 165.98C283.535 165.548 283.439 165.08 283.151 164.66C282.815 164.18 282.239 163.772 281.423 163.772C280.667 163.772 279.887 164.108 279.503 164.84L279.419 163.928H278.519V170H279.551V167.3C279.551 166.808 279.623 166.184 279.815 165.728C280.055 165.164 280.595 164.696 281.207 164.696C281.651 164.696 281.963 164.864 282.167 165.092C282.383 165.332 282.491 165.644 282.491 165.98H283.535ZM290.856 170.948V170H284.916V170.948H290.856ZM296.318 162.776V161.336H294.866V162.776H296.318ZM298.37 170V169.124H296.162V163.928H293.174V164.792H295.13V169.124H292.934V170H298.37ZM305.259 170V161.336H304.239V164.636C303.903 164.132 303.207 163.772 302.451 163.772C301.707 163.772 301.119 164.084 300.723 164.456C300.111 165.044 299.787 165.932 299.787 166.976C299.787 167.984 300.087 168.86 300.663 169.448C301.059 169.856 301.683 170.156 302.427 170.156C303.111 170.156 303.939 169.82 304.287 169.208L304.359 170H305.259ZM304.299 166.964C304.299 167.72 304.119 168.44 303.615 168.884C303.375 169.1 303.039 169.268 302.595 169.268C302.091 169.268 301.731 169.1 301.467 168.836C301.011 168.38 300.831 167.672 300.831 166.964C300.831 166.256 301.023 165.584 301.479 165.128C301.743 164.864 302.091 164.66 302.595 164.66C303.039 164.66 303.375 164.828 303.615 165.044C304.119 165.488 304.299 166.208 304.299 166.964ZM311.056 165.668V163.928H309.352V165.668H311.056ZM311.116 170.012V168.272H309.352V170.012H310.252C310.252 170.864 310.072 171.308 309.292 171.644L309.676 172.34C310.768 171.884 311.116 171.116 311.116 170.012Z" fill="#8182A3"></path>
<path d="M82.0648 125.856L81.7648 124.908L79.9168 125.628L80.0368 123.648H79.0408L79.1368 125.628L77.3008 124.908L76.9888 125.856L78.8968 126.348L77.6488 127.872L78.4528 128.472L79.5208 126.804L80.6008 128.472L81.4048 127.896L80.1568 126.348L82.0648 125.856ZM268.448 146.896V145.948H262.664V146.896H268.448ZM268.448 149.392V148.444H262.664V149.392H268.448ZM201.475 165.896V164.948H195.691V165.896H201.475ZM201.475 168.392V167.444H195.691V168.392H201.475Z" fill="#F349D8"></path>
<defs>
<linearGradient id="paint0_linear" x1="109.068" y1="84.4809" x2="48.7389" y2="68.984" gradientUnits="userSpaceOnUse">
<stop offset="0.0260417" stop-color="#4512C7"></stop>
<stop offset="0.53125" stop-color="#59C3FF"></stop>
<stop offset="1" stop-color="#75FF86"></stop>
</linearGradient>
<linearGradient id="paint1_linear" x1="109.068" y1="74.0644" x2="55.9148" y2="49.7122" gradientUnits="userSpaceOnUse">
<stop offset="0.0260417" stop-color="#4512C7"></stop>
<stop offset="0.53125" stop-color="#59C3FF"></stop>
<stop offset="1" stop-color="#75FF86"></stop>
</linearGradient>
<linearGradient id="paint2_linear" x1="109.068" y1="78.8408" x2="55.9154" y2="54.4881" gradientUnits="userSpaceOnUse">
<stop offset="0.0260417" stop-color="#4512C7"></stop>
<stop offset="0.53125" stop-color="#59C3FF"></stop>
<stop offset="1" stop-color="#75FF86"></stop>
</linearGradient>
<linearGradient id="paint3_linear" x1="196.863" y1="84.4809" x2="136.534" y2="68.984" gradientUnits="userSpaceOnUse">
<stop stop-color="#4512C7"></stop>
<stop offset="0.755208" stop-color="#59C3FF"></stop>
</linearGradient>
<linearGradient id="paint4_linear" x1="196.863" y1="74.0644" x2="143.71" y2="49.7122" gradientUnits="userSpaceOnUse">
<stop stop-color="#4512C7"></stop>
<stop offset="0.755208" stop-color="#59C3FF"></stop>
</linearGradient>
<linearGradient id="paint5_linear" x1="196.863" y1="78.8408" x2="143.71" y2="54.4881" gradientUnits="userSpaceOnUse">
<stop stop-color="#4512C7"></stop>
<stop offset="0.755208" stop-color="#59C3FF"></stop>
</linearGradient>
<linearGradient id="paint6_linear" x1="205.71" y1="222.218" x2="100.239" y2="-44.0235" gradientUnits="userSpaceOnUse">
<stop offset="0.0260417" stop-color="#4512C7"></stop>
<stop offset="0.53125" stop-color="#59C3FF"></stop>
<stop offset="1" stop-color="#75FF86"></stop>
</linearGradient>
<linearGradient id="paint7_linear" x1="217.363" y1="273.517" x2="282.109" y2="256.591" gradientUnits="userSpaceOnUse">
<stop stop-color="#5A34CB"></stop>
<stop offset="1" stop-color="#B634CB"></stop>
</linearGradient>
<linearGradient id="paint8_linear" x1="311.965" y1="809.364" x2="-12.1622" y2="782.114" gradientUnits="userSpaceOnUse">
<stop offset="0.0260417" stop-color="#4512C7"></stop>
<stop offset="0.53125" stop-color="#59C3FF"></stop>
<stop offset="1" stop-color="#75FF86"></stop>
</linearGradient>
<linearGradient id="paint9_linear" x1="253.176" y1="460.87" x2="384.989" y2="444.657" gradientUnits="userSpaceOnUse">
<stop stop-color="#5C29F1"></stop>
<stop offset="0.473958" stop-color="#E37AC2"></stop>
<stop offset="0.807292" stop-color="#FF9067"></stop>
</linearGradient>
<linearGradient id="paint10_linear" x1="253.972" y1="62.0099" x2="230.872" y2="53.3289" gradientUnits="userSpaceOnUse">
<stop stop-color="#5C29F1"></stop>
<stop offset="1" stop-color="#E37AC2"></stop>
</linearGradient>
<linearGradient id="paint11_linear" x1="253.972" y1="61.4652" x2="235.782" y2="49.2728" gradientUnits="userSpaceOnUse">
<stop stop-color="#5C29F1"></stop>
<stop offset="1" stop-color="#E37AC2"></stop>
</linearGradient>
<linearGradient id="paint12_linear" x1="253.972" y1="66.242" x2="235.782" y2="54.0495" gradientUnits="userSpaceOnUse">
<stop stop-color="#5C29F1"></stop>
<stop offset="1" stop-color="#E37AC2"></stop>
</linearGradient>
<linearGradient id="paint13_linear" x1="340.972" y1="62.0099" x2="317.872" y2="53.3289" gradientUnits="userSpaceOnUse">
<stop offset="0.473958" stop-color="#E37AC2"></stop>
<stop offset="0.807292" stop-color="#FF9067"></stop>
</linearGradient>
<linearGradient id="paint14_linear" x1="340.972" y1="61.4652" x2="322.782" y2="49.2728" gradientUnits="userSpaceOnUse">
<stop offset="0.473958" stop-color="#E37AC2"></stop>
<stop offset="0.807292" stop-color="#FF9067"></stop>
</linearGradient>
<linearGradient id="paint15_linear" x1="340.972" y1="66.242" x2="322.782" y2="54.0495" gradientUnits="userSpaceOnUse">
<stop offset="0.473958" stop-color="#E37AC2"></stop>
<stop offset="0.807292" stop-color="#FF9067"></stop>
</linearGradient>
<linearGradient id="paint16_linear" x1="-108.759" y1="328.072" x2="217.907" y2="473.446" gradientUnits="userSpaceOnUse">
<stop stop-color="#AD00FF"></stop>
<stop offset="1" stop-color="#3901E1"></stop>
</linearGradient>
<linearGradient id="paint17_linear" x1="16.1532" y1="274.654" x2="28.3229" y2="277.24" gradientUnits="userSpaceOnUse">
<stop stop-color="#AD00FF"></stop>
<stop offset="1" stop-color="#7648FF"></stop>
</linearGradient>
<linearGradient id="paint18_linear" x1="35.1532" y1="274.654" x2="47.3229" y2="277.24" gradientUnits="userSpaceOnUse">
<stop stop-color="#AD00FF"></stop>
<stop offset="1" stop-color="#7648FF"></stop>
</linearGradient>
<linearGradient id="paint19_linear" x1="53.1532" y1="274.654" x2="65.3229" y2="277.24" gradientUnits="userSpaceOnUse">
<stop stop-color="#AD00FF"></stop>
<stop offset="1" stop-color="#7648FF"></stop>
</linearGradient>
<linearGradient id="paint20_linear" x1="150.694" y1="421.415" x2="136.538" y2="374.45" gradientUnits="userSpaceOnUse">
<stop offset="0.0260417" stop-color="#4512C7"></stop>
<stop offset="0.53125" stop-color="#59C3FF"></stop>
<stop offset="1" stop-color="#75FF86"></stop>
</linearGradient>
<linearGradient id="paint21_linear" x1="300.4" y1="417.793" x2="298.925" y2="403.592" gradientUnits="userSpaceOnUse">
<stop stop-color="#5C29F1"></stop>
<stop offset="0.473958" stop-color="#E37AC2"></stop>
<stop offset="0.807292" stop-color="#FF9067"></stop>
</linearGradient>
<linearGradient id="paint22_linear" x1="113.311" y1="400.955" x2="70.0924" y2="290.24" gradientUnits="userSpaceOnUse">
<stop offset="0.0260417" stop-color="#4512C7"></stop>
<stop offset="0.53125" stop-color="#59C3FF"></stop>
<stop offset="1" stop-color="#75FF86"></stop>
</linearGradient>
<linearGradient id="paint23_linear" x1="657.826" y1="473.651" x2="212.311" y2="36.2718" gradientUnits="userSpaceOnUse">
<stop offset="0.0260417" stop-color="#4512C7"></stop>
<stop offset="0.53125" stop-color="#59C3FF"></stop>
<stop offset="1" stop-color="#75FF86"></stop>
</linearGradient>
<linearGradient id="paint24_linear" x1="251.29" y1="401.788" x2="122.705" y2="229.925" gradientUnits="userSpaceOnUse">
<stop stop-color="#5C29F1"></stop>
<stop offset="0.473958" stop-color="#E37AC2"></stop>
<stop offset="0.807292" stop-color="#FF9067"></stop>
</linearGradient>
<linearGradient id="paint25_linear" x1="-101.57" y1="136.814" x2="107.109" y2="327.834" gradientUnits="userSpaceOnUse">
<stop stop-color="#AD00FF"></stop>
<stop offset="1" stop-color="#3901E1"></stop>
</linearGradient>
</defs>
</svg>