<svg width="401" height="446" fill="none" xmlns="http://www.w3.org/2000/svg"><circle opacity=".4" cx="195.711" cy="196" r="3" fill="#612DD3"/><circle opacity=".4" cx="154.711" cy="205" r="3" fill="#612DD3"/><circle opacity=".4" cx="232.583" cy="103.872" r="2.872" fill="#612DD3"/><circle opacity=".4" cx="183.542" cy="87.972" r="2.872" fill="#612DD3"/><circle opacity=".4" cx="140.462" cy="87.972" r="2.872" fill="#612DD3"/><circle opacity=".4" cx="226.624" cy="201.898" r="2.872" fill="#612DD3"/><circle opacity=".4" cx="209.392" cy="188.495" r="2.872" fill="#612DD3"/><circle opacity=".4" cx="191.202" cy="235.405" r="2.872" fill="#612DD3"/><circle cx="119.399" cy="91.802" r=".957" fill="#612DD3" style="mix-blend-mode:screen" opacity=".4"/><circle cx="67.704" cy="97.546" r=".957" fill="#612DD3" style="mix-blend-mode:screen" opacity=".4"/><circle cx="182.584" cy="201.898" r=".957" fill="#612DD3" style="mix-blend-mode:screen" opacity=".4"/><circle cx="269.705" cy="92.759" r=".957" fill="#612DD3" style="mix-blend-mode:screen" opacity=".4"/><circle cx="337.676" cy="62.124" r=".957" fill="#612DD3" style="mix-blend-mode:screen" opacity=".4"/><circle cx="305.127" cy="71.697" r=".957" fill="#612DD3" style="mix-blend-mode:screen" opacity=".4"/><circle cx="189.583" cy="214.872" r="2.872" fill="#612DD3" style="mix-blend-mode:screen" opacity=".4"/><circle cx="221.711" cy="183" r="3" fill="#612DD3" style="mix-blend-mode:screen" opacity=".4"/><path d="m63.363 44.155 11.924 5.665a.784.784 0 0 0 .671 0l11.926-5.665a.782.782 0 0 0 0-1.413L75.96 37.076a.78.78 0 0 0-.672 0l-11.924 5.666a.782.782 0 0 0 0 1.413Zm12.26-5.506 10.102 4.8-10.102 4.798-10.101-4.799 10.1-4.8Z" fill="url(#a)"/><path d="M88.256 47.89a.783.783 0 0 0-1.043-.372l-11.59 5.506-11.588-5.506a.783.783 0 0 0-.672 1.414l11.924 5.666a.786.786 0 0 0 .672 0l11.925-5.666a.783.783 0 0 0 .372-1.043Z" fill="url(#b)"/><path d="M88.256 52.666a.783.783 0 0 0-1.043-.37L75.623 57.8l-11.588-5.506a.783.783 0 1 0-.672 1.414l11.924 5.666a.786.786 0 0 0 .672 0l11.925-5.666a.783.783 0 0 0 .372-1.043Z" fill="url(#c)"/><path d="M41.34 13.11a7.474 7.474 0 0 1-2.372-.363v-1.516a7.883 7.883 0 0 0 2.367.38c.57-.001.974-.087 1.212-.26.237-.176.356-.42.356-.735 0-.264-.088-.47-.264-.62-.173-.15-.496-.285-.971-.408l-.644-.167c-.746-.187-1.31-.478-1.688-.873-.38-.398-.569-.923-.569-1.574 0-.808.293-1.44.879-1.895.59-.46 1.476-.69 2.66-.69.382 0 .746.024 1.09.07.35.042.657.101.926.178v1.516a6.47 6.47 0 0 0-1.913-.264c-.666 0-1.132.092-1.396.275-.26.18-.39.418-.39.713 0 .249.076.446.23.591.152.142.44.268.86.38l.638.166c.828.203 1.434.504 1.821.902.39.398.586.923.586 1.574 0 .816-.3 1.457-.902 1.924-.6.463-1.44.695-2.516.695Zm6.738-.11V6.05h-2.683V4.499h7.232v1.55H49.95V13h-1.872Zm6.02 0V4.688c.384-.084.805-.153 1.264-.207.46-.057.925-.086 1.396-.086 1.218 0 2.135.222 2.752.667.62.444.93 1.133.93 2.067 0 .61-.15 1.12-.448 1.534-.299.41-.72.716-1.264.92L61.141 13h-2.04l-2.17-3.12h-.098c-.172 0-.33-.001-.471-.005l-.431-.023V13h-1.832Zm2.77-4.51c.616 0 1.073-.104 1.372-.315.299-.215.448-.563.448-1.046 0-.474-.143-.819-.43-1.033-.284-.219-.72-.328-1.31-.328-.196 0-.376.01-.54.029a5.978 5.978 0 0 0-.477.063v2.585a9.113 9.113 0 0 0 .936.046ZM62.65 13V4.499h5.968v1.493h-4.124v1.913h3.538v1.493h-3.538v2.109h4.182V13H62.65Zm6.938 0 2.746-8.501h2.717L77.797 13H75.96l-.7-2.269h-3.154L71.404 13h-1.815Zm2.975-3.757H74.8L73.68 5.63l-1.115 3.613ZM79.297 13V4.499h2.269l2.366 5.365 2.304-5.365h2.268V13h-1.74V6.974l-2.097 4.797h-1.533l-2.097-4.647V13h-1.74Zm11.39 0V4.499h1.867V13h-1.867Zm4.031 0V4.499h1.873l3.705 5.698V4.499h1.757V13h-1.878l-3.7-5.698V13h-1.757Zm14.067.098c-1.616 0-2.83-.353-3.641-1.057-.808-.709-1.212-1.8-1.212-3.274 0-1.463.413-2.558 1.24-3.286.828-.728 2.02-1.091 3.579-1.091.666 0 1.306.07 1.919.212v1.54a7.483 7.483 0 0 0-1.752-.213c-1.038 0-1.806.22-2.304.66-.494.44-.741 1.176-.741 2.206 0 .965.23 1.668.689 2.108.46.44 1.153.661 2.08.661.176 0 .352-.006.528-.017V8.864h1.741v4.044c-.368.061-.728.107-1.08.138-.349.034-.697.052-1.046.052Zm-46.55 12.988c-.357 0-.736-.011-1.138-.034-.402-.02-.8-.054-1.194-.104v-8.26a11.53 11.53 0 0 1 1.303-.207c.475-.05.939-.074 1.39-.074 1.544 0 2.708.352 3.493 1.057.789.704 1.183 1.8 1.183 3.285 0 1.52-.42 2.623-1.258 3.309-.835.685-2.094 1.028-3.78 1.028Zm.482-1.516c.885 0 1.545-.215 1.982-.644.44-.428.66-1.156.66-2.182 0-1.019-.222-1.745-.666-2.177-.44-.437-1.095-.655-1.964-.655-.31 0-.63.029-.96.086v5.531c.157.016.312.027.466.035.153.004.314.006.482.006Zm5.56 1.43 2.745-8.501h2.717L76.485 26h-1.838l-.701-2.269h-3.154l-.7 2.269h-1.816Zm2.975-3.757h2.234l-1.12-3.613-1.114 3.613ZM78.956 26v-6.95h-2.683v-1.551h7.232v1.55h-2.677V26h-1.872Zm4.338 0 2.746-8.501h2.717L91.503 26h-1.838l-.701-2.269H85.81L85.11 26h-1.816Zm2.976-3.757h2.234l-1.12-3.613-1.114 3.613ZM217.513 13V4.499h1.867V7.83h3.504V4.5h1.867V13h-1.867V9.473h-3.504V13h-1.867Zm9.394 0V4.499h1.867V13h-1.867Zm6.157.11a7.47 7.47 0 0 1-2.372-.363v-1.516a7.878 7.878 0 0 0 2.366.38c.571-.001.975-.087 1.212-.26.238-.176.356-.42.356-.735 0-.264-.088-.47-.264-.62-.172-.15-.496-.285-.971-.408l-.643-.167c-.747-.187-1.31-.478-1.689-.873-.379-.398-.569-.923-.569-1.574 0-.808.293-1.44.879-1.895.59-.46 1.477-.69 2.66-.69.383 0 .747.024 1.091.07.349.042.657.101.925.178v1.516a6.472 6.472 0 0 0-1.913-.264c-.666 0-1.131.092-1.396.275-.26.18-.39.418-.39.713 0 .249.076.446.23.591.153.142.44.268.861.38l.638.166c.827.203 1.434.504 1.821.902.39.398.586.923.586 1.574 0 .816-.301 1.457-.902 1.924-.601.463-1.44.695-2.516.695Zm6.737-.11V6.05h-2.682V4.499h7.232v1.55h-2.677V13h-1.873Zm9.272.11c-.808 0-1.513-.158-2.114-.472-.601-.318-1.066-.798-1.396-1.442-.329-.643-.494-1.459-.494-2.447s.165-1.803.494-2.447c.334-.643.799-1.122 1.396-1.436.601-.318 1.306-.476 2.114-.476.808 0 1.513.158 2.114.476.601.314 1.066.795 1.396 1.442.329.643.494 1.457.494 2.441 0 .984-.167 1.8-.5 2.447-.329.644-.795 1.124-1.396 1.442-.601.314-1.304.471-2.108.471Zm0-1.506c.655 0 1.166-.216 1.534-.649.371-.437.557-1.158.557-2.165 0-1.046-.188-1.789-.563-2.23-.371-.443-.881-.665-1.528-.665-.651 0-1.162.216-1.534.649-.371.432-.557 1.154-.557 2.165 0 1.053.184 1.8.552 2.24.371.437.884.655 1.539.655ZM254.958 13V4.688a12.99 12.99 0 0 1 1.264-.207 11.24 11.24 0 0 1 1.396-.086c1.217 0 2.134.222 2.751.667.62.444.931 1.133.931 2.067 0 .61-.15 1.12-.449 1.534-.298.41-.719.716-1.263.92L262 13h-2.039l-2.171-3.12h-.098c-.172 0-.329-.001-.471-.005a97.15 97.15 0 0 0-.431-.023V13h-1.832Zm2.769-4.51c.616 0 1.074-.104 1.373-.315.298-.215.448-.563.448-1.046 0-.474-.144-.819-.431-1.033-.284-.219-.72-.328-1.31-.328-.195 0-.375.01-.54.029a6.014 6.014 0 0 0-.477.063v2.585a9.092 9.092 0 0 0 .937.046ZM263.51 13V4.499h1.867V13h-1.867Zm8.179.11c-.938 0-1.739-.15-2.401-.449a3.171 3.171 0 0 1-1.511-1.407c-.344-.64-.517-1.469-.517-2.487 0-1.463.393-2.558 1.178-3.286.785-.728 1.899-1.091 3.343-1.091.643 0 1.252.067 1.826.2v1.54a7.196 7.196 0 0 0-1.677-.201c-.915 0-1.597.218-2.045.655-.448.436-.672 1.156-.672 2.16 0 1.037.22 1.769.661 2.194.444.421 1.108.632 1.993.632.291 0 .58-.023.867-.07.288-.049.579-.116.873-.2v1.533a5.278 5.278 0 0 1-.907.201 6.76 6.76 0 0 1-1.011.075Zm2.903-.11 2.745-8.501h2.717L282.8 13h-1.838l-.701-2.269h-3.153L276.407 13h-1.815Zm2.975-3.757h2.235l-1.121-3.613-1.114 3.613ZM284.276 13V4.499h1.867v6.95h3.906V13h-5.773Zm-43.973 13.086c-.356 0-.735-.011-1.137-.034a15.34 15.34 0 0 1-1.195-.104v-8.26c.394-.088.829-.157 1.304-.207.475-.05.938-.074 1.39-.074 1.543 0 2.707.352 3.492 1.057.789.704 1.184 1.8 1.184 3.285 0 1.52-.42 2.623-1.258 3.309-.835.685-2.095 1.028-3.78 1.028Zm.482-1.516c.885 0 1.546-.215 1.982-.644.441-.428.661-1.156.661-2.182 0-1.019-.222-1.745-.667-2.177-.44-.437-1.095-.655-1.964-.655-.31 0-.63.029-.959.086v5.531c.157.016.312.027.465.035.153.004.314.006.482.006Zm5.56 1.43 2.745-8.501h2.717L254.553 26h-1.838l-.701-2.269h-3.153L248.16 26h-1.815Zm2.975-3.757h2.235l-1.121-3.613-1.114 3.613ZM257.024 26v-6.95h-2.682v-1.551h7.231v1.55h-2.676V26h-1.873Zm4.339 0 2.746-8.501h2.717L269.571 26h-1.838l-.701-2.269h-3.153L263.178 26h-1.815Zm2.975-3.757h2.235l-1.12-3.613-1.115 3.613Zm-106.985 3.843c-.356 0-.735-.011-1.137-.034a15.34 15.34 0 0 1-1.195-.104v-8.26c.394-.088.829-.157 1.304-.207.475-.05.938-.074 1.39-.074 1.543 0 2.707.352 3.492 1.057.789.704 1.184 1.8 1.184 3.285 0 1.52-.42 2.623-1.258 3.309-.835.685-2.095 1.028-3.78 1.028Zm.483-1.516c.884 0 1.545-.215 1.981-.644.441-.428.661-1.156.661-2.182 0-1.019-.222-1.745-.666-2.177-.441-.437-1.096-.655-1.965-.655-.31 0-.63.029-.959.086v5.531c.157.016.312.027.465.035.153.004.314.006.483.006Zm8.828 1.528c-.352 0-.748-.016-1.189-.046a18.9 18.9 0 0 1-1.206-.12v-8.244c.394-.084.831-.153 1.31-.207.482-.057.955-.086 1.418-.086 1.268 0 2.189.198 2.763.592.575.39.862.982.862 1.775 0 .444-.119.833-.356 1.166-.234.333-.571.563-1.011.69.494.099.883.317 1.166.654.287.333.431.781.431 1.344 0 .529-.136.979-.408 1.35-.272.368-.714.65-1.327.844-.613.192-1.43.288-2.453.288Zm.569-7.341c-.218 0-.421.01-.609.028a5.785 5.785 0 0 0-.534.07v2.102h1.223c.571 0 .973-.09 1.207-.27.233-.184.35-.46.35-.828 0-.386-.122-.666-.368-.838-.245-.176-.668-.264-1.269-.264Zm-.069 5.98c.747 0 1.26-.098 1.539-.294.284-.199.426-.501.426-.907s-.129-.705-.385-.896c-.253-.192-.67-.288-1.253-.288h-1.401v2.333a10.549 10.549 0 0 0 1.074.051Zm140.903-11.651c-.356 0-.735-.011-1.137-.034-.403-.02-.801-.054-1.195-.104v-8.26c.394-.088.829-.157 1.304-.207.475-.05.938-.074 1.39-.074 1.543 0 2.707.352 3.492 1.057.789.704 1.183 1.8 1.183 3.285 0 1.52-.419 2.623-1.257 3.309-.835.685-2.095 1.028-3.78 1.028Zm.482-1.516c.885 0 1.546-.215 1.982-.644.441-.428.661-1.156.661-2.182 0-1.019-.222-1.745-.667-2.177-.44-.437-1.095-.655-1.964-.655-.31 0-.63.028-.959.086v5.532c.157.015.312.026.465.034.153.004.314.006.482.006Zm5.56 1.43 2.745-8.501h2.717L322.317 13h-1.838l-.701-2.269h-3.154l-.7 2.269h-1.815Zm2.975-3.757h2.234l-1.12-3.613-1.114 3.613ZM324.788 13V6.05h-2.682V4.499h7.231v1.55h-2.676V13h-1.873Zm4.339 0 2.745-8.501h2.717L337.335 13h-1.838l-.701-2.269h-3.153L330.942 13h-1.815Zm2.975-3.757h2.235l-1.12-3.613-1.115 3.613Zm6.71 3.757V4.499h1.866v6.95h3.906V13h-5.772Zm6.545 0 2.745-8.501h2.717L353.565 13h-1.838l-.701-2.269h-3.153L347.172 13h-1.815Zm2.975-3.757h2.235l-1.121-3.613-1.114 3.613ZM355.041 13V4.499h1.867V7.83h.833l2.229-3.33h1.964l-2.745 4.112L362.181 13h-2.033l-2.413-3.527h-.827V13h-1.867Zm8.272 0V4.499h5.969v1.493h-4.125v1.913h3.539v1.493h-3.539v2.109h4.182V13h-6.026ZM328.74 28.527a7.29 7.29 0 0 1-1.505-2.694c-.306-1-.46-2.07-.46-3.21 0-1.142.154-2.212.46-3.212a7.29 7.29 0 0 1 1.505-2.694h1.913c-.709.874-1.22 1.795-1.534 2.763-.314.965-.471 2.013-.471 3.142 0 1.13.157 2.18.471 3.148.314.965.825 1.884 1.534 2.757h-1.913Zm5.077-2.418a7.48 7.48 0 0 1-2.373-.362v-1.516a7.878 7.878 0 0 0 2.367.38c.57-.001.974-.087 1.212-.26a.865.865 0 0 0 .356-.735c0-.264-.088-.47-.264-.62-.173-.15-.496-.285-.971-.408l-.643-.167c-.747-.187-1.31-.478-1.689-.873-.379-.398-.569-.923-.569-1.574 0-.808.293-1.44.879-1.895.59-.46 1.476-.69 2.66-.69.383 0 .746.024 1.091.07.349.042.657.1.925.178v1.516a6.47 6.47 0 0 0-1.913-.264c-.666 0-1.132.092-1.396.276-.26.18-.39.417-.39.712 0 .249.076.446.229.591.154.142.441.268.862.38l.638.166c.827.203 1.434.504 1.821.902.39.398.585.923.585 1.574 0 .816-.3 1.457-.901 1.924-.602.463-1.44.695-2.516.695Zm6.82 0c-.395 0-.779-.025-1.155-.075a7.413 7.413 0 0 1-1.057-.218V24.42a8.1 8.1 0 0 0 1.057.219c.379.053.739.08 1.08.08.613 0 1.059-.101 1.339-.304.279-.203.419-.5.419-.89 0-.376-.134-.663-.402-.862-.264-.203-.712-.305-1.344-.305h-1.247v-1.413h.965c.609 0 1.048-.098 1.316-.293.268-.195.402-.469.402-.821 0-.341-.123-.601-.368-.781-.241-.18-.624-.27-1.149-.27-.318 0-.645.026-.982.08a5.148 5.148 0 0 0-.936.236V17.7c.275-.092.607-.167.993-.224a7.754 7.754 0 0 1 1.126-.086c1.03 0 1.804.199 2.321.597.521.394.781.954.781 1.677 0 .479-.128.889-.385 1.23-.252.337-.605.572-1.057.706.552.119.975.35 1.27.695.299.34.448.789.448 1.344 0 .774-.285 1.379-.856 1.815-.567.437-1.426.655-2.579.655Zm4.06 2.418c.709-.873 1.218-1.792 1.528-2.757.314-.969.471-2.018.471-3.148 0-1.13-.157-2.177-.471-3.142-.31-.968-.819-1.89-1.528-2.762h1.913a7.29 7.29 0 0 1 1.505 2.694c.307.999.46 2.07.46 3.21a10.88 10.88 0 0 1-.46 3.211 7.29 7.29 0 0 1-1.505 2.694h-1.913Z" fill="#fff"/><path d="m151.158 44.155 11.924 5.665a.786.786 0 0 0 .671 0l11.926-5.665a.782.782 0 0 0 0-1.413l-11.925-5.666a.782.782 0 0 0-.672 0l-11.924 5.666a.782.782 0 0 0 0 1.413Zm12.26-5.506 10.102 4.8-10.102 4.798-10.101-4.799 10.101-4.8Z" fill="url(#d)"/><path d="M176.051 47.89a.783.783 0 0 0-1.043-.372l-11.59 5.506-11.588-5.506a.783.783 0 1 0-.672 1.414l11.924 5.666a.787.787 0 0 0 .671 0l11.926-5.666a.782.782 0 0 0 .372-1.043Z" fill="url(#e)"/><path d="M176.051 52.666a.783.783 0 0 0-1.043-.37l-11.59 5.505-11.588-5.506a.783.783 0 1 0-.672 1.414l11.924 5.666a.787.787 0 0 0 .671 0l11.926-5.666a.782.782 0 0 0 .372-1.043Z" fill="url(#f)"/><path class="dotted-path" d="M163.711 73v132.124c0 11.598 9.402 21 21 21s21 9.402 21 21V273" stroke="url(#g)" stroke-width="1.915" stroke-dasharray="4.79 4.79"/><path class="dotted-path" d="M251.711 74v129.739c0 12.426-10.074 22.5-22.5 22.5s-22.5 10.074-22.5 22.5V273" stroke="url(#h)" stroke-width="1.915" stroke-dasharray="4.79 4.79"/><path class="dotted-path" d="M77.71 73v114.827c0 21.149 17.146 38.294 38.295 38.294h61.985c15.862 0 28.721 12.858 28.721 28.72V273" stroke="url(#i)" stroke-width="1.915" stroke-dasharray="4.79 4.79"/><path class="dotted-path" d="M335.711 73v114.827c0 21.149-17.145 38.294-38.294 38.294h-61.985c-15.862 0-28.721 12.858-28.721 28.72V273" stroke="url(#j)" stroke-width="1.915" stroke-dasharray="4.79 4.79"/><path d="m238.158 44.155 11.924 5.665a.786.786 0 0 0 .671 0l11.926-5.665a.782.782 0 0 0 0-1.413l-11.925-5.666a.782.782 0 0 0-.672 0l-11.924 5.666a.782.782 0 0 0 0 1.413Zm12.26-5.506 10.102 4.8-10.102 4.798-10.101-4.799 10.101-4.8Z" fill="#111"/><path d="m238.158 44.155 11.924 5.665a.786.786 0 0 0 .671 0l11.926-5.665a.782.782 0 0 0 0-1.413l-11.925-5.666a.782.782 0 0 0-.672 0l-11.924 5.666a.782.782 0 0 0 0 1.413Zm12.26-5.506 10.102 4.8-10.102 4.798-10.101-4.799 10.101-4.8Z" fill="url(#k)"/><path d="M263.051 47.89a.783.783 0 0 0-1.043-.372l-11.59 5.506-11.588-5.506a.783.783 0 1 0-.672 1.414l11.924 5.666a.787.787 0 0 0 .671 0l11.926-5.666a.782.782 0 0 0 .372-1.043Z" fill="#111"/><path d="M263.051 47.89a.783.783 0 0 0-1.043-.372l-11.59 5.506-11.588-5.506a.783.783 0 1 0-.672 1.414l11.924 5.666a.787.787 0 0 0 .671 0l11.926-5.666a.782.782 0 0 0 .372-1.043Z" fill="url(#l)"/><path d="M263.051 52.666a.783.783 0 0 0-1.043-.37l-11.59 5.505-11.588-5.506a.783.783 0 1 0-.672 1.414l11.924 5.666a.787.787 0 0 0 .671 0l11.926-5.666a.782.782 0 0 0 .372-1.043Z" fill="#111"/><path d="M263.051 52.666a.783.783 0 0 0-1.043-.37l-11.59 5.505-11.588-5.506a.783.783 0 1 0-.672 1.414l11.924 5.666a.787.787 0 0 0 .671 0l11.926-5.666a.782.782 0 0 0 .372-1.043Z" fill="url(#m)"/><path d="m325.158 44.155 11.924 5.665a.786.786 0 0 0 .671 0l11.926-5.665a.782.782 0 0 0 0-1.413l-11.925-5.666a.782.782 0 0 0-.672 0l-11.924 5.666a.782.782 0 0 0 0 1.413Zm12.26-5.506 10.102 4.8-10.102 4.798-10.101-4.799 10.101-4.8Z" fill="#111"/><path d="m325.158 44.155 11.924 5.665a.786.786 0 0 0 .671 0l11.926-5.665a.782.782 0 0 0 0-1.413l-11.925-5.666a.782.782 0 0 0-.672 0l-11.924 5.666a.782.782 0 0 0 0 1.413Zm12.26-5.506 10.102 4.8-10.102 4.798-10.101-4.799 10.101-4.8Z" fill="url(#n)"/><path d="M350.051 47.89a.783.783 0 0 0-1.043-.372l-11.59 5.506-11.588-5.506a.783.783 0 1 0-.672 1.414l11.924 5.666a.787.787 0 0 0 .671 0l11.926-5.666a.782.782 0 0 0 .372-1.043Z" fill="#111"/><path d="M350.051 47.89a.783.783 0 0 0-1.043-.372l-11.59 5.506-11.588-5.506a.783.783 0 1 0-.672 1.414l11.924 5.666a.787.787 0 0 0 .671 0l11.926-5.666a.782.782 0 0 0 .372-1.043Z" fill="url(#o)"/><path d="M350.051 52.666a.783.783 0 0 0-1.043-.37l-11.59 5.505-11.588-5.506a.783.783 0 1 0-.672 1.414l11.924 5.666a.787.787 0 0 0 .671 0l11.926-5.666a.782.782 0 0 0 .372-1.043Z" fill="#111"/><path d="M350.051 52.666a.783.783 0 0 0-1.043-.37l-11.59 5.505-11.588-5.506a.783.783 0 1 0-.672 1.414l11.924 5.666a.787.787 0 0 0 .671 0l11.926-5.666a.782.782 0 0 0 .372-1.043Z" fill="url(#p)"/><path d="M82.654 335.59v-14.295l-5.032 3.549v-1.406l5.476-3.907h.909v16.059h-1.353Zm8.907.195c-.722 0-1.454-.061-2.197-.184a13.955 13.955 0 0 1-2.078-.498v-1.136a13.69 13.69 0 0 0 4.275.693c3.26 0 4.891-1.198 4.891-3.593 0-.729-.191-1.335-.573-1.818-.376-.491-1.01-.873-1.905-1.147s-2.118-.455-3.669-.541l-2.294-.13.563-7.857h8.517v1.104h-7.283l-.412 5.703 1.277.065c1.732.101 3.117.335 4.156.703 1.039.368 1.789.877 2.25 1.526.462.642.693 1.436.693 2.381 0 1.537-.523 2.709-1.569 3.517-1.039.808-2.586 1.212-4.642 1.212Zm8.608 3.138c.209-.584.379-1.136.509-1.655.129-.52.205-1.039.227-1.559-.31 0-.559-.09-.747-.27-.18-.181-.27-.419-.27-.714 0-.289.086-.52.259-.693.181-.18.426-.271.736-.271.325 0 .577.105.758.314.187.202.281.527.281.974 0 .714-.09 1.403-.27 2.067a9.547 9.547 0 0 1-.682 1.807h-.801Z" fill="#000"/><rect x="2.211" y="256.5" width="397" height="188" rx="10.162" fill="#000" stroke="url(#q)" stroke-width="3"/><circle cx="26.211" cy="276.18" r="5.625" stroke="url(#r)" stroke-width="1.749"/><circle cx="45.211" cy="276.18" r="5.625" stroke="url(#s)" stroke-width="1.749"/><circle cx="63.211" cy="276.18" r="5.625" stroke="url(#t)" stroke-width="1.749"/><path d="M36.962 402.044c-2.242 0-3.938-.394-5.087-1.184-1.148-.797-1.722-1.937-1.722-3.422 0-1.11.308-2.047.925-2.813.618-.774 1.481-1.367 2.59-1.781-1.015-.454-1.746-1.016-2.191-1.688-.445-.68-.668-1.473-.668-2.38 0-1.39.523-2.488 1.57-3.293 1.055-.805 2.548-1.207 4.478-1.207 1.906 0 3.387.387 4.442 1.16 1.055.774 1.582 1.844 1.582 3.212 0 2.078-1.078 3.563-3.235 4.453 1.391.43 2.387.993 2.99 1.688.608.696.913 1.543.913 2.544 0 1.429-.558 2.574-1.676 3.434-1.11.851-2.746 1.277-4.91 1.277Zm.54-9.447c.234.047.46.09.68.129 1.171-.445 2.02-.984 2.543-1.617.53-.633.797-1.414.797-2.344 0-1.086-.41-1.911-1.231-2.473-.82-.571-1.977-.856-3.47-.856-1.523 0-2.664.297-3.422.891-.758.586-1.137 1.387-1.137 2.403 0 .687.16 1.281.48 1.781.329.492.872.907 1.63 1.243.766.335 1.809.617 3.13.843Zm-5.908 4.689c0 1.18.457 2.074 1.371 2.684.923.609 2.263.914 4.02.914 1.68 0 2.954-.297 3.822-.891.867-.594 1.3-1.449 1.3-2.567 0-.992-.386-1.766-1.16-2.32-.766-.555-2.09-1.001-3.973-1.337a18.206 18.206 0 0 1-2.028-.468c-1.125.367-1.965.902-2.52 1.605a3.745 3.745 0 0 0-.832 2.38Zm13.74 4.547v-.808l5.65-6.505c1.04-1.204 1.762-2.216 2.168-3.036.407-.821.61-1.625.61-2.415 0-1.211-.352-2.101-1.055-2.672-.696-.57-1.762-.855-3.2-.855-1.586 0-3.047.242-4.383.726v-1.289a10.793 10.793 0 0 1 2.016-.516 15.057 15.057 0 0 1 2.426-.187c1.852 0 3.258.383 4.22 1.148.968.758 1.453 1.93 1.453 3.517a6.41 6.41 0 0 1-.293 1.945c-.196.617-.524 1.274-.985 1.969-.453.688-1.074 1.481-1.864 2.38l-4.664 5.344h8.978v1.254H45.335Zm16.983.211c-.774 0-1.563-.062-2.368-.187a13.927 13.927 0 0 1-2.262-.539v-1.231c1.57.5 3.11.75 4.618.75 1.844 0 3.188-.332 4.032-.996.844-.672 1.266-1.622 1.266-2.848 0-1.11-.383-1.962-1.15-2.555-.757-.602-1.933-.903-3.527-.903h-2.555v-1.219h1.195c1.758 0 3.099-.293 4.02-.879.923-.586 1.384-1.485 1.384-2.696 0-1.023-.375-1.82-1.126-2.391-.75-.578-1.832-.867-3.246-.867-.696 0-1.41.055-2.145.164a13 13 0 0 0-2.18.504v-1.231c1.375-.429 2.848-.644 4.419-.644 1.836 0 3.25.39 4.242 1.172.993.773 1.489 1.844 1.489 3.211 0 1.039-.3 1.911-.903 2.614-.593.695-1.394 1.199-2.402 1.512 1.266.25 2.235.738 2.907 1.465.671.727 1.007 1.664 1.007 2.813 0 1.539-.539 2.754-1.617 3.645-1.078.891-2.778 1.336-5.098 1.336Zm9.568-.211v-18.94h1.453v11.814h2.802l4.934-5.567h1.688l-5.415 6.177 5.79 6.516h-1.7l-5.286-5.86h-2.813v5.86h-1.453Zm142.133 0v-.808l5.649-6.505c1.039-1.204 1.762-2.216 2.168-3.036.407-.821.61-1.625.61-2.415 0-1.211-.352-2.101-1.055-2.672-.695-.57-1.762-.855-3.2-.855-1.586 0-3.047.242-4.383.726v-1.289a10.792 10.792 0 0 1 2.016-.516 15.045 15.045 0 0 1 2.426-.187c1.852 0 3.258.383 4.219 1.148.969.758 1.454 1.93 1.454 3.517a6.42 6.42 0 0 1-.293 1.945c-.196.617-.524 1.274-.985 1.969-.453.688-1.074 1.481-1.863 2.38l-4.665 5.344h8.978v1.254h-11.076Zm17.275.211c-.781 0-1.574-.066-2.379-.199a15.383 15.383 0 0 1-2.25-.539v-1.231c1.531.5 3.074.75 4.629.75 3.532 0 5.298-1.297 5.298-3.891 0-.789-.207-1.446-.621-1.969-.407-.531-1.094-.946-2.063-1.242-.969-.297-2.293-.493-3.973-.586l-2.485-.141.609-8.509h9.224v1.195h-7.888l-.445 6.177 1.383.07c1.875.11 3.376.364 4.501.762 1.125.399 1.938.95 2.438 1.653.5.695.75 1.555.75 2.578 0 1.665-.567 2.934-1.7 3.81-1.125.875-2.801 1.312-5.028 1.312Zm9.089 3.399c.227-.633.41-1.23.551-1.793a8.328 8.328 0 0 0 .246-1.688c-.336 0-.605-.097-.809-.293-.195-.195-.293-.453-.293-.773 0-.313.094-.563.282-.751.195-.195.461-.293.797-.293.351 0 .625.114.82.34.203.219.305.571.305 1.055 0 .774-.098 1.52-.293 2.239a10.326 10.326 0 0 1-.738 1.957h-.868Zm10.553-3.399c-1.305 0-2.445-.293-3.422-.879-.977-.586-1.735-1.527-2.274-2.824-.539-1.305-.809-3.032-.809-5.181s.266-3.872.797-5.169c.532-1.305 1.282-2.25 2.251-2.836.976-.586 2.129-.879 3.457-.879 1.329 0 2.477.293 3.446.879.977.586 1.731 1.531 2.262 2.836.532 1.297.797 3.02.797 5.169 0 2.149-.269 3.876-.808 5.181-.54 1.297-1.298 2.238-2.274 2.824-.977.586-2.118.879-3.423.879Zm0-1.289c1.008 0 1.887-.227 2.637-.68.751-.453 1.333-1.227 1.747-2.321.422-1.101.633-2.621.633-4.559 0-1.961-.211-3.497-.633-4.606-.414-1.11-.996-1.891-1.747-2.344-.75-.453-1.629-.68-2.637-.68-1 0-1.879.227-2.637.68-.75.453-1.332 1.23-1.746 2.332-.414 1.094-.621 2.61-.621 4.548 0 1.961.207 3.496.621 4.606.414 1.11.996 1.891 1.746 2.344.75.453 1.629.68 2.637.68ZM267 402.044c-1.305 0-2.446-.293-3.422-.879-.977-.586-1.735-1.527-2.274-2.824-.539-1.305-.809-3.032-.809-5.181s.266-3.872.797-5.169c.531-1.305 1.281-2.25 2.25-2.836.977-.586 2.13-.879 3.458-.879 1.328 0 2.477.293 3.446.879.977.586 1.731 1.531 2.262 2.836.531 1.297.797 3.02.797 5.169 0 2.149-.27 3.876-.809 5.181-.539 1.297-1.297 2.238-2.274 2.824-.976.586-2.117.879-3.422.879Zm0-1.289c1.008 0 1.887-.227 2.637-.68.75-.453 1.332-1.227 1.746-2.321.422-1.101.633-2.621.633-4.559 0-1.961-.211-3.497-.633-4.606-.414-1.11-.996-1.891-1.746-2.344-.75-.453-1.629-.68-2.637-.68-1 0-1.879.227-2.637.68-.75.453-1.332 1.23-1.747 2.332-.414 1.094-.621 2.61-.621 4.548 0 1.961.207 3.496.621 4.606.415 1.11.997 1.891 1.747 2.344.75.453 1.629.68 2.637.68Zm16.065 1.289c-1.305 0-2.446-.293-3.423-.879-.977-.586-1.735-1.527-2.274-2.824-.539-1.305-.808-3.032-.808-5.181s.265-3.872.797-5.169c.531-1.305 1.281-2.25 2.25-2.836.977-.586 2.129-.879 3.458-.879 1.328 0 2.476.293 3.445.879.977.586 1.731 1.531 2.262 2.836.532 1.297.797 3.02.797 5.169 0 2.149-.269 3.876-.808 5.181-.539 1.297-1.297 2.238-2.274 2.824-.977.586-2.118.879-3.422.879Zm0-1.289c1.008 0 1.887-.227 2.637-.68.75-.453 1.332-1.227 1.746-2.321.422-1.101.633-2.621.633-4.559 0-1.961-.211-3.497-.633-4.606-.414-1.11-.996-1.891-1.746-2.344-.75-.453-1.629-.68-2.637-.68-1.001 0-1.88.227-2.638.68-.75.453-1.332 1.23-1.746 2.332-.414 1.094-.621 2.61-.621 4.548 0 1.961.207 3.496.621 4.606.414 1.11.996 1.891 1.746 2.344.751.453 1.63.68 2.638.68Z" fill="#fff"/><path fill="#2A254A" d="M28.711 411.699h155.071v2.639H28.711zm191.758.977H375.54v2.639H220.469z"/><path fill="url(#u)" d="M28.711 411.699h67.174v2.639H28.711z"/><path fill="#111" d="M215.119 412.676h133.292v2.639H215.119z"/><path fill="url(#v)" d="M215.119 412.676h133.292v2.639H215.119z"/><path stroke="#2A2E5A" stroke-width=".977" d="M28.711 364.328H375.68M28.711 342.84H375.68M28.711 321.352H375.68M28.711 299.864H375.68M29.465 364.816v-64.463m57.625 64.463v-64.463m57.627 64.463v-64.463m57.627 64.463v-64.463m57.627 64.463v-64.463m57.625 64.463v-64.463m57.627 64.463v-64.463"/><path d="m73.555 314.963-44.024 17.019v32.232h345.763v-41.023l-38.12-12.173a39.068 39.068 0 0 0-36.353 6.76l-21.757 17.478a39.067 39.067 0 0 1-41.105 4.892l-25.191-11.855a39.065 39.065 0 0 0-22.676-3.249l-33.985 5.318a39.063 39.063 0 0 1-20.127-2.159l-34.25-13.24a39.071 39.071 0 0 0-28.175 0Z" fill="url(#w)" fill-opacity=".5"/><path d="m29.95 331.982 44.023-17.019a39.071 39.071 0 0 1 28.175 0l34.25 13.24a39.063 39.063 0 0 0 20.127 2.159l33.985-5.318a39.065 39.065 0 0 1 22.676 3.249l25.191 11.855a39.067 39.067 0 0 0 41.105-4.892l21.757-17.478a39.068 39.068 0 0 1 36.353-6.76l38.119 12.173" stroke="url(#x)" stroke-width=".977"/><path d="m30.29 340.398 45.846-14.764a39.07 39.07 0 0 1 23.595-.113l31.165 9.707a39.069 39.069 0 0 0 31.552-3.7l18.396-10.913c14.492-8.597 32.863-6.934 45.575 4.126l19.093 16.609a39.069 39.069 0 0 0 36.897 7.937l35.757-10.757a39.067 39.067 0 0 1 20.21-.616l37.334 8.791" stroke="#111" stroke-width="1.953"/><path d="m30.29 340.398 45.846-14.764a39.07 39.07 0 0 1 23.595-.113l31.165 9.707a39.069 39.069 0 0 0 31.552-3.7l18.396-10.913c14.492-8.597 32.863-6.934 45.575 4.126l19.093 16.609a39.069 39.069 0 0 0 36.897 7.937l35.757-10.757a39.067 39.067 0 0 1 20.21-.616l37.334 8.791" stroke="url(#y)" stroke-width="1.953"/><circle cx="318.084" cy="300.115" r="4.121" fill="#fff" stroke="#39D7E1" stroke-width="1.953"/><path fill="#fff" d="M298.887 273h35.802v17.326h-35.802z"/><path fill="#fff" d="m317.445 287.651 2.476 2.476-2.476 2.477-2.476-2.477z"/><path d="M308.928 285.748v-.562l2.046-2.676c.342-.443.581-.817.718-1.123.14-.31.21-.606.21-.889 0-.427-.122-.734-.366-.923-.241-.192-.612-.288-1.114-.288a4.28 4.28 0 0 0-1.577.283v-.869c.211-.082.469-.147.771-.196.306-.052.608-.078.904-.078.778 0 1.374.158 1.787.474.417.316.625.817.625 1.504 0 .381-.079.758-.239 1.133-.156.374-.436.819-.84 1.333l-1.553 2.002h3.008v.875h-4.38Zm5.823.068a.732.732 0 0 1-.508-.176.64.64 0 0 1-.19-.488c0-.205.062-.368.185-.489.127-.12.298-.18.513-.18.215 0 .384.062.508.185a.646.646 0 0 1 .191.484.633.633 0 0 1-.191.483c-.127.121-.296.181-.508.181Zm3.755-7.389c.518 0 .972.116 1.362.347.394.228.7.597.919 1.108.218.508.327 1.181.327 2.017 0 1.355-.277 2.351-.83 2.989-.551.635-1.339.952-2.364.952a5.26 5.26 0 0 1-.713-.048 2.827 2.827 0 0 1-.65-.167v-.83c.199.078.412.135.64.171.231.036.459.054.684.054.726 0 1.274-.22 1.646-.659.371-.443.561-1.151.571-2.125a2.32 2.32 0 0 1-.742.367c-.29.087-.588.131-.894.131-.436 0-.824-.076-1.162-.229a1.79 1.79 0 0 1-.801-.699c-.192-.315-.288-.716-.288-1.201 0-.706.211-1.245.635-1.616.423-.375.976-.562 1.66-.562Zm.142 3.526c.241 0 .491-.037.752-.112a1.9 1.9 0 0 0 .693-.376c-.019-.573-.098-1.024-.234-1.353-.137-.329-.323-.56-.557-.694a1.56 1.56 0 0 0-.806-.205c-.381 0-.698.109-.952.328-.251.214-.376.559-.376 1.035 0 .478.133.828.4 1.05.271.218.63.327 1.08.327Zm3.52 3.795 2.5-6.354h-3.247v-.874h4.37v.561l-2.549 6.667h-1.074Z" fill="#000"/><rect x="7.211" y="103.5" width="389" height="88" rx="7.707" fill="#000" stroke="url(#z)" stroke-width="3"/><path d="M30.563 129.66c0-1.344-.924-2.208-2.34-2.412-.468-.072-.9-.156-1.38-.216-.636-.084-1.248-.432-1.248-1.2 0-.384.108-.66.324-.912.372-.42.864-.6 1.476-.6.66 0 1.152.228 1.476.6.24.276.384.624.408 1.044h1.116c-.024-.72-.288-1.344-.804-1.836-.564-.54-1.356-.792-2.184-.792-.888 0-1.608.288-2.196.84a2.323 2.323 0 0 0-.72 1.68c0 1.356.972 2.064 2.244 2.256l1.308.204c1.008.156 1.404.708 1.404 1.368 0 .456-.168.756-.432.996-.384.36-.912.492-1.56.492-.6 0-1.212-.144-1.596-.516-.348-.336-.588-.84-.588-1.344h-1.116c0 .804.348 1.536.888 2.04.576.528 1.38.804 2.412.804.912 0 1.812-.264 2.4-.84.42-.408.708-.948.708-1.656ZM37.98 132v-.984h-4.56v-2.94h3.444v-1.008H33.42v-2.592h4.56v-.984h-5.628V132h5.628Zm7.67 0v-.996h-4.392v-7.512H40.19V132h5.46Zm7.213 0v-.984h-4.56v-2.94h3.444v-1.008h-3.444v-2.592h4.56v-.984h-5.628V132h5.628Zm7.55-2.712h-1.104c-.024 1.092-.876 1.872-1.956 1.872-.576 0-1.044-.24-1.44-.648-.696-.72-.696-1.824-.696-2.76 0-.936 0-2.04.696-2.76.396-.408.864-.648 1.44-.648.588 0 1.092.228 1.44.612.264.276.468.732.492 1.2H60.4c-.072-1.668-1.404-2.82-3.048-2.82-.852 0-1.596.324-2.196.912-.96.936-1.044 2.244-1.044 3.504 0 1.26.084 2.568 1.044 3.504.6.588 1.344.912 2.196.912 1.656 0 2.988-1.224 3.06-2.88Zm7.657-4.8v-.996h-6.864v.996h2.892V132h1.092v-7.512h2.88Zm29.634-.012v-.984h-5.7V132h1.068v-3.744h3.672v-1.008h-3.672v-2.772h4.632Zm7.285 7.524-1.704-3.744c.408-.132.768-.336 1.02-.6.408-.432.648-.936.648-1.68 0-.744-.264-1.296-.672-1.728-.468-.48-1.164-.756-2.16-.756h-2.916V132h1.068v-3.54h1.944l1.608 3.54h1.164Zm-1.14-6.024c0 1.08-.72 1.488-1.728 1.488h-1.848v-2.988h1.848c1.008 0 1.728.42 1.728 1.5Zm8.689 1.776c0-1.356-.108-2.592-1.032-3.492-.612-.6-1.368-.924-2.22-.924-.852 0-1.608.324-2.22.924-.924.9-1.032 2.136-1.032 3.492 0 1.356.108 2.592 1.032 3.492.612.6 1.368.924 2.22.924.852 0 1.608-.324 2.22-.924.924-.9 1.032-2.136 1.032-3.492Zm-1.104 0c0 .888.024 2.028-.672 2.748-.408.42-.9.648-1.476.648s-1.068-.228-1.476-.648c-.696-.72-.672-1.86-.672-2.748 0-.888-.024-2.028.672-2.748.408-.42.9-.648 1.476-.648s1.068.228 1.476.648c.696.72.672 1.86.672 2.748Zm8.282 4.248v-8.508h-1.308l-1.656 4.752-1.692-4.752h-1.32V132h1.032v-6.684l1.476 4.104h.96l1.476-4.128V132h1.032Zm14.391 0v-8.664h-1.02v3.3c-.336-.504-1.032-.864-1.788-.864-.744 0-1.332.312-1.728.684-.612.588-.936 1.476-.936 2.52 0 1.008.3 1.884.876 2.472.396.408 1.02.708 1.764.708.684 0 1.512-.336 1.86-.948l.072.792h.9Zm-.96-3.036c0 .756-.18 1.476-.684 1.92-.24.216-.576.384-1.02.384-.504 0-.864-.168-1.128-.432-.456-.456-.636-1.164-.636-1.872 0-.708.192-1.38.648-1.836a1.507 1.507 0 0 1 1.116-.468c.444 0 .78.168 1.02.384.504.444.684 1.164.684 1.92Zm8.929.012c0-1.044-.312-1.956-.924-2.544a2.462 2.462 0 0 0-1.716-.66c-.756 0-1.476.36-1.812.864v-3.3h-1.02V132h.9l.072-.792c.348.612 1.176.948 1.86.948.744 0 1.356-.288 1.752-.696.576-.588.888-1.476.888-2.484Zm-1.044-.012c0 .708-.168 1.416-.624 1.872-.264.264-.636.432-1.14.432-.444 0-.78-.18-1.02-.396-.504-.444-.684-1.152-.684-1.908s.18-1.464.684-1.908c.24-.216.576-.396 1.02-.396.504 0 .852.204 1.116.468.456.456.648 1.128.648 1.836ZM29.627 148.6v-6.108h-1.068v6.108c0 .936-.516 1.56-1.488 1.56-.408 0-.804-.132-1.032-.348-.36-.336-.552-.804-.552-1.392h-1.08c0 .864.264 1.488.756 1.992.42.432 1.128.744 1.908.744 1.524 0 2.556-1.14 2.556-2.556Zm8.497-1.848c0-1.356-.108-2.592-1.032-3.492-.612-.6-1.368-.924-2.22-.924-.852 0-1.608.324-2.22.924-.924.9-1.032 2.136-1.032 3.492 0 1.356.108 2.592 1.032 3.492.612.6 1.368.924 2.22.924.852 0 1.608-.324 2.22-.924.924-.9 1.032-2.136 1.032-3.492Zm-1.104 0c0 .888.024 2.028-.672 2.748-.408.42-.9.648-1.476.648s-1.068-.228-1.476-.648c-.696-.72-.672-1.86-.672-2.748 0-.888-.024-2.028.672-2.748.408-.42.9-.648 1.476-.648s1.068.228 1.476.648c.696.72.672 1.86.672 2.748ZM44.738 151v-.888h-1.884v-6.744h1.884v-.876H39.89v.876h1.884v6.744H39.89V151h4.848Zm7.897 0v-8.508h-1.032v6.876l-3.396-6.876h-1.332V151h1.044v-6.84l3.408 6.84h1.308Zm12.807-3.66 2.316-2.412h-1.356l-2.904 3.048v-5.652h-1.02V151h1.02v-1.644l1.236-1.284L66.642 151h1.2l-2.4-3.66Zm9.613 3.6v-.756s-.156.036-.264.036c-.204 0-.36-.084-.36-.408v-2.94c0-.348-.06-.624-.18-.9-.288-.66-.984-1.2-2.16-1.2-.744 0-1.452.252-1.872.672-.324.324-.552.732-.564 1.248h1.008c.024-.312.132-.516.324-.708.204-.204.552-.372 1.104-.372.492 0 .816.156 1.02.348.276.252.312.576.312.876v.444l-1.896.108c-1.548.084-2.172 1.08-2.172 1.98 0 .864.648 1.788 2.1 1.788.852 0 1.644-.384 2.004-.996h.024c0 .516.36.924.9.924.252 0 .456-.036.672-.144Zm-1.632-2.508c0 .504-.18.996-.54 1.368-.324.336-.804.492-1.272.492-.864 0-1.212-.468-1.212-1.008 0-.768.696-1.08 1.344-1.116l1.68-.096v.36Zm8.798-4.968v-.948c-.348-.144-.84-.3-1.548-.3-1.272 0-2.076.792-2.076 2.004v.708h-2.004v.864h2.004V151h1.032v-5.208h2.64v-.864h-2.64v-.708c0-.624.384-1.104 1.164-1.104.456 0 1.092.18 1.428.348Zm5.545 3.876 2.316-2.412h-1.356l-2.904 3.048v-5.652h-1.02V151h1.02v-1.644l1.236-1.284L88.966 151h1.2l-2.4-3.66Zm9.614 3.6v-.756s-.156.036-.264.036c-.204 0-.36-.084-.36-.408v-2.94c0-.348-.06-.624-.18-.9-.288-.66-.984-1.2-2.16-1.2-.744 0-1.452.252-1.872.672-.324.324-.552.732-.564 1.248h1.008c.024-.312.132-.516.324-.708.204-.204.552-.372 1.104-.372.492 0 .816.156 1.02.348.276.252.312.576.312.876v.444l-1.896.108c-1.548.084-2.172 1.08-2.172 1.98 0 .864.648 1.788 2.1 1.788.852 0 1.644-.384 2.004-.996h.024c0 .516.36.924.9.924.252 0 .456-.036.672-.144Zm-1.632-2.508c0 .504-.18.996-.54 1.368-.324.336-.804.492-1.272.492-.864 0-1.212-.468-1.212-1.008 0-.768.696-1.08 1.344-1.116l1.68-.096v.36Zm113.529-1.68c0-1.356-.108-2.592-1.032-3.492-.612-.6-1.368-.924-2.22-.924-.852 0-1.608.324-2.22.924-.924.9-1.032 2.136-1.032 3.492 0 1.356.108 2.592 1.032 3.492.612.6 1.368.924 2.22.924.852 0 1.608-.324 2.22-.924.924-.9 1.032-2.136 1.032-3.492Zm-1.104 0c0 .888.024 2.028-.672 2.748-.408.42-.9.648-1.476.648s-1.068-.228-1.476-.648c-.696-.72-.672-1.86-.672-2.748 0-.888-.024-2.028.672-2.748.408-.42.9-.648 1.476-.648s1.068.228 1.476.648c.696.72.672 1.86.672 2.748Zm8.173 4.248v-8.508h-1.032v6.876l-3.396-6.876h-1.332V151h1.044v-6.84l3.408 6.84h1.308Zm10.215-5.484c-.66.648-.936 1.488-.936 2.448s.276 1.8.936 2.448c.444.432 1.128.744 1.896.744.72 0 1.356-.24 1.776-.648.408-.396.72-.9.768-1.56h-1.02c-.048.42-.264.708-.492.936-.24.228-.636.384-1.032.384-.48 0-.864-.204-1.128-.444-.516-.468-.66-1.2-.66-1.86 0-.66.144-1.404.66-1.872.264-.24.648-.432 1.128-.432.396 0 .792.156 1.032.384.228.228.432.516.48.936h1.032c-.048-.66-.348-1.152-.756-1.548-.42-.408-1.068-.66-1.788-.66-.768 0-1.452.312-1.896.744Zm56.854 5.424v-.756s-.156.036-.264.036c-.204 0-.36-.084-.36-.408v-2.94c0-.348-.06-.624-.18-.9-.288-.66-.984-1.2-2.16-1.2-.744 0-1.452.252-1.872.672-.324.324-.552.732-.564 1.248h1.008c.024-.312.132-.516.324-.708.204-.204.552-.372 1.104-.372.492 0 .816.156 1.02.348.276.252.312.576.312.876v.444l-1.896.108c-1.548.084-2.172 1.08-2.172 1.98 0 .864.648 1.788 2.1 1.788.852 0 1.644-.384 2.004-.996h.024c0 .516.36.924.9.924.252 0 .456-.036.672-.144Zm-1.632-2.508c0 .504-.18.996-.54 1.368-.324.336-.804.492-1.272.492-.864 0-1.212-.468-1.212-1.008 0-.768.696-1.08 1.344-1.116l1.68-.096v.36ZM29.627 167.6v-6.108h-1.068v6.108c0 .936-.516 1.56-1.488 1.56-.408 0-.804-.132-1.032-.348-.36-.336-.552-.804-.552-1.392h-1.08c0 .864.264 1.488.756 1.992.42.432 1.128.744 1.908.744 1.524 0 2.556-1.14 2.556-2.556Zm8.497-1.848c0-1.356-.108-2.592-1.032-3.492-.612-.6-1.368-.924-2.22-.924-.852 0-1.608.324-2.22.924-.924.9-1.032 2.136-1.032 3.492 0 1.356.108 2.592 1.032 3.492.612.6 1.368.924 2.22.924.852 0 1.608-.324 2.22-.924.924-.9 1.032-2.136 1.032-3.492Zm-1.104 0c0 .888.024 2.028-.672 2.748-.408.42-.9.648-1.476.648s-1.068-.228-1.476-.648c-.696-.72-.672-1.86-.672-2.748 0-.888-.024-2.028.672-2.748.408-.42.9-.648 1.476-.648s1.068.228 1.476.648c.696.72.672 1.86.672 2.748ZM44.738 170v-.888h-1.884v-6.744h1.884v-.876H39.89v.876h1.884v6.744H39.89V170h4.848Zm7.897 0v-8.508h-1.032v6.876l-3.396-6.876h-1.332V170h1.044v-6.84l3.408 6.84h1.308Zm14.619-1.764c0-1.02-.792-1.548-1.524-1.656l-1.644-.252c-.504-.084-.804-.3-.804-.756 0-.24.12-.456.336-.636.276-.216.66-.3 1.032-.3.408 0 .792.132 1.044.36.18.156.348.432.36.744h1.02a1.92 1.92 0 0 0-.42-1.152c-.42-.54-1.176-.816-2.004-.816-.756 0-1.452.288-1.848.696a1.633 1.633 0 0 0-.492 1.164c0 .396.12.768.36 1.044.264.288.648.492 1.116.564l1.548.228c.648.096.9.444.9.84a.785.785 0 0 1-.3.624c-.312.264-.768.348-1.188.348-.48 0-.888-.084-1.176-.3-.288-.216-.516-.516-.528-.936h-1.02c0 .516.228 1.044.6 1.404.54.528 1.248.708 2.076.708.828 0 1.608-.228 2.076-.708.288-.3.48-.684.48-1.212Zm7.417-.516c0-.864-.504-1.74-1.392-2.04.684-.288 1.224-1.104 1.224-1.884 0-.72-.252-1.248-.672-1.632-.444-.42-1.116-.672-1.812-.672-.72 0-1.356.216-1.824.6-.492.408-.792 1.008-.804 1.836h1.044c.012-.504.18-.912.504-1.176.252-.204.6-.336 1.056-.336.456 0 .828.18 1.056.408.264.252.396.588.396.972 0 .876-.612 1.404-1.572 1.404h-.54v.948h.54c1.02 0 1.752.528 1.752 1.548 0 .456-.168.804-.396 1.056-.288.324-.744.48-1.248.48-.528 0-.924-.192-1.176-.468-.276-.288-.408-.684-.432-1.152h-1.044c.012.768.276 1.356.708 1.788.468.468 1.14.756 1.944.756.936 0 1.608-.288 2.052-.756.408-.432.636-1.032.636-1.68Zm67.633-1.968c0-1.356-.108-2.592-1.032-3.492-.612-.6-1.368-.924-2.22-.924-.852 0-1.608.324-2.22.924-.924.9-1.032 2.136-1.032 3.492 0 1.356.108 2.592 1.032 3.492.612.6 1.368.924 2.22.924.852 0 1.608-.324 2.22-.924.924-.9 1.032-2.136 1.032-3.492Zm-1.104 0c0 .888.024 2.028-.672 2.748-.408.42-.9.648-1.476.648s-1.068-.228-1.476-.648c-.696-.72-.672-1.86-.672-2.748 0-.888-.024-2.028.672-2.748.408-.42.9-.648 1.476-.648s1.068.228 1.476.648c.696.72.672 1.86.672 2.748Zm8.173 4.248v-8.508h-1.032v6.876l-3.396-6.876h-1.332V170h1.044v-6.84l3.408 6.84h1.308Zm10.215-5.484c-.66.648-.936 1.488-.936 2.448s.276 1.8.936 2.448c.444.432 1.128.744 1.896.744.72 0 1.356-.24 1.776-.648.408-.396.72-.9.768-1.56h-1.02c-.048.42-.264.708-.492.936-.24.228-.636.384-1.032.384-.48 0-.864-.204-1.128-.444-.516-.468-.66-1.2-.66-1.86 0-.66.144-1.404.66-1.872.264-.24.648-.432 1.128-.432.396 0 .792.156 1.032.384.228.228.432.516.48.936h1.032c-.048-.66-.348-1.152-.756-1.548-.42-.408-1.068-.66-1.788-.66-.768 0-1.452.312-1.896.744ZM216.286 170v-.864h-2.124v-7.8h-2.988v.852h1.956v6.948h-2.136V170h5.292Z" fill="#57EFD4"/><path d="M147.381 132.012V130.2h-1.776v1.812h1.776Zm4.766-5.496c-.66.648-.936 1.488-.936 2.448s.276 1.8.936 2.448c.444.432 1.128.744 1.896.744.72 0 1.356-.24 1.776-.648.408-.396.72-.9.768-1.56h-1.02c-.048.42-.264.708-.492.936-.24.228-.636.384-1.032.384-.48 0-.864-.204-1.128-.444-.516-.468-.66-1.2-.66-1.86 0-.66.144-1.404.66-1.872.264-.24.648-.432 1.128-.432.396 0 .792.156 1.032.384.228.228.432.516.48.936h1.032c-.048-.66-.348-1.152-.756-1.548-.42-.408-1.068-.66-1.788-.66-.768 0-1.452.312-1.896.744ZM163.836 132v-6.072h-1.032v3.528c0 1.008-.708 1.776-1.572 1.776-.96 0-1.344-.54-1.344-1.452v-3.852h-1.032v3.996c0 1.356.864 2.232 2.136 2.232.684 0 1.548-.372 1.86-1.068l.084.912h.9Zm7.598-1.764c0-1.02-.792-1.548-1.524-1.656l-1.644-.252c-.504-.084-.804-.3-.804-.756 0-.24.12-.456.336-.636.276-.216.66-.3 1.032-.3.408 0 .792.132 1.044.36.18.156.348.432.36.744h1.02a1.92 1.92 0 0 0-.42-1.152c-.42-.54-1.176-.816-2.004-.816-.756 0-1.452.288-1.848.696a1.633 1.633 0 0 0-.492 1.164c0 .396.12.768.36 1.044.264.288.648.492 1.116.564l1.548.228c.648.096.9.444.9.84a.785.785 0 0 1-.3.624c-.312.264-.768.348-1.188.348-.48 0-.888-.084-1.176-.3-.288-.216-.516-.516-.528-.936h-1.02c0 .516.228 1.044.6 1.404.54.528 1.248.708 2.076.708.828 0 1.608-.228 2.076-.708.288-.3.48-.684.48-1.212Zm7.369 1.464v-.9c-.504.228-.936.408-1.536.408-.708 0-1.08-.444-1.08-1.092v-3.312h2.544v-.876h-2.544v-1.896l-1.02.324v1.572h-1.896v.876h1.896v3.408c0 .972.588 1.92 1.956 1.92.708 0 1.236-.18 1.68-.432Zm7.753-2.748c0-.96-.288-1.8-.948-2.448-.444-.432-1.128-.732-1.896-.732s-1.476.3-1.92.732c-.66.648-.948 1.5-.948 2.46s.288 1.812.948 2.46c.444.432 1.152.732 1.92.732s1.452-.3 1.896-.732c.66-.648.948-1.512.948-2.472Zm-1.044.012c0 .66-.168 1.404-.684 1.872-.264.24-.648.432-1.128.432-.48 0-.864-.192-1.128-.432-.516-.468-.684-1.224-.684-1.884 0-.66.168-1.392.684-1.86.264-.24.648-.432 1.128-.432.48 0 .864.192 1.128.432.516.468.684 1.212.684 1.872Zm8.882 3.036v-4.596c0-.816-.444-1.632-1.512-1.632-.648 0-1.14.324-1.428.804a1.3 1.3 0 0 0-1.188-.804c-.66 0-1.116.348-1.32.744l-.096-.588h-.828V132h1.008v-3.708c0-.936.276-1.62.948-1.62.6 0 .792.456.792 1.092V132h.96v-3.588c0-.612.06-1.152.36-1.464.144-.144.312-.276.564-.276.612 0 .732.48.732 1.02V132h1.008Zm6.985-2.712v-.36c0-.948-.3-1.836-.876-2.424-.432-.444-1.104-.732-1.872-.732-.816 0-1.464.312-1.932.78-.588.6-.9 1.488-.9 2.436 0 .864.252 1.74.9 2.376.48.468 1.14.792 1.92.792 1.272 0 2.316-.72 2.604-1.98h-.984a1.522 1.522 0 0 1-.504.732c-.3.24-.576.36-1.116.36-.48 0-.876-.18-1.164-.456-.432-.408-.612-.996-.612-1.524h4.536Zm-1.08-.84h-3.42c.024-.72.576-1.8 1.74-1.8.48 0 .864.18 1.164.492.312.324.504.792.516 1.308Zm8.822-.468c0-.432-.096-.9-.384-1.32a2.057 2.057 0 0 0-1.728-.888c-.756 0-1.536.336-1.92 1.068l-.084-.912h-.9V132h1.032v-2.7c0-.492.072-1.116.264-1.572.24-.564.78-1.032 1.392-1.032.444 0 .756.168.96.396.216.24.324.552.324.888h1.044Zm6.961 2.256c0-1.02-.792-1.548-1.524-1.656l-1.644-.252c-.504-.084-.804-.3-.804-.756 0-.24.12-.456.336-.636.276-.216.66-.3 1.032-.3.408 0 .792.132 1.044.36.18.156.348.432.36.744h1.02a1.92 1.92 0 0 0-.42-1.152c-.42-.54-1.176-.816-2.004-.816-.756 0-1.452.288-1.848.696a1.633 1.633 0 0 0-.492 1.164c0 .396.12.768.36 1.044.264.288.648.492 1.116.564l1.548.228c.648.096.9.444.9.84a.785.785 0 0 1-.3.624c-.312.264-.768.348-1.188.348-.48 0-.888-.084-1.176-.3-.288-.216-.516-.516-.528-.936h-1.02c0 .516.228 1.044.6 1.404.54.528 1.248.708 2.076.708.828 0 1.608-.228 2.076-.708.288-.3.48-.684.48-1.212Zm10.479-3.72c-.66.648-.936 1.488-.936 2.448s.276 1.8.936 2.448c.444.432 1.128.744 1.896.744.72 0 1.356-.24 1.776-.648.408-.396.72-.9.768-1.56h-1.02c-.048.42-.264.708-.492.936-.24.228-.636.384-1.032.384-.48 0-.864-.204-1.128-.444-.516-.468-.66-1.2-.66-1.86 0-.66.144-1.404.66-1.872.264-.24.648-.432 1.128-.432.396 0 .792.156 1.032.384.228.228.432.516.48.936h1.032c-.048-.66-.348-1.152-.756-1.548-.42-.408-1.068-.66-1.788-.66-.768 0-1.452.312-1.896.744Zm-123.828 24.496V149.2h-1.776v1.812h1.776Zm9.529-.072v-.756s-.156.036-.264.036c-.204 0-.36-.084-.36-.408v-2.94c0-.348-.06-.624-.18-.9-.288-.66-.984-1.2-2.16-1.2-.744 0-1.452.252-1.872.672-.324.324-.552.732-.564 1.248h1.008c.024-.312.132-.516.324-.708.204-.204.552-.372 1.104-.372.492 0 .816.156 1.02.348.276.252.312.576.312.876v.444l-1.896.108c-1.548.084-2.172 1.08-2.172 1.98 0 .864.648 1.788 2.1 1.788.852 0 1.644-.384 2.004-.996h.024c0 .516.36.924.9.924.252 0 .456-.036.672-.144Zm-1.632-2.508c0 .504-.18.996-.54 1.368-.324.336-.804.492-1.272.492-.864 0-1.212-.468-1.212-1.008 0-.768.696-1.08 1.344-1.116l1.68-.096v.36Zm4.31-2.916c-.66.648-.936 1.488-.936 2.448s.276 1.8.936 2.448c.444.432 1.128.744 1.896.744.72 0 1.356-.24 1.776-.648.408-.396.72-.9.768-1.56h-1.02c-.048.42-.264.708-.492.936-.24.228-.636.384-1.032.384-.48 0-.864-.204-1.128-.444-.516-.468-.66-1.2-.66-1.86 0-.66.144-1.404.66-1.872.264-.24.648-.432 1.128-.432.396 0 .792.156 1.032.384.228.228.432.516.48.936h1.032c-.048-.66-.348-1.152-.756-1.548-.42-.408-1.068-.66-1.788-.66-.768 0-1.452.312-1.896.744Zm11.773 5.184v-.9c-.504.228-.936.408-1.536.408-.708 0-1.08-.444-1.08-1.092v-3.312h2.544v-.876h-2.544v-1.896l-1.02.324v1.572h-1.896v.876h1.896v3.408c0 .972.588 1.92 1.956 1.92.708 0 1.236-.18 1.68-.432Zm5.894-6.924v-1.44h-1.452v1.44h1.452Zm2.052 7.224v-.876h-2.208v-5.196h-2.988v.864h1.956v4.332h-2.196V151h5.436Zm7.381-6.06h-1.068l-1.86 5.052-1.932-5.052h-1.116l2.4 6.06h1.212l2.364-6.06Zm5.449-1.164v-1.44h-1.452v1.44h1.452Zm2.052 7.224v-.876h-2.208v-5.196h-2.988v.864h1.956v4.332h-2.196V151h5.436Zm6.938-.3v-.9c-.504.228-.936.408-1.536.408-.708 0-1.08-.444-1.08-1.092v-3.312h2.544v-.876h-2.544v-1.896l-1.02.324v1.572h-1.896v.876h1.896v3.408c0 .972.588 1.92 1.956 1.92.708 0 1.236-.18 1.68-.432Zm5.893-6.924v-1.44h-1.452v1.44h1.452Zm2.052 7.224v-.876h-2.208v-5.196h-2.988v.864h1.956v4.332h-2.196V151h5.436Zm7.19-2.712v-.36c0-.948-.3-1.836-.876-2.424-.432-.444-1.104-.732-1.872-.732-.816 0-1.464.312-1.932.78-.588.6-.9 1.488-.9 2.436 0 .864.252 1.74.9 2.376.48.468 1.14.792 1.92.792 1.272 0 2.316-.72 2.604-1.98h-.984a1.522 1.522 0 0 1-.504.732c-.3.24-.576.36-1.116.36-.48 0-.876-.18-1.164-.456-.432-.408-.612-.996-.612-1.524h4.536Zm-1.08-.84h-3.42c.024-.72.576-1.8 1.74-1.8.48 0 .864.18 1.164.492.312.324.504.792.516 1.308Zm8.341 1.788c0-1.02-.792-1.548-1.524-1.656l-1.644-.252c-.504-.084-.804-.3-.804-.756 0-.24.12-.456.336-.636.276-.216.66-.3 1.032-.3.408 0 .792.132 1.044.36.18.156.348.432.36.744h1.02a1.92 1.92 0 0 0-.42-1.152c-.42-.54-1.176-.816-2.004-.816-.756 0-1.452.288-1.848.696a1.633 1.633 0 0 0-.492 1.164c0 .396.12.768.36 1.044.264.288.648.492 1.116.564l1.548.228c.648.096.9.444.9.84a.785.785 0 0 1-.3.624c-.312.264-.768.348-1.188.348-.48 0-.888-.084-1.176-.3-.288-.216-.516-.516-.528-.936h-1.02c0 .516.228 1.044.6 1.404.54.528 1.248.708 2.076.708.828 0 1.608-.228 2.076-.708.288-.3.48-.684.48-1.212Zm15.243 1.704v-.756s-.156.036-.264.036c-.204 0-.36-.084-.36-.408v-2.94c0-.348-.06-.624-.18-.9-.288-.66-.984-1.2-2.16-1.2-.744 0-1.452.252-1.872.672-.324.324-.552.732-.564 1.248h1.008c.024-.312.132-.516.324-.708.204-.204.552-.372 1.104-.372.492 0 .816.156 1.02.348.276.252.312.576.312.876v.444l-1.896.108c-1.548.084-2.172 1.08-2.172 1.98 0 .864.648 1.788 2.1 1.788.852 0 1.644-.384 2.004-.996h.024c0 .516.36.924.9.924.252 0 .456-.036.672-.144Zm-1.632-2.508c0 .504-.18.996-.54 1.368-.324.336-.804.492-1.272.492-.864 0-1.212-.468-1.212-1.008 0-.768.696-1.08 1.344-1.116l1.68-.096v.36Zm44.192 2.58V149.2h-1.776v1.812h1.776Zm7.55-7.236v-1.44h-1.452v1.44h1.452ZM246.28 151v-.876h-2.208v-5.196h-2.988v.864h1.956v4.332h-2.196V151h5.436Zm6.889 0v-8.664h-1.02v3.3c-.336-.504-1.032-.864-1.788-.864-.744 0-1.332.312-1.728.684-.612.588-.936 1.476-.936 2.52 0 1.008.3 1.884.876 2.472.396.408 1.02.708 1.764.708.684 0 1.512-.336 1.86-.948l.072.792h.9Zm-.96-3.036c0 .756-.18 1.476-.684 1.92-.24.216-.576.384-1.02.384-.504 0-.864-.168-1.128-.432-.456-.456-.636-1.164-.636-1.872 0-.708.192-1.38.648-1.836a1.507 1.507 0 0 1 1.116-.468c.444 0 .78.168 1.02.384.504.444.684 1.164.684 1.92Zm36.559 3.048V149.2h-1.776v1.812h1.776Zm4.766-5.496c-.66.648-.936 1.488-.936 2.448s.276 1.8.936 2.448c.444.432 1.128.744 1.896.744.72 0 1.356-.24 1.776-.648.408-.396.72-.9.768-1.56h-1.02c-.048.42-.264.708-.492.936-.24.228-.636.384-1.032.384-.48 0-.864-.204-1.128-.444-.516-.468-.66-1.2-.66-1.86 0-.66.144-1.404.66-1.872.264-.24.648-.432 1.128-.432.396 0 .792.156 1.032.384.228.228.432.516.48.936h1.032c-.048-.66-.348-1.152-.756-1.548-.42-.408-1.068-.66-1.788-.66-.768 0-1.452.312-1.896.744ZM305.223 151v-6.072h-1.032v3.528c0 1.008-.708 1.776-1.572 1.776-.96 0-1.344-.54-1.344-1.452v-3.852h-1.032v3.996c0 1.356.864 2.232 2.136 2.232.684 0 1.548-.372 1.86-1.068l.084.912h.9Zm7.597-1.764c0-1.02-.792-1.548-1.524-1.656l-1.644-.252c-.504-.084-.804-.3-.804-.756 0-.24.12-.456.336-.636.276-.216.66-.3 1.032-.3.408 0 .792.132 1.044.36.18.156.348.432.36.744h1.02a1.92 1.92 0 0 0-.42-1.152c-.42-.54-1.176-.816-2.004-.816-.756 0-1.452.288-1.848.696a1.633 1.633 0 0 0-.492 1.164c0 .396.12.768.36 1.044.264.288.648.492 1.116.564l1.548.228c.648.096.9.444.9.84a.785.785 0 0 1-.3.624c-.312.264-.768.348-1.188.348-.48 0-.888-.084-1.176-.3-.288-.216-.516-.516-.528-.936h-1.02c0 .516.228 1.044.6 1.404.54.528 1.248.708 2.076.708.828 0 1.608-.228 2.076-.708.288-.3.48-.684.48-1.212Zm7.37 1.464v-.9c-.504.228-.936.408-1.536.408-.708 0-1.08-.444-1.08-1.092v-3.312h2.544v-.876h-2.544v-1.896l-1.02.324v1.572h-1.896v.876h1.896v3.408c0 .972.588 1.92 1.956 1.92.708 0 1.236-.18 1.68-.432Zm7.753-2.748c0-.96-.288-1.8-.948-2.448-.444-.432-1.128-.732-1.896-.732s-1.476.3-1.92.732c-.66.648-.948 1.5-.948 2.46s.288 1.812.948 2.46c.444.432 1.152.732 1.92.732s1.452-.3 1.896-.732c.66-.648.948-1.512.948-2.472Zm-1.044.012c0 .66-.168 1.404-.684 1.872-.264.24-.648.432-1.128.432-.48 0-.864-.192-1.128-.432-.516-.468-.684-1.224-.684-1.884 0-.66.168-1.392.684-1.86.264-.24.648-.432 1.128-.432.48 0 .864.192 1.128.432.516.468.684 1.212.684 1.872Zm8.882 3.036v-4.596c0-.816-.444-1.632-1.512-1.632-.648 0-1.14.324-1.428.804a1.3 1.3 0 0 0-1.188-.804c-.66 0-1.116.348-1.32.744l-.096-.588h-.828V151h1.008v-3.708c0-.936.276-1.62.948-1.62.6 0 .792.456.792 1.092V151h.96v-3.588c0-.612.06-1.152.36-1.464.144-.144.312-.276.564-.276.612 0 .732.48.732 1.02V151h1.008Zm6.985-2.712v-.36c0-.948-.3-1.836-.876-2.424-.432-.444-1.104-.732-1.872-.732-.816 0-1.464.312-1.932.78-.588.6-.9 1.488-.9 2.436 0 .864.252 1.74.9 2.376.48.468 1.14.792 1.92.792 1.272 0 2.316-.72 2.604-1.98h-.984a1.522 1.522 0 0 1-.504.732c-.3.24-.576.36-1.116.36-.48 0-.876-.18-1.164-.456-.432-.408-.612-.996-.612-1.524h4.536Zm-1.08-.84h-3.42c.024-.72.576-1.8 1.74-1.8.48 0 .864.18 1.164.492.312.324.504.792.516 1.308Zm8.821-.468c0-.432-.096-.9-.384-1.32a2.057 2.057 0 0 0-1.728-.888c-.756 0-1.536.336-1.92 1.068l-.084-.912h-.9V151h1.032v-2.7c0-.492.072-1.116.264-1.572.24-.564.78-1.032 1.392-1.032.444 0 .756.168.96.396.216.24.324.552.324.888h1.044Zm7.322 4.968V151h-5.94v.948h5.94Zm5.461-8.172v-1.44h-1.452v1.44h1.452Zm2.052 7.224v-.876h-2.208v-5.196h-2.988v.864h1.956v4.332h-2.196V151h5.436Zm6.89 0v-8.664h-1.02v3.3c-.336-.504-1.032-.864-1.788-.864-.744 0-1.332.312-1.728.684-.612.588-.936 1.476-.936 2.52 0 1.008.3 1.884.876 2.472.396.408 1.02.708 1.764.708.684 0 1.512-.336 1.86-.948l.072.792h.9Zm-.96-3.036c0 .756-.18 1.476-.684 1.92-.24.216-.576.384-1.02.384-.504 0-.864-.168-1.128-.432-.456-.456-.636-1.164-.636-1.872 0-.708.192-1.38.648-1.836a1.507 1.507 0 0 1 1.116-.468c.444 0 .78.168 1.02.384.504.444.684 1.164.684 1.92ZM80.409 170.012V168.2h-1.776v1.812h1.776Zm9.373-.012v-.864h-2.124v-7.8H84.67v.852h1.956v6.948H84.49V170h5.292Zm7.478-3.048c0-.96-.288-1.8-.948-2.448-.444-.432-1.128-.732-1.896-.732s-1.476.3-1.92.732c-.66.648-.948 1.5-.948 2.46s.288 1.812.948 2.46c.444.432 1.152.732 1.92.732s1.452-.3 1.896-.732c.66-.648.948-1.512.948-2.472Zm-1.044.012c0 .66-.168 1.404-.684 1.872-.264.24-.648.432-1.128.432-.48 0-.864-.192-1.128-.432-.516-.468-.684-1.224-.684-1.884 0-.66.168-1.392.684-1.86.264-.24.648-.432 1.128-.432.48 0 .864.192 1.128.432.516.468.684 1.212.684 1.872Zm8.737 3.936c0-.504-.18-.9-.468-1.188-.48-.492-1.26-.636-1.98-.636h-1.332c-.384 0-.936-.072-.9-.6.024-.288.3-.492.528-.564.384.132.648.192 1.056.192.804 0 1.452-.3 1.848-.732a2.12 2.12 0 0 0 .552-1.44c0-.54-.156-.936-.408-1.26.072-.3.36-.552.756-.552.084 0 .168 0 .228.012v-.828a2.526 2.526 0 0 0-.3-.024c-.576 0-1.056.312-1.26.852-.372-.228-.84-.36-1.416-.36-.804 0-1.404.252-1.824.684-.348.36-.588.816-.588 1.476 0 .576.216 1.164.708 1.572-.456.216-.828.636-.828 1.176 0 .468.288.864.696 1.02-.48.24-.864.732-.864 1.368 0 .48.204.816.456 1.068.588.588 1.536.696 2.34.696.852 0 1.896-.144 2.484-.72.288-.288.516-.684.516-1.212Zm-1.692-4.968c0 .768-.588 1.356-1.416 1.356s-1.416-.588-1.416-1.356c0-.768.552-1.332 1.416-1.332.864 0 1.416.564 1.416 1.332Zm.696 4.968c0 .264-.12.468-.276.624-.384.384-1.152.432-1.668.432-.528 0-1.284-.024-1.68-.42a.857.857 0 0 1-.252-.636c0-.468.36-.828.768-.96h1.164c.768 0 1.944-.072 1.944.96Zm7.945-2.664c0-1.02-.792-1.548-1.524-1.656l-1.644-.252c-.504-.084-.804-.3-.804-.756 0-.24.12-.456.336-.636.276-.216.66-.3 1.032-.3.408 0 .792.132 1.044.36.18.156.348.432.36.744h1.02a1.92 1.92 0 0 0-.42-1.152c-.42-.54-1.176-.816-2.004-.816-.756 0-1.452.288-1.848.696a1.633 1.633 0 0 0-.492 1.164c0 .396.12.768.36 1.044.264.288.648.492 1.116.564l1.548.228c.648.096.9.444.9.84a.785.785 0 0 1-.3.624c-.312.264-.768.348-1.188.348-.48 0-.888-.084-1.176-.3-.288-.216-.516-.516-.528-.936h-1.02c0 .516.228 1.044.6 1.404.54.528 1.248.708 2.076.708.828 0 1.608-.228 2.076-.708.288-.3.48-.684.48-1.212ZM126.989 170v-.864h-2.124v-7.8h-2.988v.852h1.956v6.948h-2.136V170h5.292Zm42.717.012V168.2h-1.776v1.812h1.776Zm7.549-7.236v-1.44h-1.452v1.44h1.452Zm2.052 7.224v-.876h-2.208v-5.196h-2.988v.864h1.956v4.332h-2.196V170h5.436Zm6.889 0v-8.664h-1.02v3.3c-.336-.504-1.032-.864-1.788-.864-.744 0-1.332.312-1.728.684-.612.588-.936 1.476-.936 2.52 0 1.008.3 1.884.876 2.472.396.408 1.02.708 1.764.708.684 0 1.512-.336 1.86-.948l.072.792h.9Zm-.96-3.036c0 .756-.18 1.476-.684 1.92-.24.216-.576.384-1.02.384-.504 0-.864-.168-1.128-.432-.456-.456-.636-1.164-.636-1.872 0-.708.192-1.38.648-1.836a1.507 1.507 0 0 1 1.116-.468c.444 0 .78.168 1.02.384.504.444.684 1.164.684 1.92Zm36.56 3.048V168.2h-1.776v1.812h1.776Zm4.765-5.496c-.66.648-.936 1.488-.936 2.448s.276 1.8.936 2.448c.444.432 1.128.744 1.896.744.72 0 1.356-.24 1.776-.648.408-.396.72-.9.768-1.56h-1.02c-.048.42-.264.708-.492.936-.24.228-.636.384-1.032.384-.48 0-.864-.204-1.128-.444-.516-.468-.66-1.2-.66-1.86 0-.66.144-1.404.66-1.872.264-.24.648-.432 1.128-.432.396 0 .792.156 1.032.384.228.228.432.516.48.936h1.032c-.048-.66-.348-1.152-.756-1.548-.42-.408-1.068-.66-1.788-.66-.768 0-1.452.312-1.896.744ZM238.25 170v-6.072h-1.032v3.528c0 1.008-.708 1.776-1.572 1.776-.96 0-1.344-.54-1.344-1.452v-3.852h-1.032v3.996c0 1.356.864 2.232 2.136 2.232.684 0 1.548-.372 1.86-1.068l.084.912h.9Zm7.598-1.764c0-1.02-.792-1.548-1.524-1.656l-1.644-.252c-.504-.084-.804-.3-.804-.756 0-.24.12-.456.336-.636.276-.216.66-.3 1.032-.3.408 0 .792.132 1.044.36.18.156.348.432.36.744h1.02a1.92 1.92 0 0 0-.42-1.152c-.42-.54-1.176-.816-2.004-.816-.756 0-1.452.288-1.848.696a1.633 1.633 0 0 0-.492 1.164c0 .396.12.768.36 1.044.264.288.648.492 1.116.564l1.548.228c.648.096.9.444.9.84a.785.785 0 0 1-.3.624c-.312.264-.768.348-1.188.348-.48 0-.888-.084-1.176-.3-.288-.216-.516-.516-.528-.936h-1.02c0 .516.228 1.044.6 1.404.54.528 1.248.708 2.076.708.828 0 1.608-.228 2.076-.708.288-.3.48-.684.48-1.212Zm7.369 1.464v-.9c-.504.228-.936.408-1.536.408-.708 0-1.08-.444-1.08-1.092v-3.312h2.544v-.876h-2.544v-1.896l-1.02.324v1.572h-1.896v.876h1.896v3.408c0 .972.588 1.92 1.956 1.92.708 0 1.236-.18 1.68-.432Zm7.754-2.748c0-.96-.288-1.8-.948-2.448-.444-.432-1.128-.732-1.896-.732s-1.476.3-1.92.732c-.66.648-.948 1.5-.948 2.46s.288 1.812.948 2.46c.444.432 1.152.732 1.92.732s1.452-.3 1.896-.732c.66-.648.948-1.512.948-2.472Zm-1.044.012c0 .66-.168 1.404-.684 1.872-.264.24-.648.432-1.128.432-.48 0-.864-.192-1.128-.432-.516-.468-.684-1.224-.684-1.884 0-.66.168-1.392.684-1.86.264-.24.648-.432 1.128-.432.48 0 .864.192 1.128.432.516.468.684 1.212.684 1.872Zm8.881 3.036v-4.596c0-.816-.444-1.632-1.512-1.632-.648 0-1.14.324-1.428.804a1.3 1.3 0 0 0-1.188-.804c-.66 0-1.116.348-1.32.744l-.096-.588h-.828V170h1.008v-3.708c0-.936.276-1.62.948-1.62.6 0 .792.456.792 1.092V170h.96v-3.588c0-.612.06-1.152.36-1.464.144-.144.312-.276.564-.276.612 0 .732.48.732 1.02V170h1.008Zm6.985-2.712v-.36c0-.948-.3-1.836-.876-2.424-.432-.444-1.104-.732-1.872-.732-.816 0-1.464.312-1.932.78-.588.6-.9 1.488-.9 2.436 0 .864.252 1.74.9 2.376.48.468 1.14.792 1.92.792 1.272 0 2.316-.72 2.604-1.98h-.984a1.522 1.522 0 0 1-.504.732c-.3.24-.576.36-1.116.36-.48 0-.876-.18-1.164-.456-.432-.408-.612-.996-.612-1.524h4.536Zm-1.08-.84h-3.42c.024-.72.576-1.8 1.74-1.8.48 0 .864.18 1.164.492.312.324.504.792.516 1.308Zm8.822-.468c0-.432-.096-.9-.384-1.32a2.057 2.057 0 0 0-1.728-.888c-.756 0-1.536.336-1.92 1.068l-.084-.912h-.9V170h1.032v-2.7c0-.492.072-1.116.264-1.572.24-.564.78-1.032 1.392-1.032.444 0 .756.168.96.396.216.24.324.552.324.888h1.044Zm7.321 4.968V170h-5.94v.948h5.94Zm5.462-8.172v-1.44h-1.452v1.44h1.452ZM298.37 170v-.876h-2.208v-5.196h-2.988v.864h1.956v4.332h-2.196V170h5.436Zm6.889 0v-8.664h-1.02v3.3c-.336-.504-1.032-.864-1.788-.864-.744 0-1.332.312-1.728.684-.612.588-.936 1.476-.936 2.52 0 1.008.3 1.884.876 2.472.396.408 1.02.708 1.764.708.684 0 1.512-.336 1.86-.948l.072.792h.9Zm-.96-3.036c0 .756-.18 1.476-.684 1.92-.24.216-.576.384-1.02.384-.504 0-.864-.168-1.128-.432-.456-.456-.636-1.164-.636-1.872 0-.708.192-1.38.648-1.836a1.507 1.507 0 0 1 1.116-.468c.444 0 .78.168 1.02.384.504.444.684 1.164.684 1.92Zm6.757-1.296v-1.74h-1.704v1.74h1.704Zm.06 4.344v-1.74h-1.764v1.74h.9c0 .852-.18 1.296-.96 1.632l.384.696c1.092-.456 1.44-1.224 1.44-2.328Z" fill="#8182A3"/><path d="m82.065 125.856-.3-.948-1.848.72.12-1.98h-.996l.096 1.98-1.836-.72-.312.948 1.908.492-1.248 1.524.804.6 1.068-1.668 1.08 1.668.804-.576-1.248-1.548 1.908-.492Zm186.383 21.04v-.948h-5.784v.948h5.784Zm0 2.496v-.948h-5.784v.948h5.784Zm-66.973 16.504v-.948h-5.784v.948h5.784Zm0 2.496v-.948h-5.784v.948h5.784Z" fill="#F349D8"/><defs><linearGradient id="a" x1="109.068" y1="84.481" x2="48.739" y2="68.984" gradientUnits="userSpaceOnUse"><stop offset=".026" stop-color="#4512C7"/><stop offset=".531" stop-color="#59C3FF"/><stop offset="1" stop-color="#75FF86"/></linearGradient><linearGradient id="b" x1="109.068" y1="74.064" x2="55.915" y2="49.712" gradientUnits="userSpaceOnUse"><stop offset=".026" stop-color="#4512C7"/><stop offset=".531" stop-color="#59C3FF"/><stop offset="1" stop-color="#75FF86"/></linearGradient><linearGradient id="c" x1="109.068" y1="78.841" x2="55.915" y2="54.488" gradientUnits="userSpaceOnUse"><stop offset=".026" stop-color="#4512C7"/><stop offset=".531" stop-color="#59C3FF"/><stop offset="1" stop-color="#75FF86"/></linearGradient><linearGradient id="d" x1="196.863" y1="84.481" x2="136.534" y2="68.984" gradientUnits="userSpaceOnUse"><stop stop-color="#4512C7"/><stop offset=".755" stop-color="#59C3FF"/></linearGradient><linearGradient id="e" x1="196.863" y1="74.064" x2="143.71" y2="49.712" gradientUnits="userSpaceOnUse"><stop stop-color="#4512C7"/><stop offset=".755" stop-color="#59C3FF"/></linearGradient><linearGradient id="f" x1="196.863" y1="78.841" x2="143.71" y2="54.488" gradientUnits="userSpaceOnUse"><stop stop-color="#4512C7"/><stop offset=".755" stop-color="#59C3FF"/></linearGradient><linearGradient id="g" x1="205.71" y1="222.218" x2="100.239" y2="-44.023" gradientUnits="userSpaceOnUse"><stop offset=".026" stop-color="#4512C7"/><stop offset=".531" stop-color="#59C3FF"/><stop offset="1" stop-color="#75FF86"/></linearGradient><linearGradient id="h" x1="217.363" y1="273.517" x2="282.109" y2="256.591" gradientUnits="userSpaceOnUse"><stop stop-color="#5A34CB"/><stop offset="1" stop-color="#B634CB"/></linearGradient><linearGradient id="i" x1="311.965" y1="809.364" x2="-12.162" y2="782.114" gradientUnits="userSpaceOnUse"><stop offset=".026" stop-color="#4512C7"/><stop offset=".531" stop-color="#59C3FF"/><stop offset="1" stop-color="#75FF86"/></linearGradient><linearGradient id="j" x1="253.176" y1="460.87" x2="384.989" y2="444.657" gradientUnits="userSpaceOnUse"><stop stop-color="#5C29F1"/><stop offset=".474" stop-color="#E37AC2"/><stop offset=".807" stop-color="#FF9067"/></linearGradient><linearGradient id="k" x1="253.972" y1="62.01" x2="230.872" y2="53.329" gradientUnits="userSpaceOnUse"><stop stop-color="#5C29F1"/><stop offset="1" stop-color="#E37AC2"/></linearGradient><linearGradient id="l" x1="253.972" y1="61.465" x2="235.782" y2="49.273" gradientUnits="userSpaceOnUse"><stop stop-color="#5C29F1"/><stop offset="1" stop-color="#E37AC2"/></linearGradient><linearGradient id="m" x1="253.972" y1="66.242" x2="235.782" y2="54.05" gradientUnits="userSpaceOnUse"><stop stop-color="#5C29F1"/><stop offset="1" stop-color="#E37AC2"/></linearGradient><linearGradient id="n" x1="340.972" y1="62.01" x2="317.872" y2="53.329" gradientUnits="userSpaceOnUse"><stop offset=".474" stop-color="#E37AC2"/><stop offset=".807" stop-color="#FF9067"/></linearGradient><linearGradient id="o" x1="340.972" y1="61.465" x2="322.782" y2="49.273" gradientUnits="userSpaceOnUse"><stop offset=".474" stop-color="#E37AC2"/><stop offset=".807" stop-color="#FF9067"/></linearGradient><linearGradient id="p" x1="340.972" y1="66.242" x2="322.782" y2="54.05" gradientUnits="userSpaceOnUse"><stop offset=".474" stop-color="#E37AC2"/><stop offset=".807" stop-color="#FF9067"/></linearGradient><linearGradient id="q" x1="-108.759" y1="328.072" x2="217.907" y2="473.446" gradientUnits="userSpaceOnUse"><stop stop-color="#AD00FF"/><stop offset="1" stop-color="#3901E1"/></linearGradient><linearGradient id="r" x1="16.153" y1="274.654" x2="28.323" y2="277.24" gradientUnits="userSpaceOnUse"><stop stop-color="#AD00FF"/><stop offset="1" stop-color="#7648FF"/></linearGradient><linearGradient id="s" x1="35.153" y1="274.654" x2="47.323" y2="277.24" gradientUnits="userSpaceOnUse"><stop stop-color="#AD00FF"/><stop offset="1" stop-color="#7648FF"/></linearGradient><linearGradient id="t" x1="53.153" y1="274.654" x2="65.323" y2="277.24" gradientUnits="userSpaceOnUse"><stop stop-color="#AD00FF"/><stop offset="1" stop-color="#7648FF"/></linearGradient><linearGradient id="u" x1="150.694" y1="421.415" x2="136.538" y2="374.45" gradientUnits="userSpaceOnUse"><stop offset=".026" stop-color="#4512C7"/><stop offset=".531" stop-color="#59C3FF"/><stop offset="1" stop-color="#75FF86"/></linearGradient><linearGradient id="v" x1="300.4" y1="417.793" x2="298.925" y2="403.592" gradientUnits="userSpaceOnUse"><stop stop-color="#5C29F1"/><stop offset=".474" stop-color="#E37AC2"/><stop offset=".807" stop-color="#FF9067"/></linearGradient><linearGradient id="w" x1="113.311" y1="400.955" x2="70.092" y2="290.24" gradientUnits="userSpaceOnUse"><stop offset=".026" stop-color="#4512C7"/><stop offset=".531" stop-color="#59C3FF"/><stop offset="1" stop-color="#75FF86"/></linearGradient><linearGradient id="x" x1="657.826" y1="473.651" x2="212.311" y2="36.272" gradientUnits="userSpaceOnUse"><stop offset=".026" stop-color="#4512C7"/><stop offset=".531" stop-color="#59C3FF"/><stop offset="1" stop-color="#75FF86"/></linearGradient><linearGradient id="y" x1="251.29" y1="401.788" x2="122.705" y2="229.925" gradientUnits="userSpaceOnUse"><stop stop-color="#5C29F1"/><stop offset=".474" stop-color="#E37AC2"/><stop offset=".807" stop-color="#FF9067"/></linearGradient><linearGradient id="z" x1="-101.57" y1="136.814" x2="107.109" y2="327.834" gradientUnits="userSpaceOnUse"><stop stop-color="#AD00FF"/><stop offset="1" stop-color="#3901E1"/></linearGradient></defs></svg>