<svg width="37" height="29" viewBox="0 0 37 29" fill="none" xmlns="http://www.w3.org/2000/svg"> <g style="mix-blend-mode:multiply"> <path fill-rule="evenodd" clip-rule="evenodd" d="M30.3084 12.3063L37.0004 8.40607L30.3084 4.50586V12.3063ZM5.33789 25.5854V28.7331H3.33789V25.5854C3.33789 21.2104 4.24475 16.6561 7.0008 13.1786C9.79115 9.65783 14.3436 7.40596 21.2658 7.40596H30.3083V9.40596H21.2658C14.8084 9.40596 10.897 11.4825 8.56823 14.4208C6.20521 17.4024 5.33789 21.4378 5.33789 25.5854Z" fill="url(#tile1_paint0)"></path> </g> <g style="mix-blend-mode:multiply"> <path d="M0 0.703613C0 5.10507 0.911465 9.71983 3.7133 13.2551C6.55742 16.8437 11.1846 19.116 18.1609 19.116H20.4985V16.65H18.1609C11.7577 16.65 7.92085 14.5939 5.6459 11.7234C3.32866 8.79962 2.46595 4.82468 2.46595 0.703613H0Z" fill="url(#tile1_paint1)"></path> <path d="M20.4985 21.7832L27.1906 17.883L20.4985 13.9828V21.7832Z" fill="url(#tile1_paint2)"></path> </g> <defs> <linearGradient id="tile1_paint0" x1="29.0324" y1="28.796" x2="14.5794" y2="5.58053" gradientUnits="userSpaceOnUse"> <stop stop-color="#5A34CB"></stop> <stop offset="1" stop-color="#B634CB"></stop> </linearGradient> <linearGradient id="tile1_paint1" x1="49.3759" y1="78.3149" x2="-17.5349" y2="67.0653" gradientUnits="userSpaceOnUse"> <stop offset="0.0260417" stop-color="#4512C7"></stop> <stop offset="0.53125" stop-color="#59C3FF"></stop> <stop offset="1" stop-color="#75FF86"></stop> </linearGradient> <linearGradient id="tile1_paint2" x1="49.3759" y1="78.3149" x2="-17.5349" y2="67.0653" gradientUnits="userSpaceOnUse"> <stop offset="0.0260417" stop-color="#4512C7"></stop> <stop offset="0.53125" stop-color="#59C3FF"></stop> <stop offset="1" stop-color="#75FF86"></stop> </linearGradient> </defs> </svg>