<svg width="67" height="51" fill="none" xmlns="http://www.w3.org/2000/svg"><path d="m10.992 17.9 20.923 11.57m0 0L21.791 11.776M31.915 29.47l23.623-19.058M31.915 29.471 50.14 43.764M31.915 29.47 6.942 45.125" stroke="url(#a)"/><circle opacity=".4" cx="56.085" cy="10.222" r="10.222" fill="url(#b)"/><g style="mix-blend-mode:multiply" opacity=".4"><circle cx="6.248" cy="44.662" r="5.748" fill="url(#c)"/><circle cx="6.248" cy="44.662" r="5.748" stroke="url(#d)"/></g><circle cx="31.952" cy="29.105" r="13.912" fill="url(#e)" style="mix-blend-mode:multiply" opacity=".4"/><circle cx="31.952" cy="29.105" r="7.201" fill="#AD37E5" style="mix-blend-mode:multiply"/><circle cx="10.575" cy="17.279" r="4.327" fill="url(#f)"/><g style="mix-blend-mode:multiply"><circle cx="56.085" cy="10.222" r="2.231" fill="url(#g)"/><circle cx="56.085" cy="10.222" r="2.231" stroke="url(#h)"/></g><g style="mix-blend-mode:multiply"><circle cx="6.248" cy="44.662" r="2.17" fill="url(#i)"/><circle cx="6.248" cy="44.662" r="2.17" stroke="url(#j)"/></g><g style="mix-blend-mode:multiply"><circle cx="50.684" cy="43.761" r="2.17" fill="url(#k)"/><circle cx="50.684" cy="43.761" r="2.17" stroke="url(#l)"/></g><g style="mix-blend-mode:multiply"><circle cx="22.081" cy="11.436" r="2.17" fill="url(#m)"/><circle cx="22.081" cy="11.436" r="2.17" stroke="url(#n)"/></g><circle cx="31.952" cy="29.105" r="2.51" fill="#fff"/><defs><linearGradient id="a" x1="95.189" y1="138.215" x2="-23.814" y2="116.499" gradientUnits="userSpaceOnUse"><stop offset=".026" stop-color="#4512C7"/><stop offset=".531" stop-color="#59C3FF"/><stop offset="1" stop-color="#75FF86"/></linearGradient><linearGradient id="b" x1="82.987" y1="75.269" x2="32.122" y2="68.639" gradientUnits="userSpaceOnUse"><stop offset=".026" stop-color="#4512C7"/><stop offset=".531" stop-color="#59C3FF"/><stop offset="1" stop-color="#75FF86"/></linearGradient><linearGradient id="c" x1="22.692" y1="84.422" x2="-8.399" y2="80.37" gradientUnits="userSpaceOnUse"><stop offset=".026" stop-color="#4512C7"/><stop offset=".531" stop-color="#59C3FF"/><stop offset="1" stop-color="#75FF86"/></linearGradient><linearGradient id="d" x1="22.692" y1="84.422" x2="-8.399" y2="80.37" gradientUnits="userSpaceOnUse"><stop offset=".026" stop-color="#4512C7"/><stop offset=".531" stop-color="#59C3FF"/><stop offset="1" stop-color="#75FF86"/></linearGradient><linearGradient id="e" x1="39.278" y1="43.09" x2="20.973" y2="21.928" gradientUnits="userSpaceOnUse"><stop stop-color="#5A34CB"/><stop offset="1" stop-color="#B634CB"/></linearGradient><linearGradient id="f" x1="21.962" y1="44.813" x2=".431" y2="42.007" gradientUnits="userSpaceOnUse"><stop offset=".026" stop-color="#4512C7"/><stop offset=".531" stop-color="#59C3FF"/><stop offset="1" stop-color="#75FF86"/></linearGradient><linearGradient id="g" x1="63.272" y1="27.599" x2="49.683" y2="25.828" gradientUnits="userSpaceOnUse"><stop offset=".026" stop-color="#4512C7"/><stop offset=".531" stop-color="#59C3FF"/><stop offset="1" stop-color="#75FF86"/></linearGradient><linearGradient id="h" x1="63.272" y1="27.599" x2="49.683" y2="25.828" gradientUnits="userSpaceOnUse"><stop offset=".026" stop-color="#4512C7"/><stop offset=".531" stop-color="#59C3FF"/><stop offset="1" stop-color="#75FF86"/></linearGradient><linearGradient id="i" x1="13.274" y1="61.651" x2="-.011" y2="59.92" gradientUnits="userSpaceOnUse"><stop offset=".026" stop-color="#4512C7"/><stop offset=".531" stop-color="#59C3FF"/><stop offset="1" stop-color="#75FF86"/></linearGradient><linearGradient id="j" x1="13.274" y1="61.651" x2="-.011" y2="59.92" gradientUnits="userSpaceOnUse"><stop offset=".026" stop-color="#4512C7"/><stop offset=".531" stop-color="#59C3FF"/><stop offset="1" stop-color="#75FF86"/></linearGradient><linearGradient id="k" x1="57.711" y1="60.75" x2="44.426" y2="59.019" gradientUnits="userSpaceOnUse"><stop offset=".026" stop-color="#4512C7"/><stop offset=".531" stop-color="#59C3FF"/><stop offset="1" stop-color="#75FF86"/></linearGradient><linearGradient id="l" x1="57.711" y1="60.75" x2="44.426" y2="59.019" gradientUnits="userSpaceOnUse"><stop offset=".026" stop-color="#4512C7"/><stop offset=".531" stop-color="#59C3FF"/><stop offset="1" stop-color="#75FF86"/></linearGradient><linearGradient id="m" x1="29.107" y1="28.425" x2="15.822" y2="26.693" gradientUnits="userSpaceOnUse"><stop offset=".026" stop-color="#4512C7"/><stop offset=".531" stop-color="#59C3FF"/><stop offset="1" stop-color="#75FF86"/></linearGradient><linearGradient id="n" x1="29.107" y1="28.425" x2="15.822" y2="26.693" gradientUnits="userSpaceOnUse"><stop offset=".026" stop-color="#4512C7"/><stop offset=".531" stop-color="#59C3FF"/><stop offset="1" stop-color="#75FF86"/></linearGradient></defs></svg>