<svg width="37" height="29" fill="none" xmlns="http://www.w3.org/2000/svg"><path fill-rule="evenodd" clip-rule="evenodd" d="M30.308 12.306 37 8.406l-6.692-3.9v7.8Zm-24.97 13.28v3.147h-2v-3.148c0-4.375.907-8.929 3.663-12.406 2.79-3.521 7.343-5.773 14.265-5.773h9.042v2h-9.042c-6.458 0-10.369 2.076-12.698 5.015-2.363 2.981-3.23 7.017-3.23 11.164Z" fill="url(#a)" style="mix-blend-mode:multiply"/><g style="mix-blend-mode:multiply"><path d="M0 .704C0 5.105.911 9.72 3.713 13.255c2.844 3.589 7.472 5.861 14.448 5.861h2.337V16.65h-2.337c-6.403 0-10.24-2.056-12.515-4.927C3.329 8.8 2.466 4.825 2.466.703H0Z" fill="url(#b)"/><path d="m20.498 21.783 6.693-3.9-6.692-3.9v7.8Z" fill="url(#c)"/></g><defs><linearGradient id="a" x1="29.032" y1="28.796" x2="14.579" y2="5.581" gradientUnits="userSpaceOnUse"><stop stop-color="#5A34CB"/><stop offset="1" stop-color="#B634CB"/></linearGradient><linearGradient id="b" x1="49.376" y1="78.315" x2="-17.535" y2="67.065" gradientUnits="userSpaceOnUse"><stop offset=".026" stop-color="#4512C7"/><stop offset=".531" stop-color="#59C3FF"/><stop offset="1" stop-color="#75FF86"/></linearGradient><linearGradient id="c" x1="49.376" y1="78.315" x2="-17.535" y2="67.065" gradientUnits="userSpaceOnUse"><stop offset=".026" stop-color="#4512C7"/><stop offset=".531" stop-color="#59C3FF"/><stop offset="1" stop-color="#75FF86"/></linearGradient></defs></svg>