<svg width="38" height="38" fill="none" xmlns="http://www.w3.org/2000/svg"><mask id="b" fill="#fff"><rect x="20.879" width="16.878" height="16.878" rx="1"/></mask><rect x="20.879" width="16.878" height="16.878" rx="1" stroke="url(#a)" stroke-width="4" stroke-linejoin="round" stroke-dasharray="2 2" mask="url(#b)"/><path fill-rule="evenodd" clip-rule="evenodd" d="M0 2a2 2 0 0 1 2-2h12.878a2 2 0 0 1 2 2v12.878a2 2 0 0 1-2 2H2a2 2 0 0 1-2-2V2Zm0 20.878a2 2 0 0 1 2-2h12.878a2 2 0 0 1 2 2v12.879a2 2 0 0 1-2 2H2a2 2 0 0 1-2-2V22.878Zm37.757 0a2 2 0 0 0-2-2H22.878a2 2 0 0 0-2 2v12.879a2 2 0 0 0 2 2h12.879a2 2 0 0 0 2-2V22.878Z" fill="url(#c)" style="mix-blend-mode:multiply"/><defs><linearGradient id="a" x1="51.529" y1="62.143" x2="9.534" y2="56.669" gradientUnits="userSpaceOnUse"><stop offset=".026" stop-color="#4512C7"/><stop offset=".531" stop-color="#59C3FF"/><stop offset="1" stop-color="#75FF86"/></linearGradient><linearGradient id="c" x1="28.82" y1="37.855" x2="3.98" y2="9.139" gradientUnits="userSpaceOnUse"><stop stop-color="#5A34CB"/><stop offset="1" stop-color="#B634CB"/></linearGradient></defs></svg>