<svg width="190" height="190" xmlns="http://www.w3.org/2000/svg" xmlns:xlink="http://www.w3.org/1999/xlink"><g style="mix-blend-mode:normal"><g style="mix-blend-mode:normal" transform="translate(-61 -613)"><mask id="b"><use xlink:href="#a" fill="#fff" transform="translate(61 613)"/></mask><g mask="url(#b)"><use xlink:href="#c" transform="translate(61 613)" fill="#9EA1A6" style="mix-blend-mode:normal"/></g></g><g style="mix-blend-mode:normal" opacity=".5"><g style="mix-blend-mode:normal" transform="translate(-61 -613)"><mask id="e"><use xlink:href="#d" fill="#fff" transform="translate(111 663)"/></mask><g mask="url(#e)"><use xlink:href="#f" transform="translate(111 663)" fill="#C6C8CC" style="mix-blend-mode:normal"/></g></g><use xlink:href="#g" transform="translate(51 96.5)" fill="#C6C8CC" style="mix-blend-mode:normal"/><use xlink:href="#h" transform="translate(68 77)" fill="#C6C8CC" style="mix-blend-mode:normal"/></g></g><defs><path id="a" d="M190 95c0 52.467-42.533 95-95 95S0 147.467 0 95 42.533 0 95 0s95 42.533 95 95Z"/><path id="c" d="M188 95c0 51.362-41.638 93-93 93v4c53.572 0 97-43.428 97-97h-4Zm-93 93c-51.362 0-93-41.638-93-93h-4c0 53.572 43.428 97 97 97v-4ZM2 95C2 43.638 43.638 2 95 2v-4C41.428-2-2 41.428-2 95h4ZM95 2c51.362 0 93 41.638 93 93h4c0-53.572-43.428-97-97-97v4Z"/><path id="d" d="M0 3a3 3 0 0 1 3-3h84a3 3 0 0 1 3 3v84a3 3 0 0 1-3 3H3a3 3 0 0 1-3-3V3Z"/><path id="f" d="M3 2h84v-4H3v4Zm85 1v84h4V3h-4Zm-1 85H3v4h84v-4ZM2 87V3h-4v84h4ZM3-2a5 5 0 0 0-5 5h4a1 1 0 0 1 1-1v-4Zm84 4a1 1 0 0 1 1 1h4a5 5 0 0 0-5-5v4Zm1 85a1 1 0 0 1-1 1v4a5 5 0 0 0 5-5h-4ZM3 88a1 1 0 0 1-1-1h-4a5 5 0 0 0 5 5v-4Z"/><path id="g" d="M-.46 18.613a1 1 0 0 0 .92 1.774l-.92-1.774ZM26 6l.515-.857a1 1 0 0 0-.976-.03L26 6Zm16.81 10.1-.514.857a1 1 0 0 0 1.069-.024l-.554-.833ZM67 0l.684-.73a1 1 0 0 0-1.238-.102L67 0Zm20.316 20.43a1 1 0 1 0 1.368-1.46l-1.368 1.46ZM.46 20.386l26-13.5-.922-1.774-26 13.5.922 1.774Zm25.024-13.53 16.81 10.1 1.03-1.714-16.81-10.1-1.03 1.714Zm17.88 10.076 24.19-16.1-1.11-1.665-24.188 16.1 1.108 1.665ZM66.315.729l21 19.7 1.37-1.458-21-19.7-1.37 1.458Z"/><path id="h" d="M14 7.5A6.5 6.5 0 0 1 7.5 14v2A8.5 8.5 0 0 0 16 7.5h-2ZM7.5 14A6.5 6.5 0 0 1 1 7.5h-2A8.5 8.5 0 0 0 7.5 16v-2ZM1 7.5A6.5 6.5 0 0 1 7.5 1v-2A8.5 8.5 0 0 0-1 7.5h2ZM7.5 1A6.5 6.5 0 0 1 14 7.5h2A8.5 8.5 0 0 0 7.5-1v2Z"/></defs></svg>