<svg width="20" height="25" fill="none" xmlns="http://www.w3.org/2000/svg"><path d="M9.322 9.133H3.848V8.058h5.474v1.075Z" fill="#111"/><path d="M9.322 9.133H3.848V8.058h5.474v1.075Z" fill="url(#a)"/><path d="M3.848 13.698h9.833v-1.075H3.848v1.075Z" fill="#111"/><path d="M3.848 13.698h9.833v-1.075H3.848v1.075Z" fill="url(#b)"/><path d="M13.681 16.723H3.848v-1.075h9.833v1.075Z" fill="#111"/><path d="M13.681 16.723H3.848v-1.075h9.833v1.075Z" fill="url(#c)"/><path fill-rule="evenodd" clip-rule="evenodd" d="M17.53 5.436v16.546a.54.54 0 0 1-.542.537H.542A.54.54 0 0 1 0 21.982V.538A.54.54 0 0 1 .542 0h11.411c.142 0 .278.055.38.154l5.026 4.882.006.006c.11.105.167.249.165.394Zm-6.156-4.36H1.084v20.368h15.361V5.965h-4.529a.54.54 0 0 1-.542-.537V1.075ZM12.46 4.89V1.81l3.194 3.08H12.46Z" fill="#111"/><path fill-rule="evenodd" clip-rule="evenodd" d="M17.53 5.436v16.546a.54.54 0 0 1-.542.537H.542A.54.54 0 0 1 0 21.982V.538A.54.54 0 0 1 .542 0h11.411c.142 0 .278.055.38.154l5.026 4.882.006.006c.11.105.167.249.165.394Zm-6.156-4.36H1.084v20.368h15.361V5.965h-4.529a.54.54 0 0 1-.542-.537V1.075ZM12.46 4.89V1.81l3.194 3.08H12.46Z" fill="url(#d)"/><path d="M18.916 7.908v16.017H3.012V25h16.446c.3 0 .542-.24.542-.538V7.909h-1.084Z" fill="#111"/><path d="M18.916 7.908v16.017H3.012V25h16.446c.3 0 .542-.24.542-.538V7.909h-1.084Z" fill="url(#e)"/><defs><linearGradient id="a" x1="12.796" y1="48.484" x2="-7.477" y2="45.391" gradientUnits="userSpaceOnUse"><stop stop-color="#5C29F1"/><stop offset=".474" stop-color="#E37AC2"/><stop offset=".807" stop-color="#FF9067"/></linearGradient><linearGradient id="b" x1="12.796" y1="48.484" x2="-7.477" y2="45.391" gradientUnits="userSpaceOnUse"><stop stop-color="#5C29F1"/><stop offset=".474" stop-color="#E37AC2"/><stop offset=".807" stop-color="#FF9067"/></linearGradient><linearGradient id="c" x1="12.796" y1="48.484" x2="-7.477" y2="45.391" gradientUnits="userSpaceOnUse"><stop stop-color="#5C29F1"/><stop offset=".474" stop-color="#E37AC2"/><stop offset=".807" stop-color="#FF9067"/></linearGradient><linearGradient id="d" x1="12.796" y1="48.484" x2="-7.477" y2="45.391" gradientUnits="userSpaceOnUse"><stop stop-color="#5C29F1"/><stop offset=".474" stop-color="#E37AC2"/><stop offset=".807" stop-color="#FF9067"/></linearGradient><linearGradient id="e" x1="12.796" y1="48.484" x2="-7.477" y2="45.391" gradientUnits="userSpaceOnUse"><stop stop-color="#5C29F1"/><stop offset=".474" stop-color="#E37AC2"/><stop offset=".807" stop-color="#FF9067"/></linearGradient></defs></svg>