<svg width="20" height="25" viewBox="0 0 20 25" fill="none" xmlns="http://www.w3.org/2000/svg"> <path d="M9.32227 9.1334H3.84812V8.05831H9.32227V9.1334Z" fill="#111111"/> <path d="M9.32227 9.1334H3.84812V8.05831H9.32227V9.1334Z" fill="url(#paint0_linear)"/> <path d="M3.84812 13.6982H13.6812V12.6232H3.84812V13.6982Z" fill="#111111"/> <path d="M3.84812 13.6982H13.6812V12.6232H3.84812V13.6982Z" fill="url(#paint1_linear)"/> <path d="M13.6812 16.7228H3.84812V15.6477H13.6812V16.7228Z" fill="#111111"/> <path d="M13.6812 16.7228H3.84812V15.6477H13.6812V16.7228Z" fill="url(#paint2_linear)"/> <path fill-rule="evenodd" clip-rule="evenodd" d="M17.5296 5.43582V21.9819C17.5296 22.2787 17.2869 22.5194 16.9876 22.5194H0.542068C0.242692 22.5194 0 22.2787 0 21.9819V0.537543C0 0.240666 0.242692 0 0.542068 0H11.953C12.0948 0 12.231 0.0551124 12.3323 0.153516L17.3594 5.03623L17.3655 5.04211C17.4746 5.14734 17.5319 5.29056 17.5296 5.43582ZM11.3744 1.07509H1.08414V21.4443H16.4455V5.96504H11.9165C11.6171 5.96504 11.3744 5.72437 11.3744 5.4275V1.07509ZM12.4586 4.88996V1.81002L15.6526 4.88996H12.4586Z" fill="#111111"/> <path fill-rule="evenodd" clip-rule="evenodd" d="M17.5296 5.43582V21.9819C17.5296 22.2787 17.2869 22.5194 16.9876 22.5194H0.542068C0.242692 22.5194 0 22.2787 0 21.9819V0.537543C0 0.240666 0.242692 0 0.542068 0H11.953C12.0948 0 12.231 0.0551124 12.3323 0.153516L17.3594 5.03623L17.3655 5.04211C17.4746 5.14734 17.5319 5.29056 17.5296 5.43582ZM11.3744 1.07509H1.08414V21.4443H16.4455V5.96504H11.9165C11.6171 5.96504 11.3744 5.72437 11.3744 5.4275V1.07509ZM12.4586 4.88996V1.81002L15.6526 4.88996H12.4586Z" fill="url(#paint3_linear)"/> <path d="M18.9159 7.9081V23.9249H3.01243V25H19.4579C19.7573 25 20 24.7593 20 24.4625V7.9081H18.9159Z" fill="#111111"/> <path d="M18.9159 7.9081V23.9249H3.01243V25H19.4579C19.7573 25 20 24.7593 20 24.4625V7.9081H18.9159Z" fill="url(#paint4_linear)"/> <defs> <linearGradient id="paint0_linear" x1="12.796" y1="48.4837" x2="-7.47732" y2="45.3909" gradientUnits="userSpaceOnUse"> <stop stop-color="#5C29F1"/> <stop offset="0.473958" stop-color="#E37AC2"/> <stop offset="0.807292" stop-color="#FF9067"/> </linearGradient> <linearGradient id="paint1_linear" x1="12.796" y1="48.4837" x2="-7.47732" y2="45.3909" gradientUnits="userSpaceOnUse"> <stop stop-color="#5C29F1"/> <stop offset="0.473958" stop-color="#E37AC2"/> <stop offset="0.807292" stop-color="#FF9067"/> </linearGradient> <linearGradient id="paint2_linear" x1="12.796" y1="48.4837" x2="-7.47732" y2="45.3909" gradientUnits="userSpaceOnUse"> <stop stop-color="#5C29F1"/> <stop offset="0.473958" stop-color="#E37AC2"/> <stop offset="0.807292" stop-color="#FF9067"/> </linearGradient> <linearGradient id="paint3_linear" x1="12.796" y1="48.4837" x2="-7.47732" y2="45.3909" gradientUnits="userSpaceOnUse"> <stop stop-color="#5C29F1"/> <stop offset="0.473958" stop-color="#E37AC2"/> <stop offset="0.807292" stop-color="#FF9067"/> </linearGradient> <linearGradient id="paint4_linear" x1="12.796" y1="48.4837" x2="-7.47732" y2="45.3909" gradientUnits="userSpaceOnUse"> <stop stop-color="#5C29F1"/> <stop offset="0.473958" stop-color="#E37AC2"/> <stop offset="0.807292" stop-color="#FF9067"/> </linearGradient> </defs> </svg>