<svg version="1.0" xmlns="http://www.w3.org/2000/svg" width="933.333" height="933.333" viewBox="0 0 700 700"><path d="M38.7 123.7c-.1.1-2.4.3-5.2.4-15.5.9-26.9 9.6-31.9 24.4C.1 153.1 0 163 .3 271c.2 64.6.6 118.8 1 120.5.4 1.6 1.2 5.9 1.8 9.5 2.4 13.6 6.9 30 11.2 40.5 18 43.9 48 79.2 86.9 102.4 27.5 16.4 56.5 25.8 88.8 28.8 9.7.9 141.6.9 153.5 0 11.9-.9 18.9-1.9 27.2-3.8 2.7-.6 5.5-1.2 6.3-1.4 16.4-3.4 38.4-12.3 56.5-22.8 17.7-10.3 44.8-33.6 55.5-47.7 1.9-2.5 3.7-4.7 4-5 1.7-1.5 10.4-14.8 15.1-23 9.7-16.9 17.5-35.9 20.9-51 .7-3 1.6-6.5 2.1-7.7l.8-2.2 5.9 2.3c8.4 3.3 14.9 4.8 27.2 6.3 11.9 1.5 34.1.3 42-2.2 1-.3 2.8-.8 4.1-1 8.2-1.6 29.4-11.8 38.7-18.8 7.9-5.8 18.1-15.5 22.8-21.3 5.9-7.5 15.1-22.2 15.9-25.4.1-.3 1.1-2.6 2.3-5.2 6.3-14 9.2-30.7 8.7-49.8-.2-6.9-.6-13.6-.9-15-.3-1.4-.9-4.1-1.2-6-2-11.9-9.6-29.7-18.2-42.5-14.3-21.2-31.1-34.6-57.2-45.9-4.4-1.9-17.1-5.3-22.5-6-2.2-.3-6-.8-8.5-1.2-14-1.9-35 .5-49.7 5.6l-5.3 1.8-.1-2.6c0-1.5-.1-9-.3-16.7-.2-12.6-.5-14.6-2.7-19.5-3.3-7.1-7.1-11.5-13.4-15.5-5.4-3.4-7.7-4.2-14.1-5.1-3.5-.5-466.3-1.2-466.7-.7zm555.2 123.6c8 2.3 18.6 9.2 24.1 15.5 21 24.2 14.7 62.5-13 78.6-19.8 11.5-45.3 8.6-61.4-7.1-8.3-8-7.9-6.4-7.8-34.1 0-13.6.1-26.7.1-29.1.1-4 .6-4.9 6.6-10.7 7.3-7.1 11.9-9.9 21.5-13 8.6-2.8 20.9-2.8 29.9-.1z"/></svg>