<svg width="948" height="727" fill="none" xmlns="http://www.w3.org/2000/svg"><g filter="url(#a)"><rect x="133" y="23" width="681.532" height="460.707" rx="8" fill="#151734"/><rect x="131.5" y="21.5" width="684.532" height="463.707" rx="9.5" stroke="url(#b)" stroke-width="3"/></g><rect x="165.589" y="339.873" width="192.251" height="107.048" rx="5" fill="#293567"/><path d="M165.589 423.948H357.84v17.973a5 5 0 0 1-5 5H170.589a5 5 0 0 1-5-5v-17.973Z" fill="#3A467C"/><rect x="375.709" y="339.873" width="192.251" height="107.048" rx="5" fill="#293567"/><rect x="585.83" y="339.873" width="192.251" height="107.048" rx="5" fill="#293567"/><path d="M759.433 60a2.485 2.485 0 1 1-4.97 0 2.485 2.485 0 0 1 4.97 0Zm7.97 0a2.485 2.485 0 1 1-4.97.001 2.485 2.485 0 0 1 4.97 0Zm7.97 0a2.484 2.484 0 1 1-4.969.002 2.484 2.484 0 0 1 4.969-.001ZM325.869 355.75a2.484 2.484 0 1 1-4.968 0 2.484 2.484 0 0 1 4.968 0Zm7.971 0a2.485 2.485 0 1 1-4.97-.001 2.485 2.485 0 0 1 4.97.001Zm7.97 0a2.485 2.485 0 1 1-4.97-.001 2.485 2.485 0 0 1 4.97.001Z" fill="#4E5EA4"/><rect x="165.589" y="48.254" width="265.162" height="24.573" rx="12.286" fill="#293567"/><path d="M395.428 48.254h23.037c6.785 0 12.286 5.5 12.286 12.286s-5.501 12.286-12.286 12.286h-23.037V48.254Z" fill="#4E5EA4"/><path clip-rule="evenodd" d="M410.38 63.614a3.912 3.912 0 1 0 0-7.824 3.912 3.912 0 0 0 0 7.824Z" stroke="#fff" stroke-width="1.5" stroke-linecap="round" stroke-linejoin="round"/><path d="m415.97 65.291-2.806-2.805" stroke="#fff" stroke-width="1.5" stroke-linecap="round" stroke-linejoin="round"/><rect x="211.785" y="97.21" width="566.296" height="193.435" rx="5" fill="#040815"/><path d="M211.785 306.153v9.336m191.965-9.336v9.336m-95.982-9.336v9.336m191.964-9.336v9.336m143.973-9.336v9.336m-383.929-9.336v9.336m191.965-9.336v9.336m143.974-9.336v9.336m-239.956-9.336v9.336m191.965-9.336v9.336m143.972-9.336v9.336m47.992-9.336v9.336m-518.304-9.336v4.668m191.964-4.668v4.668m-95.983-4.668v4.668m191.965-4.668v4.668m143.974-4.668v4.668m-383.929-4.668v4.668m191.964-4.668v4.668m143.973-4.668v4.668m-239.956-4.668v4.668m191.965-4.668v4.668m143.974-4.668v4.668m47.991-4.668v4.668m-518.305-4.668v4.668m191.965-4.668v4.668m-95.982-4.668v4.668m191.965-4.668v4.668m143.973-4.668v4.668m-383.929-4.668v4.668m191.965-4.668v4.668m143.973-4.668v4.668m-239.956-4.668v4.668m191.965-4.668v4.668m143.974-4.668v4.668m47.991-4.668v4.668m-518.305-4.668v4.668m191.965-4.668v4.668m-95.983-4.668v4.668m191.964-4.668v4.668m143.974-4.668v4.668m-383.929-4.668v4.668m191.964-4.668v4.668m143.974-4.668v4.668m-239.955-4.668v4.668m191.964-4.668v4.668m143.973-4.668v4.668m47.991-4.668v4.668m-518.304-4.668v4.668m191.965-4.668v4.668m-95.983-4.668v4.668m191.965-4.668v4.668m143.974-4.668v4.668m-383.93-4.668v4.668m191.965-4.668v4.668m143.973-4.668v4.668m-239.956-4.668v4.668m191.965-4.668v4.668m143.974-4.668v4.668m47.991-4.668v4.668" stroke="#5A69A8" stroke-width="2"/><path d="M211.785 268.927h566.296m-566.296-25h566.296m-566.296-25h566.296m-566.296-25h566.296m-566.296-25h566.296m-566.296-25h566.296m-566.296-25h566.296" stroke="#5A69A8" stroke-opacity=".51" stroke-dasharray="4 4"/><path d="M174.037 273.427v-5.505l-1.68 1.16v-1.515l2.26-1.565h1.045v7.425h-1.625Zm5.53.095c-.893 0-1.596-.301-2.11-.905-.51-.603-.765-1.566-.765-2.89 0-1.323.255-2.286.765-2.89.51-.603 1.214-.905 2.11-.905.894 0 1.595.302 2.105.905.514.604.77 1.567.77 2.89 0 1.324-.256 2.287-.77 2.89-.513.604-1.215.905-2.105.905Zm0-1.33c.27 0 .5-.073.69-.22.19-.15.335-.403.435-.76.104-.356.155-.85.155-1.48s-.051-1.125-.155-1.485c-.1-.36-.245-.613-.435-.76a1.08 1.08 0 0 0-.69-.225c-.266 0-.496.075-.69.225-.19.147-.336.399-.44.755-.1.357-.15.85-.15 1.48s.05 1.125.15 1.485c.1.36.245.615.435.765.194.147.425.22.695.22Zm6.54 1.33c-.894 0-1.597-.301-2.11-.905-.51-.603-.765-1.566-.765-2.89 0-1.323.255-2.286.765-2.89.51-.603 1.213-.905 2.11-.905.893 0 1.595.302 2.105.905.513.604.77 1.567.77 2.89 0 1.324-.257 2.287-.77 2.89-.514.604-1.215.905-2.105.905Zm0-1.33c.27 0 .5-.073.69-.22.19-.15.335-.403.435-.76.103-.356.155-.85.155-1.48s-.052-1.125-.155-1.485c-.1-.36-.245-.613-.435-.76a1.08 1.08 0 0 0-.69-.225c-.267 0-.497.075-.69.225-.19.147-.337.399-.44.755-.1.357-.15.85-.15 1.48s.05 1.125.15 1.485c.1.36.245.615.435.765.193.147.425.22.695.22ZM171.3 223.427v-.87l2.045-2.55c.316-.396.538-.731.665-1.005.13-.273.195-.531.195-.775 0-.336-.107-.585-.32-.745-.21-.163-.555-.245-1.035-.245a4.765 4.765 0 0 0-1.64.29v-1.32a4.48 4.48 0 0 1 .84-.195c.34-.053.665-.08.975-.08.913 0 1.605.172 2.075.515.47.34.705.882.705 1.625 0 .374-.077.75-.23 1.13-.154.377-.429.805-.825 1.285l-1.315 1.6h2.725v1.34h-4.86Zm8.267.095c-.893 0-1.596-.301-2.11-.905-.51-.603-.765-1.566-.765-2.89 0-1.323.255-2.286.765-2.89.51-.603 1.214-.905 2.11-.905.894 0 1.595.302 2.105.905.514.604.77 1.567.77 2.89 0 1.324-.256 2.287-.77 2.89-.513.604-1.215.905-2.105.905Zm0-1.33c.27 0 .5-.073.69-.22.19-.15.335-.403.435-.76.104-.356.155-.85.155-1.48s-.051-1.125-.155-1.485c-.1-.36-.245-.613-.435-.76a1.08 1.08 0 0 0-.69-.225c-.266 0-.496.075-.69.225-.19.147-.336.399-.44.755-.1.357-.15.85-.15 1.48s.05 1.125.15 1.485c.1.36.245.615.435.765.194.147.425.22.695.22Zm6.54 1.33c-.894 0-1.597-.301-2.11-.905-.51-.603-.765-1.566-.765-2.89 0-1.323.255-2.286.765-2.89.51-.603 1.213-.905 2.11-.905.893 0 1.595.302 2.105.905.513.604.77 1.567.77 2.89 0 1.324-.257 2.287-.77 2.89-.514.604-1.215.905-2.105.905Zm0-1.33c.27 0 .5-.073.69-.22.19-.15.335-.403.435-.76.103-.356.155-.85.155-1.48s-.052-1.125-.155-1.485c-.1-.36-.245-.613-.435-.76a1.08 1.08 0 0 0-.69-.225c-.267 0-.497.075-.69.225-.19.147-.337.399-.44.755-.1.357-.15.85-.15 1.48s.05 1.125.15 1.485c.1.36.245.615.435.765.193.147.425.22.695.22Zm-13.054-48.67a7.53 7.53 0 0 1-1.005-.065 6.288 6.288 0 0 1-.92-.19v-1.215c.284.08.59.144.92.19.33.047.644.07.94.07.534 0 .922-.088 1.165-.265.244-.176.365-.435.365-.775 0-.326-.116-.576-.35-.75-.23-.176-.62-.265-1.17-.265h-1.085v-1.23h.84c.53 0 .912-.085 1.145-.255.234-.17.35-.408.35-.715 0-.296-.106-.523-.32-.68-.21-.156-.543-.235-1-.235-.276 0-.561.024-.855.07a4.517 4.517 0 0 0-.815.205v-1.215c.24-.08.529-.145.865-.195.34-.05.667-.075.98-.075.897 0 1.57.174 2.02.52.454.344.68.83.68 1.46 0 .417-.111.774-.335 1.07-.22.294-.526.499-.92.615.48.104.849.305 1.105.605.26.297.39.687.39 1.17 0 .674-.248 1.2-.745 1.58-.493.38-1.241.57-2.245.57Zm6.514 0c-.893 0-1.596-.301-2.11-.905-.51-.603-.765-1.566-.765-2.89 0-1.323.255-2.286.765-2.89.51-.603 1.214-.905 2.11-.905.894 0 1.595.302 2.105.905.514.604.77 1.567.77 2.89 0 1.324-.256 2.287-.77 2.89-.513.604-1.215.905-2.105.905Zm0-1.33c.27 0 .5-.073.69-.22.19-.15.335-.403.435-.76.104-.356.155-.85.155-1.48s-.051-1.125-.155-1.485c-.1-.36-.245-.613-.435-.76a1.08 1.08 0 0 0-.69-.225c-.266 0-.496.075-.69.225-.19.147-.336.399-.44.755-.1.357-.15.85-.15 1.48s.05 1.125.15 1.485c.1.36.245.615.435.765.194.147.425.22.695.22Zm6.54 1.33c-.894 0-1.597-.301-2.11-.905-.51-.603-.765-1.566-.765-2.89 0-1.323.255-2.286.765-2.89.51-.603 1.213-.905 2.11-.905.893 0 1.595.302 2.105.905.513.604.77 1.567.77 2.89 0 1.324-.257 2.287-.77 2.89-.514.604-1.215.905-2.105.905Zm0-1.33c.27 0 .5-.073.69-.22.19-.15.335-.403.435-.76.103-.356.155-.85.155-1.48s-.052-1.125-.155-1.485c-.1-.36-.245-.613-.435-.76a1.08 1.08 0 0 0-.69-.225c-.267 0-.497.075-.69.225-.19.147-.337.399-.44.755-.1.357-.15.85-.15 1.48s.05 1.125.15 1.485c.1.36.245.615.435.765.193.147.425.22.695.22Zm-15.868-50.29v-.885l2.58-4.99h1.56l-2.36 4.625h1.82l.165-2.125h1.295v2.125h.955v1.25h-.955v1.525h-1.46v-1.525h-3.6Zm9.328 1.62c-.893 0-1.596-.301-2.11-.905-.51-.603-.765-1.566-.765-2.89 0-1.323.255-2.286.765-2.89.51-.603 1.214-.905 2.11-.905.894 0 1.595.302 2.105.905.514.604.77 1.567.77 2.89 0 1.324-.256 2.287-.77 2.89-.513.604-1.215.905-2.105.905Zm0-1.33c.27 0 .5-.073.69-.22.19-.15.335-.403.435-.76.104-.356.155-.85.155-1.48s-.051-1.125-.155-1.485c-.1-.36-.245-.613-.435-.76a1.08 1.08 0 0 0-.69-.225c-.266 0-.496.075-.69.225-.19.147-.336.399-.44.755-.1.357-.15.85-.15 1.48s.05 1.125.15 1.485c.1.36.245.615.435.765.194.147.425.22.695.22Zm6.54 1.33c-.894 0-1.597-.301-2.11-.905-.51-.603-.765-1.566-.765-2.89 0-1.323.255-2.286.765-2.89.51-.603 1.213-.905 2.11-.905.893 0 1.595.302 2.105.905.513.604.77 1.567.77 2.89 0 1.324-.257 2.287-.77 2.89-.514.604-1.215.905-2.105.905Zm0-1.33c.27 0 .5-.073.69-.22.19-.15.335-.403.435-.76.103-.356.155-.85.155-1.48s-.052-1.125-.155-1.485c-.1-.36-.245-.613-.435-.76a1.08 1.08 0 0 0-.69-.225c-.267 0-.497.075-.69.225-.19.147-.337.399-.44.755-.1.357-.15.85-.15 1.48s.05 1.125.15 1.485c.1.36.245.615.435.765.193.147.425.22.695.22Zm15.07-3.264-5.37 3.1v-6.201l5.37 3.101Zm0 50-5.37 3.1v-6.201l5.37 3.101Zm0 49.999-5.37 3.1v-6.2l5.37 3.1Zm0 50-5.37 3.1v-6.2l5.37 3.1Z" fill="#5A69A8"/><path d="M360.328 197.376c-47.86 2.166-88.148 47.848-115.204 71.002h464.163V143.75c-19.292 21.595-36.976 43.712-73.989 75.184-46.266 39.34-73.573 40.538-108.161 40.538-34.849 0-57.076-12.332-84.769-30.333-34.645-22.519-48.002-33.303-82.04-31.763Z" fill="#111"/><path d="M360.328 197.376c-47.86 2.166-88.148 47.848-115.204 71.002h464.163V143.75c-19.292 21.595-36.976 43.712-73.989 75.184-46.266 39.34-73.573 40.538-108.161 40.538-34.849 0-57.076-12.332-84.769-30.333-34.645-22.519-48.002-33.303-82.04-31.763Z" fill="url(#c)"/><path d="M360.328 197.376c-47.86 2.166-88.148 47.848-115.204 71.002h464.163V143.75c-19.292 21.595-36.976 43.712-73.989 75.184-46.266 39.34-73.573 40.538-108.161 40.538-34.849 0-57.076-12.332-84.769-30.333-34.645-22.519-48.002-33.303-82.04-31.763Z" fill="url(#d)"/><g filter="url(#e)"><circle cx="245.298" cy="268.927" r="4.88" fill="#AD37E5"/><circle cx="245.298" cy="268.927" r="3.88" stroke="#040815" stroke-width="2"/></g><g filter="url(#f)"><circle cx="365.357" cy="197.375" r="4.88" fill="#AD37E5"/><circle cx="365.357" cy="197.375" r="3.88" stroke="#040815" stroke-width="2"/></g><g filter="url(#g)"><circle cx="709.287" cy="143.75" r="4.88" fill="#AD37E5"/><circle cx="709.287" cy="143.75" r="3.88" stroke="#040815" stroke-width="2"/></g><g filter="url(#h)"><path d="M395.221 154.599h-59.729v21.832h25.925l3.94 6.824 3.94-6.824h25.924v-21.832Z" fill="url(#i)"/></g><g filter="url(#j)"><path d="M556.765 90.271h-59.729v21.832h25.925l3.94 6.824 3.94-6.824h25.924V90.271Z" fill="url(#k)"/></g><path d="M355.809 168.927v-.87l2.045-2.55c.316-.396.538-.731.665-1.005.13-.273.195-.531.195-.775 0-.336-.107-.585-.32-.745-.21-.163-.555-.245-1.035-.245a4.765 4.765 0 0 0-1.64.29v-1.32a4.48 4.48 0 0 1 .84-.195c.34-.053.665-.08.975-.08.913 0 1.605.172 2.075.515.47.34.705.882.705 1.625 0 .374-.077.75-.23 1.13-.154.377-.429.805-.825 1.285l-1.315 1.6h2.725v1.34h-4.86Zm5.85-1.525v-.885l2.58-4.99h1.56l-2.36 4.625h1.82l.165-2.125h1.295v2.125h.955v1.25h-.955v1.525h-1.46v-1.525h-3.6Zm10.374 1.62c-1.02 0-1.768-.18-2.245-.54-.477-.36-.715-.826-.715-1.4 0-.396.113-.748.34-1.055.227-.31.555-.555.985-.735-.41-.226-.7-.49-.87-.79a2.066 2.066 0 0 1-.25-1.015c0-.613.237-1.108.71-1.485.477-.38 1.182-.57 2.115-.57.83 0 1.475.167 1.935.5.463.334.695.79.695 1.37 0 .35-.088.674-.265.97-.173.297-.465.549-.875.755.503.23.853.497 1.05.8.197.3.295.657.295 1.07 0 .407-.108.772-.325 1.095-.213.32-.535.572-.965.755-.43.184-.968.275-1.615.275Zm-1.225-5.595c0 .187.043.349.13.485.09.137.257.264.5.38.247.117.603.237 1.07.36.293-.163.503-.34.63-.53.13-.193.195-.413.195-.66 0-.293-.107-.518-.32-.675-.213-.156-.523-.235-.93-.235-.44 0-.763.082-.97.245a.775.775 0 0 0-.305.63Zm-.22 3.47c0 .324.118.572.355.745.24.174.605.26 1.095.26.477 0 .827-.08 1.05-.24a.773.773 0 0 0 .34-.67.856.856 0 0 0-.145-.5c-.097-.14-.268-.265-.515-.375a6.29 6.29 0 0 0-1.03-.33 8.689 8.689 0 0 1-.295-.08c-.293.137-.51.312-.65.525-.137.21-.205.432-.205.665Zm148.576-62.203c-.344 0-.679-.021-1.005-.065a6.261 6.261 0 0 1-.92-.19v-1.215c.283.08.59.144.92.19.33.047.643.07.94.07.533 0 .921-.088 1.165-.265.243-.176.365-.435.365-.775 0-.326-.117-.576-.35-.75-.23-.176-.62-.265-1.17-.265h-1.085v-1.23h.84c.53 0 .911-.085 1.145-.255a.835.835 0 0 0 .35-.715c0-.296-.107-.523-.32-.68-.21-.156-.544-.235-1-.235a5.43 5.43 0 0 0-.855.07 4.463 4.463 0 0 0-.815.205v-1.215c.24-.08.528-.145.865-.195.34-.05.666-.075.98-.075.896 0 1.57.174 2.02.52.453.344.68.83.68 1.46 0 .417-.112.774-.335 1.07-.22.294-.527.499-.92.615.48.104.848.305 1.105.605.26.297.39.687.39 1.17 0 .674-.249 1.2-.745 1.58-.494.38-1.242.57-2.245.57Zm7.424 0c-.574 0-1.077-.12-1.51-.36-.434-.243-.772-.626-1.015-1.15-.244-.523-.365-1.205-.365-2.045 0-1.363.31-2.376.93-3.04.623-.663 1.506-.995 2.65-.995.276 0 .541.017.795.05.256.034.495.092.715.175v1.24a3.85 3.85 0 0 0-.695-.17 4.56 4.56 0 0 0-.74-.06c-.677 0-1.187.182-1.53.545-.344.36-.525.92-.545 1.68a2.5 2.5 0 0 1 .7-.305c.27-.073.545-.11.825-.11.45 0 .853.079 1.21.235.356.157.638.4.845.73.206.327.31.749.31 1.265 0 .727-.234 1.295-.7 1.705-.464.407-1.09.61-1.88.61Zm-.105-3.38c-.204 0-.41.03-.62.09a1.8 1.8 0 0 0-.58.275c.02.477.085.85.195 1.12.113.267.265.455.455.565.19.107.411.16.665.16.32 0 .583-.088.79-.265.206-.176.31-.455.31-.835 0-.386-.11-.668-.33-.845-.22-.176-.515-.265-.885-.265Zm7.093 3.38c-1.02 0-1.768-.18-2.245-.54-.477-.36-.715-.826-.715-1.4 0-.396.113-.748.34-1.055.227-.31.555-.555.985-.735-.41-.226-.7-.49-.87-.79a2.066 2.066 0 0 1-.25-1.015c0-.613.237-1.108.71-1.485.477-.38 1.182-.57 2.115-.57.83 0 1.475.167 1.935.5.463.334.695.79.695 1.37 0 .35-.088.674-.265.97-.173.297-.465.549-.875.755.503.23.853.497 1.05.8.197.3.295.657.295 1.07 0 .407-.108.772-.325 1.095-.213.32-.535.572-.965.755-.43.184-.968.275-1.615.275Zm-1.225-5.595c0 .187.043.349.13.485.09.137.257.264.5.38.247.117.603.237 1.07.36.293-.163.503-.34.63-.53.13-.193.195-.413.195-.66 0-.293-.107-.518-.32-.675-.213-.156-.523-.235-.93-.235-.44 0-.763.082-.97.245a.773.773 0 0 0-.305.63Zm-.22 3.47c0 .324.118.572.355.745.24.174.605.26 1.095.26.477 0 .827-.08 1.05-.24a.773.773 0 0 0 .34-.67.856.856 0 0 0-.145-.5c-.097-.14-.268-.265-.515-.375a6.29 6.29 0 0 0-1.03-.33 8.689 8.689 0 0 1-.295-.08c-.293.137-.51.312-.65.525-.137.21-.205.432-.205.665Zm-299.702 298.13v-1.035l7.23-8.325c1.33-1.54 2.255-2.835 2.775-3.885.52-1.05.78-2.08.78-3.09 0-1.55-.45-2.69-1.35-3.42-.89-.73-2.255-1.095-4.095-1.095-2.03 0-3.9.31-5.61.93v-1.65c.75-.28 1.61-.5 2.58-.66.98-.16 2.015-.24 3.105-.24 2.37 0 4.17.49 5.4 1.47 1.24.97 1.86 2.47 1.86 4.5 0 .87-.125 1.7-.375 2.49-.25.79-.67 1.63-1.26 2.52-.58.88-1.375 1.895-2.385 3.045l-5.97 6.84h11.49v1.605h-14.175Zm15.837-5.49v-1.05l10.02-15.66h1.965l-9.675 15.12h10.275l.27-7.62h1.515v7.62h3.51v1.59h-3.51v5.49h-1.785v-5.49h-12.585Zm30.648 5.76c-2.87 0-5.04-.505-6.51-1.515-1.47-1.02-2.205-2.48-2.205-4.38 0-1.42.395-2.62 1.185-3.6.79-.99 1.895-1.75 3.315-2.28-1.3-.58-2.235-1.3-2.805-2.16-.57-.87-.855-1.885-.855-3.045 0-1.78.67-3.185 2.01-4.215 1.35-1.03 3.26-1.545 5.73-1.545 2.44 0 4.335.495 5.685 1.485 1.35.99 2.025 2.36 2.025 4.11 0 2.66-1.38 4.56-4.14 5.7 1.78.55 3.055 1.27 3.825 2.16.78.89 1.17 1.975 1.17 3.255 0 1.83-.715 3.295-2.145 4.395-1.42 1.09-3.515 1.635-6.285 1.635Zm.69-12.09c.3.06.59.115.87.165 1.5-.57 2.585-1.26 3.255-2.07.68-.81 1.02-1.81 1.02-3 0-1.39-.525-2.445-1.575-3.165-1.05-.73-2.53-1.095-4.44-1.095-1.95 0-3.41.38-4.38 1.14-.97.75-1.455 1.775-1.455 3.075 0 .88.205 1.64.615 2.28.42.63 1.115 1.16 2.085 1.59.98.43 2.315.79 4.005 1.08Zm-7.56 6c0 1.51.585 2.655 1.755 3.435 1.18.78 2.895 1.17 5.145 1.17 2.15 0 3.78-.38 4.89-1.14 1.11-.76 1.665-1.855 1.665-3.285 0-1.27-.495-2.26-1.485-2.97-.98-.71-2.675-1.28-5.085-1.71-.96-.17-1.825-.37-2.595-.6-1.44.47-2.515 1.155-3.225 2.055a4.789 4.789 0 0 0-1.065 3.045Z" fill="#fff"/><path d="M431.439 193.651c-26.682 30.388-71.292 64.795-108.241 75.325h436.84v-89.791c-14.412 33.794-90.044 82.404-145.899 14.466-33.454-40.69-61.147-58.068-89.645-58.067-44.924 0-73.684 36.006-93.055 58.067Z" fill="url(#l)"/><g filter="url(#m)"><circle cx="760.038" cy="179.15" r="4.88" fill="#39D7E1"/><circle cx="760.038" cy="179.15" r="3.88" stroke="#040815" stroke-width="2"/></g><g filter="url(#n)"><circle cx="525.966" cy="135.583" r="4.88" fill="#39D7E1"/><circle cx="525.966" cy="135.583" r="3.88" stroke="#040815" stroke-width="2"/></g><g filter="url(#o)"><circle cx="638.247" cy="215.59" r="4.88" fill="#39D7E1"/><circle cx="638.247" cy="215.59" r="3.88" stroke="#040815" stroke-width="2"/></g><g filter="url(#p)"><circle cx="323.198" cy="268.976" r="4.88" fill="#39D7E1"/><circle cx="323.198" cy="268.976" r="3.88" stroke="#040815" stroke-width="2"/></g><g filter="url(#q)"><path d="M668.112 174.427h-59.729v21.832h25.924l3.94 6.824 3.94-6.824h25.925v-21.832Z" fill="url(#r)"/></g><path d="M628.836 188.755v-.87l2.045-2.55c.317-.396.538-.731.665-1.005.13-.273.195-.531.195-.775 0-.336-.107-.585-.32-.745-.21-.163-.555-.245-1.035-.245a4.781 4.781 0 0 0-1.64.29v-1.32a4.48 4.48 0 0 1 .84-.195c.34-.053.665-.08.975-.08.913 0 1.605.172 2.075.515.47.34.705.882.705 1.625 0 .374-.077.75-.23 1.13-.153.377-.428.805-.825 1.285l-1.315 1.6h2.725v1.34h-4.86Zm9.118.095c-.894 0-1.597-.301-2.11-.905-.51-.603-.765-1.566-.765-2.89 0-1.323.255-2.286.765-2.89.51-.603 1.213-.905 2.11-.905.893 0 1.595.302 2.105.905.513.604.77 1.567.77 2.89 0 1.324-.257 2.287-.77 2.89-.514.604-1.215.905-2.105.905Zm0-1.33c.27 0 .5-.073.69-.22.19-.15.335-.403.435-.76.103-.356.155-.85.155-1.48s-.052-1.125-.155-1.485c-.1-.36-.245-.613-.435-.76a1.08 1.08 0 0 0-.69-.225c-.267 0-.497.075-.69.225-.19.147-.337.399-.44.755-.1.357-.15.85-.15 1.48s.05 1.125.15 1.485c.1.36.245.615.435.765.193.147.425.22.695.22Zm7.449 1.33c-.573 0-1.077-.12-1.51-.36-.433-.243-.772-.626-1.015-1.15-.243-.523-.365-1.205-.365-2.045 0-1.363.31-2.376.93-3.04.623-.663 1.507-.995 2.65-.995.277 0 .542.017.795.05.257.034.495.092.715.175v1.24a3.944 3.944 0 0 0-.695-.17c-.243-.04-.49-.06-.74-.06-.677 0-1.187.182-1.53.545-.343.36-.525.92-.545 1.68a2.5 2.5 0 0 1 .7-.305c.27-.073.545-.11.825-.11.45 0 .853.079 1.21.235.357.157.638.4.845.73.207.327.31.749.31 1.265 0 .727-.233 1.295-.7 1.705-.463.407-1.09.61-1.88.61Zm-.105-3.38c-.203 0-.41.03-.62.09a1.81 1.81 0 0 0-.58.275c.02.477.085.85.195 1.12.113.267.265.455.455.565.19.107.412.16.665.16.32 0 .583-.088.79-.265.207-.176.31-.455.31-.835 0-.386-.11-.668-.33-.845-.22-.176-.515-.265-.885-.265Z" fill="#fff"/><rect x="375.709" y="339.873" width="192.251" height="107.048" rx="5" fill="#293567"/><rect x="586.116" y="339.873" width="192.251" height="107.048" rx="5" fill="#293567"/><path d="M375.709 423.948H567.96v17.973a5 5 0 0 1-5 5H380.709a5 5 0 0 1-5-5v-17.973Zm210.407 0h192.251v17.973a5 5 0 0 1-5 5H591.116a5 5 0 0 1-5-5v-17.973Z" fill="#3A467C"/><path d="M535.99 355.75a2.484 2.484 0 1 1-4.968 0 2.484 2.484 0 0 1 4.968 0Zm7.971 0a2.485 2.485 0 1 1-4.97-.001 2.485 2.485 0 0 1 4.97.001Zm7.97 0a2.484 2.484 0 1 1-4.968 0 2.484 2.484 0 0 1 4.968 0Zm194.467 0a2.485 2.485 0 1 1-4.97-.001 2.485 2.485 0 0 1 4.97.001Zm7.97 0a2.485 2.485 0 1 1-4.97-.001 2.485 2.485 0 0 1 4.97.001Zm7.97 0a2.484 2.484 0 1 1-4.968 0 2.484 2.484 0 0 1 4.968 0Z" fill="#4E5EA4"/><path d="M447.005 400.969c-.99 0-2-.08-3.03-.24-1.03-.16-1.995-.39-2.895-.69v-1.575c2.01.64 3.98.96 5.91.96 2.36 0 4.08-.425 5.16-1.275 1.08-.86 1.62-2.075 1.62-3.645 0-1.42-.49-2.51-1.47-3.27-.97-.77-2.475-1.155-4.515-1.155h-3.27v-1.56h1.53c2.25 0 3.965-.375 5.145-1.125 1.18-.75 1.77-1.9 1.77-3.45 0-1.31-.48-2.33-1.44-3.06-.96-.74-2.345-1.11-4.155-1.11-.89 0-1.805.07-2.745.21-.93.13-1.86.345-2.79.645v-1.575c1.76-.55 3.645-.825 5.655-.825 2.35 0 4.16.5 5.43 1.5 1.27.99 1.905 2.36 1.905 4.11 0 1.33-.385 2.445-1.155 3.345-.76.89-1.785 1.535-3.075 1.935 1.62.32 2.86.945 3.72 1.875.86.93 1.29 2.13 1.29 3.6 0 1.97-.69 3.525-2.07 4.665-1.38 1.14-3.555 1.71-6.525 1.71Zm21.647 0c-1.74 0-3.245-.365-4.515-1.095-1.26-.73-2.23-1.875-2.91-3.435-.68-1.57-1.02-3.61-1.02-6.12 0-4.03.855-7.05 2.565-9.06 1.71-2.02 4.205-3.03 7.485-3.03.78 0 1.565.055 2.355.165.79.1 1.525.28 2.205.54v1.59a9.503 9.503 0 0 0-2.235-.57c-.81-.11-1.555-.165-2.235-.165-5.48 0-8.235 3.325-8.265 9.975.8-.52 1.75-.93 2.85-1.23 1.11-.3 2.21-.45 3.3-.45 2.4 0 4.275.54 5.625 1.62 1.35 1.07 2.025 2.685 2.025 4.845 0 2.1-.67 3.695-2.01 4.785-1.33 1.09-3.07 1.635-5.22 1.635Zm-.675-11.37c-.92 0-1.925.14-3.015.42-1.09.27-2.05.7-2.88 1.29.1 2.96.72 5.06 1.86 6.3 1.15 1.23 2.72 1.845 4.71 1.845 1.61 0 2.915-.395 3.915-1.185 1.01-.79 1.515-2.015 1.515-3.675 0-1.68-.53-2.93-1.59-3.75-1.05-.83-2.555-1.245-4.515-1.245Zm21.059 11.37c-2.87 0-5.04-.505-6.51-1.515-1.47-1.02-2.205-2.48-2.205-4.38 0-1.42.395-2.62 1.185-3.6.79-.99 1.895-1.75 3.315-2.28-1.3-.58-2.235-1.3-2.805-2.16-.57-.87-.855-1.885-.855-3.045 0-1.78.67-3.185 2.01-4.215 1.35-1.03 3.26-1.545 5.73-1.545 2.44 0 4.335.495 5.685 1.485 1.35.99 2.025 2.36 2.025 4.11 0 2.66-1.38 4.56-4.14 5.7 1.78.55 3.055 1.27 3.825 2.16.78.89 1.17 1.975 1.17 3.255 0 1.83-.715 3.295-2.145 4.395-1.42 1.09-3.515 1.635-6.285 1.635Zm.69-12.09c.3.06.59.115.87.165 1.5-.57 2.585-1.26 3.255-2.07.68-.81 1.02-1.81 1.02-3 0-1.39-.525-2.445-1.575-3.165-1.05-.73-2.53-1.095-4.44-1.095-1.95 0-3.41.38-4.38 1.14-.97.75-1.455 1.775-1.455 3.075 0 .88.205 1.64.615 2.28.42.63 1.115 1.16 2.085 1.59.98.43 2.315.79 4.005 1.08Zm-7.56 6c0 1.51.585 2.655 1.755 3.435 1.18.78 2.895 1.17 5.145 1.17 2.15 0 3.78-.38 4.89-1.14 1.11-.76 1.665-1.855 1.665-3.285 0-1.27-.495-2.26-1.485-2.97-.98-.71-2.675-1.28-5.085-1.71-.96-.17-1.825-.37-2.595-.6-1.44.47-2.515 1.155-3.225 2.055a4.789 4.789 0 0 0-1.065 3.045Zm170.498 5.82v-1.035l7.23-8.325c1.33-1.54 2.255-2.835 2.775-3.885.52-1.05.78-2.08.78-3.09 0-1.55-.45-2.69-1.35-3.42-.89-.73-2.255-1.095-4.095-1.095-2.03 0-3.9.31-5.61.93v-1.65c.75-.28 1.61-.5 2.58-.66.98-.16 2.015-.24 3.105-.24 2.37 0 4.17.49 5.4 1.47 1.24.97 1.86 2.47 1.86 4.5 0 .87-.125 1.7-.375 2.49-.25.79-.67 1.63-1.26 2.52-.58.88-1.375 1.895-2.385 3.045l-5.97 6.84h11.49v1.605h-14.175Zm26.58.27c-1.67 0-3.13-.375-4.38-1.125s-2.22-1.955-2.91-3.615c-.69-1.67-1.035-3.88-1.035-6.63s.34-4.955 1.02-6.615c.68-1.67 1.64-2.88 2.88-3.63 1.25-.75 2.725-1.125 4.425-1.125 1.7 0 3.17.375 4.41 1.125 1.25.75 2.215 1.96 2.895 3.63.68 1.66 1.02 3.865 1.02 6.615s-.345 4.96-1.035 6.63c-.69 1.66-1.66 2.865-2.91 3.615-1.25.75-2.71 1.125-4.38 1.125Zm0-1.65c1.29 0 2.415-.29 3.375-.87.96-.58 1.705-1.57 2.235-2.97.54-1.41.81-3.355.81-5.835 0-2.51-.27-4.475-.81-5.895-.53-1.42-1.275-2.42-2.235-3-.96-.58-2.085-.87-3.375-.87-1.28 0-2.405.29-3.375.87-.96.58-1.705 1.575-2.235 2.985-.53 1.4-.795 3.34-.795 5.82 0 2.51.265 4.475.795 5.895s1.275 2.42 2.235 3c.96.58 2.085.87 3.375.87Zm22.135 1.65c-1.74 0-3.245-.365-4.515-1.095-1.26-.73-2.23-1.875-2.91-3.435-.68-1.57-1.02-3.61-1.02-6.12 0-4.03.855-7.05 2.565-9.06 1.71-2.02 4.205-3.03 7.485-3.03.78 0 1.565.055 2.355.165.79.1 1.525.28 2.205.54v1.59a9.503 9.503 0 0 0-2.235-.57c-.81-.11-1.555-.165-2.235-.165-5.48 0-8.235 3.325-8.265 9.975.8-.52 1.75-.93 2.85-1.23 1.11-.3 2.21-.45 3.3-.45 2.4 0 4.275.54 5.625 1.62 1.35 1.07 2.025 2.685 2.025 4.845 0 2.1-.67 3.695-2.01 4.785-1.33 1.09-3.07 1.635-5.22 1.635Zm-.675-11.37c-.92 0-1.925.14-3.015.42-1.09.27-2.05.7-2.88 1.29.1 2.96.72 5.06 1.86 6.3 1.15 1.23 2.72 1.845 4.71 1.845 1.61 0 2.915-.395 3.915-1.185 1.01-.79 1.515-2.015 1.515-3.675 0-1.68-.53-2.93-1.59-3.75-1.05-.83-2.555-1.245-4.515-1.245Z" fill="#fff"/><defs><filter id="a" x=".045" y=".197" width="947.442" height="726.616" filterUnits="userSpaceOnUse" color-interpolation-filters="sRGB"><feFlood flood-opacity="0" result="BackgroundImageFix"/><feColorMatrix in="SourceAlpha" values="0 0 0 0 0 0 0 0 0 0 0 0 0 0 0 0 0 0 127 0"/><feOffset dy="3.048"/><feGaussianBlur stdDeviation="1.798"/><feColorMatrix values="0 0 0 0 0.313726 0 0 0 0 0.101961 0 0 0 0 0.984314 0 0 0 0.0449833 0"/><feBlend in2="BackgroundImageFix" result="effect1_dropShadow"/><feColorMatrix in="SourceAlpha" values="0 0 0 0 0 0 0 0 0 0 0 0 0 0 0 0 0 0 127 0"/><feOffset dy="7.325"/><feGaussianBlur stdDeviation="4.321"/><feColorMatrix values="0 0 0 0 0.313726 0 0 0 0 0.101961 0 0 0 0 0.984314 0 0 0 0.0646228 0"/><feBlend in2="effect1_dropShadow" result="effect2_dropShadow"/><feColorMatrix in="SourceAlpha" values="0 0 0 0 0 0 0 0 0 0 0 0 0 0 0 0 0 0 127 0"/><feOffset dy="13.793"/><feGaussianBlur stdDeviation="8.136"/><feColorMatrix values="0 0 0 0 0.313726 0 0 0 0 0.101961 0 0 0 0 0.984314 0 0 0 0.08 0"/><feBlend in2="effect2_dropShadow" result="effect3_dropShadow"/><feColorMatrix in="SourceAlpha" values="0 0 0 0 0 0 0 0 0 0 0 0 0 0 0 0 0 0 127 0"/><feOffset dy="24.604"/><feGaussianBlur stdDeviation="14.514"/><feColorMatrix values="0 0 0 0 0.313726 0 0 0 0 0.101961 0 0 0 0 0.984314 0 0 0 0.0953772 0"/><feBlend in2="effect3_dropShadow" result="effect4_dropShadow"/><feColorMatrix in="SourceAlpha" values="0 0 0 0 0 0 0 0 0 0 0 0 0 0 0 0 0 0 127 0"/><feOffset dy="46.019"/><feGaussianBlur stdDeviation="27.146"/><feColorMatrix values="0 0 0 0 0.313726 0 0 0 0 0.101961 0 0 0 0 0.984314 0 0 0 0.115017 0"/><feBlend in2="effect4_dropShadow" result="effect5_dropShadow"/><feColorMatrix in="SourceAlpha" values="0 0 0 0 0 0 0 0 0 0 0 0 0 0 0 0 0 0 127 0"/><feOffset dy="110.152"/><feGaussianBlur stdDeviation="64.977"/><feColorMatrix values="0 0 0 0 0.313726 0 0 0 0 0.101961 0 0 0 0 0.984314 0 0 0 0.16 0"/><feBlend in2="effect5_dropShadow" result="effect6_dropShadow"/><feBlend in="SourceGraphic" in2="effect6_dropShadow" result="shape"/></filter><filter id="e" x="230.418" y="261.047" width="29.76" height="29.76" filterUnits="userSpaceOnUse" color-interpolation-filters="sRGB"><feFlood flood-opacity="0" result="BackgroundImageFix"/><feColorMatrix in="SourceAlpha" values="0 0 0 0 0 0 0 0 0 0 0 0 0 0 0 0 0 0 127 0"/><feOffset dy="7"/><feGaussianBlur stdDeviation="5"/><feColorMatrix values="0 0 0 0 0 0 0 0 0 0 0 0 0 0 0 0 0 0 0.49 0"/><feBlend in2="BackgroundImageFix" result="effect1_dropShadow"/><feBlend in="SourceGraphic" in2="effect1_dropShadow" result="shape"/></filter><filter id="f" x="350.477" y="189.495" width="29.76" height="29.76" filterUnits="userSpaceOnUse" color-interpolation-filters="sRGB"><feFlood flood-opacity="0" result="BackgroundImageFix"/><feColorMatrix in="SourceAlpha" values="0 0 0 0 0 0 0 0 0 0 0 0 0 0 0 0 0 0 127 0"/><feOffset dy="7"/><feGaussianBlur stdDeviation="5"/><feColorMatrix values="0 0 0 0 0 0 0 0 0 0 0 0 0 0 0 0 0 0 0.49 0"/><feBlend in2="BackgroundImageFix" result="effect1_dropShadow"/><feBlend in="SourceGraphic" in2="effect1_dropShadow" result="shape"/></filter><filter id="g" x="694.407" y="135.87" width="29.76" height="29.76" filterUnits="userSpaceOnUse" color-interpolation-filters="sRGB"><feFlood flood-opacity="0" result="BackgroundImageFix"/><feColorMatrix in="SourceAlpha" values="0 0 0 0 0 0 0 0 0 0 0 0 0 0 0 0 0 0 127 0"/><feOffset dy="7"/><feGaussianBlur stdDeviation="5"/><feColorMatrix values="0 0 0 0 0 0 0 0 0 0 0 0 0 0 0 0 0 0 0.49 0"/><feBlend in2="BackgroundImageFix" result="effect1_dropShadow"/><feBlend in="SourceGraphic" in2="effect1_dropShadow" result="shape"/></filter><filter id="h" x="295.492" y="144.599" width="139.729" height="108.656" filterUnits="userSpaceOnUse" color-interpolation-filters="sRGB"><feFlood flood-opacity="0" result="BackgroundImageFix"/><feColorMatrix in="SourceAlpha" values="0 0 0 0 0 0 0 0 0 0 0 0 0 0 0 0 0 0 127 0"/><feOffset dy="30"/><feGaussianBlur stdDeviation="20"/><feColorMatrix values="0 0 0 0 0 0 0 0 0 0 0 0 0 0 0 0 0 0 0.25 0"/><feBlend in2="BackgroundImageFix" result="effect1_dropShadow"/><feBlend in="SourceGraphic" in2="effect1_dropShadow" result="shape"/></filter><filter id="j" x="457.036" y="80.271" width="139.729" height="108.656" filterUnits="userSpaceOnUse" color-interpolation-filters="sRGB"><feFlood flood-opacity="0" result="BackgroundImageFix"/><feColorMatrix in="SourceAlpha" values="0 0 0 0 0 0 0 0 0 0 0 0 0 0 0 0 0 0 127 0"/><feOffset dy="30"/><feGaussianBlur stdDeviation="20"/><feColorMatrix values="0 0 0 0 0 0 0 0 0 0 0 0 0 0 0 0 0 0 0.25 0"/><feBlend in2="BackgroundImageFix" result="effect1_dropShadow"/><feBlend in="SourceGraphic" in2="effect1_dropShadow" result="shape"/></filter><filter id="m" x="745.158" y="171.27" width="29.76" height="29.76" filterUnits="userSpaceOnUse" color-interpolation-filters="sRGB"><feFlood flood-opacity="0" result="BackgroundImageFix"/><feColorMatrix in="SourceAlpha" values="0 0 0 0 0 0 0 0 0 0 0 0 0 0 0 0 0 0 127 0"/><feOffset dy="7"/><feGaussianBlur stdDeviation="5"/><feColorMatrix values="0 0 0 0 0 0 0 0 0 0 0 0 0 0 0 0 0 0 0.49 0"/><feBlend in2="BackgroundImageFix" result="effect1_dropShadow"/><feBlend in="SourceGraphic" in2="effect1_dropShadow" result="shape"/></filter><filter id="n" x="511.086" y="127.703" width="29.76" height="29.76" filterUnits="userSpaceOnUse" color-interpolation-filters="sRGB"><feFlood flood-opacity="0" result="BackgroundImageFix"/><feColorMatrix in="SourceAlpha" values="0 0 0 0 0 0 0 0 0 0 0 0 0 0 0 0 0 0 127 0"/><feOffset dy="7"/><feGaussianBlur stdDeviation="5"/><feColorMatrix values="0 0 0 0 0 0 0 0 0 0 0 0 0 0 0 0 0 0 0.49 0"/><feBlend in2="BackgroundImageFix" result="effect1_dropShadow"/><feBlend in="SourceGraphic" in2="effect1_dropShadow" result="shape"/></filter><filter id="o" x="623.367" y="207.71" width="29.76" height="29.76" filterUnits="userSpaceOnUse" color-interpolation-filters="sRGB"><feFlood flood-opacity="0" result="BackgroundImageFix"/><feColorMatrix in="SourceAlpha" values="0 0 0 0 0 0 0 0 0 0 0 0 0 0 0 0 0 0 127 0"/><feOffset dy="7"/><feGaussianBlur stdDeviation="5"/><feColorMatrix values="0 0 0 0 0 0 0 0 0 0 0 0 0 0 0 0 0 0 0.49 0"/><feBlend in2="BackgroundImageFix" result="effect1_dropShadow"/><feBlend in="SourceGraphic" in2="effect1_dropShadow" result="shape"/></filter><filter id="p" x="308.318" y="261.096" width="29.76" height="29.76" filterUnits="userSpaceOnUse" color-interpolation-filters="sRGB"><feFlood flood-opacity="0" result="BackgroundImageFix"/><feColorMatrix in="SourceAlpha" values="0 0 0 0 0 0 0 0 0 0 0 0 0 0 0 0 0 0 127 0"/><feOffset dy="7"/><feGaussianBlur stdDeviation="5"/><feColorMatrix values="0 0 0 0 0 0 0 0 0 0 0 0 0 0 0 0 0 0 0.49 0"/><feBlend in2="BackgroundImageFix" result="effect1_dropShadow"/><feBlend in="SourceGraphic" in2="effect1_dropShadow" result="shape"/></filter><filter id="q" x="568.383" y="164.427" width="139.729" height="108.656" filterUnits="userSpaceOnUse" color-interpolation-filters="sRGB"><feFlood flood-opacity="0" result="BackgroundImageFix"/><feColorMatrix in="SourceAlpha" values="0 0 0 0 0 0 0 0 0 0 0 0 0 0 0 0 0 0 127 0"/><feOffset dy="30"/><feGaussianBlur stdDeviation="20"/><feColorMatrix values="0 0 0 0 0 0 0 0 0 0 0 0 0 0 0 0 0 0 0.25 0"/><feBlend in2="BackgroundImageFix" result="effect1_dropShadow"/><feBlend in="SourceGraphic" in2="effect1_dropShadow" result="shape"/></filter><linearGradient id="b" x1="-53.519" y1="199.255" x2="553.327" y2="390.019" gradientUnits="userSpaceOnUse"><stop stop-color="#AD00FF"/><stop offset="1" stop-color="#3901E1"/></linearGradient><linearGradient id="c" x1="422.306" y1="356.706" x2="213.931" y2="215.087" gradientUnits="userSpaceOnUse"><stop stop-color="#5C29F1"/><stop offset=".474" stop-color="#E37AC2"/><stop offset=".807" stop-color="#FF9067"/></linearGradient><linearGradient id="d" x1="477.306" y1="308.706" x2="464.306" y2="218.706" gradientUnits="userSpaceOnUse"><stop stop-color="#040815"/><stop offset="1" stop-color="#040815" stop-opacity="0"/></linearGradient><linearGradient id="i" x1="381.083" y1="183.33" x2="367.594" y2="150.826" gradientUnits="userSpaceOnUse"><stop stop-color="#5A34CB"/><stop offset="1" stop-color="#B634CB"/></linearGradient><linearGradient id="k" x1="539.267" y1="137.668" x2="497.957" y2="67.011" gradientUnits="userSpaceOnUse"><stop offset=".026" stop-color="#4512C7"/><stop offset=".531" stop-color="#38AAEA"/><stop offset="1" stop-color="#4EDB60"/></linearGradient><linearGradient id="l" x1="541.618" y1="167.173" x2="541.618" y2="269.135" gradientUnits="userSpaceOnUse"><stop stop-color="#59C3FF" stop-opacity=".7"/><stop offset="1" stop-color="#59C3FF" stop-opacity="0"/></linearGradient><linearGradient id="r" x1="650.613" y1="221.824" x2="609.304" y2="151.167" gradientUnits="userSpaceOnUse"><stop offset=".026" stop-color="#4512C7"/><stop offset=".531" stop-color="#38AAEA"/><stop offset="1" stop-color="#4EDB60"/></linearGradient></defs></svg>